<?xml version="1.0" encoding="UTF-8"?>
<svg xmlns="http://www.w3.org/2000/svg" id="Layer_1" data-name="Layer 1" version="1.1" viewBox="0 0 547.9 104">
  <defs>
    <style>
      .cls-1 {
        fill: #008b44;
      }

      .cls-1, .cls-2 {
        stroke-width: 0px;
      }

      .cls-2 {
        fill: #e20613;
      }
    </style>
  </defs>
  <path class="cls-2" d="M55.9,29.6c5.5,5.9,10.7,13.9,16.1,22.2,1.6-2.2,3.1-4.4,4.6-6.6,1.2-1.7,2.3-3.3,3.4-5-7.1-10-14.3-19-23.1-24.7C43.3,6.7,30,3.4,10.2,6c30.8,6.9,39.1,16.5,45.7,23.6h0Z"></path>
  <path class="cls-2" d="M96.2,63.2c-.4-.6-.9-1.1-1.3-1.7-2.5,3.6-5.1,7.3-8,11,13.4,15.5,33.7,29.8,69.6,24.8-16.9-4.2-39.8-7-60.3-34h0Z"></path>
  <path class="cls-1" d="M110.8,29.6c6.6-7.2,14.8-16.8,45.7-23.6-19.8-2.6-33.1.7-46.8,9.6-15.4,9.9-25.8,29.9-39.3,47.6-20.5,27-43.3,29.8-60.3,34,48.1,6.7,68.2-21.3,81.2-40.2,6.7-10.1,12.9-20.2,19.5-27.3h0Z"></path>
  <path class="cls-2" d="M109,39v31.6c2.4,2.3,4.9,4.3,7.3,6V30.5c-1.2.9-6.1,6.6-7.3,8.4h0Z"></path>
  <path class="cls-2" d="M121.2,30.9v48.9c2.5,1.5,4.9,2.8,7.4,3.9V21.1c-3.1,1.7-5.5,3.3-7.4,5v4.9h0Z"></path>
  <path class="cls-2" d="M132.9,18.9v66.6c2.5,1,4.9,1.8,7.4,2.5V15.8c-3.1,1-5.5,2-7.4,3h0Z"></path>
  <path class="cls-2" d="M139.7,90.4h0s0,0,0,0c0,0,0,0,0,0h0Z"></path>
  <path class="cls-1" d="M49.6,30.5v46c2.4-1.8,4.9-3.8,7.3-6v-31.6c-1.2-1.9-6.1-7.5-7.3-8.4h0Z"></path>
  <path class="cls-1" d="M37.3,79v4.7c2.4-1.1,4.9-2.4,7.3-3.9V26c-1.8-1.6-4.3-3.3-7.3-5v57.9h0Z"></path>
  <path class="cls-1" d="M25.7,83v5c2.4-.7,4.9-1.5,7.3-2.5V18.9c-1.8-1-4.3-2-7.3-3v67.2h0Z"></path>
  <polygon class="cls-1" points="194.8 55.6 176.4 55.6 176.4 65.1 198.8 65.1 197.1 73.7 166.2 73.7 166.2 29.7 198.4 29.7 196.8 38.3 176.4 38.3 176.4 47 196.4 47 194.8 55.6 194.8 55.6"></polygon>
  <polygon class="cls-1" points="212.7 29.7 222.6 62 232.4 29.7 243 29.7 228.3 73.7 216.5 73.7 201.6 29.7 212.7 29.7 212.7 29.7"></polygon>
  <path class="cls-1" d="M265.4,66.3c1.9,0,3.5-.1,4.7-.4,1.2-.3,2.2-.9,2.9-1.7.7-.8,1.2-2,1.5-3.5.3-1.5.4-3.5.4-5.9v-6.1c0-2.4-.1-4.4-.4-5.9-.3-1.5-.8-2.7-1.5-3.5-.7-.8-1.7-1.4-2.9-1.7-1.2-.3-2.8-.5-4.7-.5s-3.5.1-4.8.4c-1.2.3-2.2.9-2.9,1.7-.7.8-1.2,2-1.5,3.5-.3,1.5-.4,3.5-.4,5.9v6.1c0,2.4.1,4.3.4,5.8.3,1.5.8,2.7,1.5,3.5.7.8,1.7,1.4,2.9,1.7,1.2.3,2.8.5,4.8.5h0ZM265.4,74.9c-3.9,0-7.1-.4-9.7-1.2-2.6-.8-4.6-2-6.2-3.6-1.5-1.6-2.6-3.7-3.3-6.2-.6-2.5-1-5.5-1-9v-6.4c0-3.3.3-6.3.9-8.8.6-2.5,1.7-4.6,3.2-6.2,1.5-1.7,3.6-2.9,6.2-3.7,2.6-.8,5.8-1.2,9.7-1.2s7.1.4,9.7,1.2c2.6.8,4.6,2,6.2,3.6,1.5,1.6,2.6,3.7,3.3,6.2.6,2.5,1,5.5,1,8.9v6.4c0,3.4-.3,6.3-.9,8.8-.6,2.5-1.7,4.6-3.2,6.2s-3.6,2.9-6.2,3.7c-2.6.8-5.8,1.2-9.7,1.2h0Z"></path>
  <polygon class="cls-2" points="310.4 61.4 301.9 45 301.9 73.7 292.3 73.7 292.3 29.7 303.2 29.7 314.7 52.2 325.8 29.7 336.7 29.7 336.7 73.7 327.1 73.7 327.1 44.7 318.6 61.4 310.4 61.4 310.4 61.4"></polygon>
  <polygon class="cls-2" points="354.8 29.7 354.8 73.7 344.6 73.7 344.6 29.7 354.8 29.7 354.8 29.7"></polygon>
  <path class="cls-2" d="M382.9,47.8c2.1.4,3.9.9,5.4,1.5,1.4.7,2.6,1.5,3.5,2.5.9,1,1.5,2.2,1.9,3.6.4,1.4.6,3,.6,4.8v.9c0,2.2-.3,4.1-.9,5.7-.6,1.6-1.5,2.9-2.9,4-1.4,1.1-3.2,1.8-5.4,2.3-2.2.5-5,.7-8.2.7h-6.4c-1.3,0-2.7,0-4.3,0-1.6,0-3.4,0-5.4,0l1.5-8.3c3.3,0,6,.1,8.3.1h6.3c1.4,0,2.5,0,3.4-.2.9-.1,1.6-.4,2.1-.7.5-.3.9-.8,1.1-1.3.2-.6.3-1.3.3-2.1s0-1.4-.2-2c-.1-.5-.3-1-.7-1.3s-.8-.6-1.4-.9c-.6-.2-1.4-.4-2.4-.6l-6.5-1.1c-2.4-.4-4.4-.9-5.9-1.6-1.5-.6-2.7-1.5-3.6-2.4-.9-1-1.5-2.2-1.8-3.5-.3-1.4-.5-2.9-.5-4.8v-1c0-2,.3-3.7.9-5.3.6-1.5,1.5-2.8,2.8-3.9,1.3-1.1,3-1.9,5.2-2.4,2.1-.6,4.7-.8,7.8-.8h6.7c1.2,0,2.5,0,4,0,1.4,0,3,0,4.9,0l-1.5,8.3c-3.2,0-6-.1-8.2-.1h-6c-1.2,0-2.3,0-3.1.2-.8.1-1.5.4-1.9.7-.5.3-.8.7-1,1.3-.2.5-.3,1.2-.3,2s0,1.3.2,1.8c.1.5.3.9.6,1.2.3.3.8.6,1.3.8.6.2,1.3.4,2.3.6l7.5,1.3h0Z"></path>
  <path class="cls-2" d="M399.7,29.7h10.2v26.6c0,1.9.1,3.6.3,4.9.2,1.3.6,2.3,1.3,3.1.6.8,1.5,1.3,2.5,1.6,1.1.3,2.4.5,4.1.5s3-.2,4.1-.5c1.1-.3,1.9-.8,2.5-1.6.6-.8,1.1-1.8,1.3-3.1.2-1.3.4-2.9.4-4.9v-26.6h10.1v26.5c0,3.2-.3,6-.9,8.3-.6,2.3-1.6,4.3-3,5.8-1.4,1.5-3.3,2.7-5.7,3.4-2.4.7-5.3,1.1-8.9,1.1s-6.6-.4-8.9-1.1c-2.4-.7-4.2-1.9-5.7-3.4-1.4-1.5-2.4-3.5-3-5.8-.6-2.3-.9-5.1-.9-8.3v-26.5h0Z"></path>
  <path class="cls-2" d="M478.6,44.8c0,3.2-.7,5.8-2,7.7-1.3,1.9-3.3,3.3-5.8,4.2l10,17h-11.2l-8.4-15.5h-7v15.5h-10V29.7h17.8c3,0,5.5.2,7.6.7,2.1.5,3.8,1.3,5.2,2.4,1.3,1.1,2.3,2.5,3,4.2.6,1.7,1,3.8,1,6.2v1.7h0ZM468.6,43.8c0-1.2-.1-2.1-.4-2.9-.2-.8-.6-1.4-1.2-1.8-.5-.4-1.2-.7-2.1-.9-.9-.2-2-.2-3.3-.2h-7.5v12.3h7.5c1.3,0,2.4,0,3.3-.2.9-.2,1.6-.5,2.1-.9.5-.5.9-1.1,1.2-1.8.2-.8.4-1.7.4-2.9v-.5h0Z"></path>
  <polygon class="cls-2" points="514.1 55.6 495.7 55.6 495.7 65.1 518.1 65.1 516.4 73.7 485.5 73.7 485.5 29.7 517.7 29.7 516.1 38.3 495.7 38.3 495.7 47 515.7 47 514.1 55.6 514.1 55.6"></polygon>
</svg>
