<svg data-name="Raggruppa 280" xmlns="http://www.w3.org/2000/svg" width="248" height="108.883"><defs><clipPath id="a"><path data-name="Rettangolo 264" fill="none" d="M0 0h248v108.883H0z"/></clipPath></defs><g data-name="Raggruppa 280" clip-path="url(#a)" fill="#fff"><path data-name="Tracciato 287" d="M131.108 34.082h6.65a5.579 5.579 0 1 1 0 11.156h-3.123v5.53h-3.527Zm5.959 8.082a2.381 2.381 0 0 0 2.622-2.527 2.357 2.357 0 0 0-2.622-2.479h-2.431v5.006Z"/><path data-name="Tracciato 288" d="M144.456 44.91a6.354 6.354 0 1 1 6.341 6.221 6.057 6.057 0 0 1-6.341-6.221m9.249 0a2.9 2.9 0 1 0-2.908 3.075 2.856 2.856 0 0 0 2.908-3.075"/><path data-name="Tracciato 289" d="M172.105 47.336v-5.459h-1.976v-2.764h2.1v-3.17l3.218-1.193v4.363h2.6v2.764h-2.6v4.673c0 1.048.524 1.573 1.645 1.573a3.628 3.628 0 0 0 .953-.143v2.886a8.118 8.118 0 0 1-2 .261c-2.122 0-3.934-1.072-3.934-3.789"/><path data-name="Tracciato 290" d="M179.471 44.857a5.862 5.862 0 0 1 5.983-6.126c3.7 0 5.793 2.574 5.793 6.174 0 .286-.024.787-.048.977h-8.247a2.79 2.79 0 0 0 3 2.479 7.645 7.645 0 0 0 4.433-1.431v2.885a8.218 8.218 0 0 1-4.791 1.31 5.878 5.878 0 0 1-6.126-6.268m8.414-1.216a2.244 2.244 0 0 0-2.431-2.145 2.37 2.37 0 0 0-2.431 2.145Z"/><path data-name="Tracciato 291" d="M196.084 44.91a2.88 2.88 0 0 0 3.075 3.051 5.682 5.682 0 0 0 3.408-1.1v3.457a8.161 8.161 0 0 1-3.575.81 6.2 6.2 0 1 1 0-12.4 8.16 8.16 0 0 1 3.575.811v3.432a5.843 5.843 0 0 0-3.408-1.1 2.9 2.9 0 0 0-3.075 3.028"/><path data-name="Tracciato 292" d="M204.975 39.11h3.289v.929a4.447 4.447 0 0 1 3.267-1.311 4.113 4.113 0 0 1 4.266 4.266v7.771h-3.337v-6.936a1.9 1.9 0 0 0-1.954-2.05 2.711 2.711 0 0 0-2.193 1.215v7.771h-3.337Z"/><path data-name="Tracciato 293" d="M227.119 44.91a2.88 2.88 0 0 0 3.075 3.051 5.682 5.682 0 0 0 3.408-1.1v3.457a8.161 8.161 0 0 1-3.575.81 6.2 6.2 0 1 1 0-12.4 8.159 8.159 0 0 1 3.575.811v3.432a5.843 5.843 0 0 0-3.408-1.1 2.9 2.9 0 0 0-3.075 3.028"/><path data-name="Tracciato 294" d="M235.295 44.91a6.354 6.354 0 1 1 6.341 6.221 6.057 6.057 0 0 1-6.341-6.221m9.249 0a2.9 2.9 0 1 0-2.908 3.075 2.856 2.856 0 0 0 2.908-3.075"/><path data-name="Tracciato 295" d="M161.499 59.156h-5.316v-3.265h14.254v3.265l-5.339.024V72.6l-3.6-.024Z"/><path data-name="Tracciato 296" d="M168.625 66.712a6.354 6.354 0 1 1 6.341 6.222 6.057 6.057 0 0 1-6.341-6.222m9.249 0a2.9 2.9 0 1 0-2.908 3.075 2.856 2.856 0 0 0 2.908-3.075"/><path data-name="Tracciato 297" d="M183.428 60.92h3.289v1.692a3.272 3.272 0 0 1 3.123-2.073 7.7 7.7 0 0 1 .858.071v3.385a4.909 4.909 0 0 0-1.215-.119 2.8 2.8 0 0 0-2.717 1.955v6.745h-3.338Z"/><path data-name="Tracciato 298" d="M198.802 60.92h3.289v.93a4.449 4.449 0 0 1 3.267-1.311 4.112 4.112 0 0 1 4.266 4.266v7.771h-3.337V65.64a1.9 1.9 0 0 0-1.954-2.05 2.711 2.711 0 0 0-2.193 1.215v7.771h-3.337Z"/><path data-name="Tracciato 299" d="M211.482 66.712a6.354 6.354 0 1 1 6.341 6.222 6.057 6.057 0 0 1-6.341-6.222m9.249 0a2.9 2.9 0 1 0-2.908 3.075 2.856 2.856 0 0 0 2.908-3.075"/><path data-name="Tracciato 300" d="m35.914 63.967.373-.356.47.932-.418-1.085h-.362l-.419.509Zm.053.129.252-.039.12.3.177.086-.259-.575Zm1.055-1.824c.1.015.144.107.177.289.051.455.332.628.419.1.032-.166.086-.23.177-.194v-.1l-.773-.2Zm.773-3.5-.773-.337v3.43l.773.212ZM37.611 58l-.26.2.225-.035.107.269.158.077Zm48.246 3.073h.44v-.064h-.444l-.294.091.015.062Zm-48.6 3.11.353-.337.445.881-.4-1.025h-.343l-.4.481Zm.051.122.238-.037.114.285.168.081-.244-.543Zm1.723-4.987-.773-.337v3.23l.773.212Zm-1.35-1.686h-.324l-.374.455h.317l.334-.319.42.833Zm48.17 4.539h.449v-.064h-.45l-.287.078.013.062Zm0 .549h.449v-.064h-.449l-.287.068.011.063Zm-50.284-.82c.12.018.186.119.226.317.065.483.423.69.537.131.039-.179.117-.238.226-.2v-.1l-.989-.257Zm49.993-.281.011.063.282-.064h.447v-.064a2.325 2.325 0 0 0-.736.065M31.362 54.6l-.542.659h.46l.484-.462.608 1.207-.542-1.4Zm1.471 8.933.284-.044.135.341.2.1-.292-.649Zm.45-8.036H32.9l-.443.539h.376l.4-.378.5.986Zm52.283 12.16h.734v-.064h-.731Zm-52.793-4.266.422-.4.531 1.053-.473-1.225h-.409l-.473.575Zm-.919-.842h-.469l-.542.659h.457l.484-.462.609 1.206Zm-.742-2.3.979.268v-4.224l-.979-.426Zm.26 3.121.326-.051.156.39.23.112-.335-.744Zm1.828-7.435-.308.239.266-.041.127.319.187.091Zm-1.14-.055-.334-.744-.376.293.326-.051.156.39Zm-1.651 12.333.276-.007v-.064c-.166.01-.56 0-.73 0v.064Zm5.159-6.741.989.271v-3.506l-.989-.43Zm-5.614 6.185h.731v-.064h-.731Zm3.456-10.79-.854-.372v4.152l.854.233Zm-.854 4.267c.111.016.159.127.2.345.057.554.368.75.464.113.035-.2.091-.281.2-.24v-.116l-.854-.221Zm-2.6 5.973h.731v-.064h-.731Zm4.3-3.423.427-.407.537 1.064-.48-1.241h-.414l-.478.582Zm-.38-2.214c.109.016.159.122.2.33.057.524.367.718.464.113.035-.19.093-.265.2-.225v-.11l-.854-.221Zm.647-4.916-.28.218.242-.038.115.29.171.083Zm.078-.4h-.348l-.4.49h.342l.36-.343.452.9Zm1.392 1.43.261-.041.124.312.184.089-.268-.595Zm-1.675 6.244.287-.045.137.344.2.1-.3-.656Zm2.061-6.9H36l-.434.528h.368l.387-.37.487.965Zm49.477 6.888h.444v-.064h-.45l-.287.042.007.063Zm0 .549h.444V64.3h-.45l-.287.034.006.064Zm-54.741-3.6c.124.018.182.136.224.369.066.582.421.8.532.129.04-.212.107-.294.224-.248v-.123l-.979-.254ZM86.3 67.044h-.731v.064h.731Zm-51.568-9.6-.854-.372v3.939l.854.233Zm3.531 5.146c.1.015.145.1.177.275.051.427.331.6.42.1.031-.156.087-.215.176-.18V62.7l-.773-.2Zm47.593.679h.444V63.2a3.371 3.371 0 0 0-.735.047l.008.063Zm-61.973 8.3a6.9 6.9 0 0 1 .058-1.177v-5.37c-.017-3.16-2.027-3.7-2.083-.158.008.137-.031 6.267.045 6.194v.735l1.98-.225M85.556 56.2l.021.06.282-.13h.441v-.064h-.444Zm.741-.683h-.444l-.3.148.022.058.282-.142h.443Zm-.438-.485h.441v-.064h-.444l-.3.154.023.058Zm-47.026 3.59-.26.2.225-.035.107.27.158.077Zm46.745-3.983.282-.153h.44v-.064h-.444l-.3.16Zm.281 2.042h.441v-.064h-.444l-.3.15.023.058Zm0 2.2h.441v-.064h-.444l-.3.113.018.061Zm-.3-.516.016.062.283-.094h.44v-.064h-.444Zm.3-1.13h.441v-.064h-.444l-.3.13.02.06Zm0 .549h.441v-.064h-.444l-.3.115.018.06Zm-.3-3.761.022.059.282-.139h.437v-.064h-.444Zm-56.1 16.921v-9.458c.006.005 0-.2 0-.2l-.928-.18v-1.037l-.967-.241v-3.595h-.111v.481h-.159a1.243 1.243 0 0 0-.293-.73h1.2l-2.042-1.448-2.042 1.448h1.2a1.243 1.243 0 0 0-.293.73h-.214v.164h.354a1 1 0 1 1 1.986-.078v.081h.3V59.8l-.476-.119v-.363h-.746v.182l-.16-.04v-.137h-.548l-4.195-1.047v-2.043h-.111v.481h-.158a1.245 1.245 0 0 0-.293-.73h1.2l-2.042-1.448-2.042 1.448h1.2a1.241 1.241 0 0 0-.293.73h-.214v.164h.353a1 1 0 1 1 1.983 0h.3v1.366l-.476-.119v-.97h-.742v.784l-.16-.04v-.744h-.746v.558l-2.28-.569-1.932-.482v.1l1.64.41v.149l-1.664-.406v.051l1.664.406v1.4l-1.664-.322v.2L29.4 61.475c.029-.01-.081 9.582.055 9.464m-2.506-15.01a1.091 1.091 0 0 0-1.575 0v-.155h-.545l1.333-.928 1.333.928h-.545Zm-6.236 0a1.091 1.091 0 0 0-1.575 0v-.155h-.548l1.333-.928 1.333.928h-.546ZM17.6 58.987l-.79-.153v-1.587l.79.2Zm1.488.288L17.691 59v-1.34l1.4.351Zm0-1.316-1.4-.35v-.142l1.4.349Zm.932 1.5-.694-.134v-1.449l.694.174Zm1.474.286-1.384-.268v-1.214l1.384.327Zm0-1.2-1.384-.327v-.14l1.384.346Zm.8 1.359-.574-.111v-1.317l.574.143Zm1.224.237-1.156-.224V58.8l1.156.282Zm0-1.1-1.156-.282v-.114l1.156.289Zm.746 1.248-.6-.115v-1.2l.6.149Zm1.143.221-1.068-.207v-1.019l1.068.26Zm0-1.008-1.068-.26v-.1l1.068.267Zm.6 1.125-.451-.088v-1.104l.451.112Zm1.092.212-1.017-.2v-.929l1.017.248Zm0-.923-1.017-.248v-.091l1.017.255Zm.406 1-.256-.05v-1l.256.064Zm.906.175-.83-.161v-.846l.83.2Zm0-.857-.83-.2v-.082l.83.208Zm-7.54 10.917c.117-.094.041-6.07.062-6.36 0-1.482-.492-2.755-1.1-2.844s-1.1 1.109-1.1 2.677c-.011.988 0 6.671.047 7.521l2.091-.237Zm-.128-14.3c-.021-1.3-1.627-1.292-1.639.006 0-.006 1.65.011 1.639-.006m6.23.3h-.746v2h.746Zm.006-.3c-.021-1.3-1.627-1.292-1.639.006 0-.005 1.649.011 1.639-.006M86.3 53.324h-.444l-.3.151.023.058.282-.145h.439ZM17.652 72.272a7.413 7.413 0 0 1 .075-1.389v-6.336c-.023-3.725-2.628-4.415-2.7-.205-.014 1.08 0 7.293.058 8.222l2.568-.292M28.5 71.041c.067-2.1.039-3.573.045-5.672-.01-2.744-1.46-3.147-1.5-.114v4.893a10.209 10.209 0 0 1 .032 1.054l1.42-.161m-9.003 14.447a10.771 10.771 0 0 1 1.279 4.223.609.609 0 0 0 .155-.413c.272-4.009-1.6-7.635-4.406-9.061-.327 2.536.239 7.288 3.817 9.506a.324.324 0 0 0 .4.005h-.042a13.763 13.763 0 0 0-2.4-5.946 12.758 12.758 0 0 1-1.022-1.872c.662 1.273 1.543 2.285 2.22 3.552m66.363-26.057h.442v-.064h-.444l-.3.107.017.061ZM26.545 71.263a6.352 6.352 0 0 1 .054-1.086v-4.956c-.016-2.916-1.881-3.419-1.933-.147.007.117-.028 5.8.041 5.718v.679l1.837-.208M25.32 59.156h.746v-2h-.746Zm60.98-6.381h-.444l-.3.158.023.058.282-.152h.439Zm-.44 7.2h.44v-.065h-.444l-.3.1.016.061ZM39.5 62.9c.095.015.145.1.176.26.051.4.331.566.42.1.031-.147.09-.2.177-.165v-.084l-.773-.2Zm.579-3.68-.26.2.225-.035.107.27.158.077Zm.073-.367h-.324l-.374.455h.318l.334-.319.42.833Zm-.4 5.766.308-.295.388.769-.348-.893h-.3l-.345.42Zm45.814-4.08.013.062.281-.081h.44v-.064h-.45Zm-45.77 4.186L40 64.7l.1.249.146.071-.213-.474Zm-1.27-.325.334-.319.42.833-.374-.969h-.324l-.374.456Zm.38-6.144h-.324l-.374.455h.318l.334-.319.42.833Zm1.365 1.6-.773-.337v3.03l.773.212Zm1.857.2-.282.343h.239l.252-.24.316.627-.281-.729Zm-3.555 4.455.225-.035.107.27.158.077-.231-.513Zm3.578.542.169-.026.081.2.119.058-.174-.386Zm-.176-1.829.492.134v-2.55l-.492-.214Zm.516-2.506-.174-.387-.2.152.169-.026.081.2Zm-.09 3.906h-.244l-.282.343h.239l.251-.24.316.627Zm-.427-1.092c.141.011.119.552.246.54.137.053.1-.475.246-.414v-.074l-.492-.128Zm-.623.875h-.284l-.329.4h.279l.293-.28.369.732Zm-.292.5.2-.031.094.237.139.067-.2-.451Zm-.036-5.427-.329.4h.28l.293-.28.369.732-.328-.851Zm.423.774-.2-.451-.228.177.2-.031.095.237Zm-.711 2.963c.093.013.145.092.176.246.051.372.33.534.42.1.03-.137.092-.184.176-.15v-.079l-.773-.2Zm28.793-2.987-.874.452h.517v-.02h-.352l.723-.316.722.316h-.35v.02h.519c-.007 0-.9-.468-.9-.452m-19.046 8.24c.411-.052.317.54.741.524.424.016.33-.576.741-.524v-.082h-1.487Zm-20.533-1.911h.446l.287.023v-.064L30.4 66.5h-.444Zm19.019-6.332-.9.456h.519c.031-.042-.32-.011-.351-.02l.722-.316.722.316h-.351c-.034.045.516.009.519.02s-.873-.453-.881-.456m2.65 5.874h-.8v2.032h.8Zm0-4.616h-.8v2.032h.8Zm-.393 3.358-.9.456h.519c.031-.042-.321-.011-.352-.02l.722-.315.722.315h-.352c-.034.045.516.009.519.02s-.873-.453-.881-.456m-3.007-.988c.411-.052.317.54.741.524.424.016.329-.576.741-.524v-.082h-1.477Zm3.611-2.506h-1.22v.082h1.224Zm-3.611 7.122c.411-.052.317.54.741.524.424.016.329-.576.741-.524v-.082h-1.477Zm17.421-7.122h-1.224v.082h1.224Zm-16.063 4.616h-1.225v.082h1.224Zm-.211-4.48h-.8v2.032h.8Zm0 4.616h-.8v2.032h.8Zm.211-4.752h-1.225v.082h1.224Zm-.6 3.494-.9.456h.519c.031-.042-.32-.011-.351-.02l.722-.315.722.315h-.351c-.034.045.516.009.519.02s-.873-.453-.881-.456m7.088-4.68a1.094 1.094 0 0 0-.982 1.178c0 .325.007 5.639.041 1.84-.143-2.811 1.787-2.193 1.89-.516l.022 1.885.011-3.209a1.094 1.094 0 0 0-.982-1.178m2.08 0a1.092 1.092 0 0 0-.982 1.176v2.473h.159v.7h.1v-.763H57.2v-1.785h.131l.243.689s.558.007.551 0c-.009.011.55 0 .55 0l.243-.689h.131v1.783h-.221v.763h.1v-.7h.159v-2.469a1.1 1.1 0 0 0-.949-1.176m2.047 0a1.094 1.094 0 0 0-.982 1.178l.011 3.209.022-1.885c.1-1.678 2.033-2.3 1.89.516.034 3.8.041-1.518.041-1.84a1.094 1.094 0 0 0-.982-1.178m-9.707 3.692c.411-.052.317.54.741.524.424.015.33-.576.741-.524v-.082h-1.478Zm12.632 2.262h-.6v-5.511c0-.136.091-.544.259-.4.152.2.278-.039.334-.178h-.693v-.289h-.189v.289h-.659c.041.138.156.329.3.185.2-.15.3.232.3.388v5.477h-.4v.206h-.337v.208h1.89v-.177h-.2Zm2.526-.151h-1.22v.082h1.224Zm-.627-1.119-.874.452h.517v-.02h-.351l.722-.315.722.315H65.4v.02h.519c-.007 0-.9-.469-.9-.452m.416 1.255h-.8v2.032h.8Zm-1.142 2.369c.411-.052.317.54.741.524.424.016.33-.576.741-.524v-.082h-1.488Zm-9.521-8.6c0 .009 3.357 0 3.36 0v-.041h-3.353s-.162-.114-.166-.119h-.431v.041h.418Zm6.72 0 .162-.117h.422v-.041h-.431s-.164.115-.166.119h-3.354v.041s3.358.005 3.36 0m-10.254.352-.9.456h.519c.031-.042-.321-.011-.352-.02l.722-.316.722.316h-.352c-.034.045.516.009.519.02s-.873-.453-.881-.456m6.344 3.587h1.1v-1.058h-1.1Zm-11.609.041c.411-.052.317.54.741.524.424.015.329-.576.741-.524v-.082h-1.479Zm8.523 2.222h-.4V60.6c0-.159.1-.535.3-.388a.145.145 0 0 0 .247-.054l.055-.13h-.658v-.289h-.189v.289h-.7l.08.159a.141.141 0 0 0 .254.018c.167-.147.263.274.259.4v5.509h-.6v.2h-.2v.177h1.89v-.208h-.334Zm-7.774-5.85-.9.456h.519c.031-.042-.321-.011-.352-.02l.722-.316.722.316h-.352c-.034.045.517.009.519.02s-.873-.453-.881-.456m57.311 17.439c.112-.283-.039-1.145-.423-.868-.082.065-.167.154-.262.152-.06 0 0-.382-.033-.815-.053-.784-.281-1.777-.84-1.674-.566.194-.737 1.046-.924 1.545-.087.256-.179.848-.389.511-.243-.369-.538-.038-.614.336-.177.507-.076 1.526-.191 1.922-.053.076-.12.005-.215-.049a.313.313 0 0 0-.39.052c-.347.275-.238.972-.2 1.137s.279.395.26.509c-.073.1-.435-.207-.577-.032a1.071 1.071 0 0 0-.092.911c.065.252.4.538.373.653s-.114.066-.218.146-.155.512-.207.675a2.432 2.432 0 0 1-.275.434c-.058.078-.166.7.138.607a5.476 5.476 0 0 0 .765-1.022 13.962 13.962 0 0 0 2.058-4.488 15.918 15.918 0 0 1-2.586 5.637 5.831 5.831 0 0 0 2.161-1.7c.037-.3-.281 0-.246-.2.439-.288 1.3-.448 1.721-.931.272-.207.676-1.035.167-1.1-.15-.011-.322.005-.383-.081 0-.171 1.394-1.635 1.42-2.267M102.9 25.643c-.165.169.033.346-.01.542-.013.063-.257-.01-.553 0-1.461.019-1.806 1.2-.471 1.879.218.119.5.25.264.441a.393.393 0 0 0 .1.689c.444.225 1.143.079 1.219.195.049.13-.123.243-.147.369-.074.382.446.5.688.382.115-.043.319-.316.388-.289.041.092-.243.532-.154.666.091.236.391.18.567.1s.432-.443.5-.416.018.124.046.238.292.161.385.214.178.251.219.283c.2.161.5.01.4-.262-.272-.452-.644-.949-.976-1.4a5.544 5.544 0 0 0-1.97-1.44c.018.009.07.016.105.028a6.074 6.074 0 0 1 2.744 2.311l.251.347a1.679 1.679 0 0 0-.072-.738 4.737 4.737 0 0 0-.5-1.5c-.19-.033-.061.291-.187.257a8.619 8.619 0 0 0-.218-1.772.624.624 0 0 0-.39-.414c-.35-.086-.294.508-.436.632-.035.032-.107-.1-.207-.288-.286-.545-.918-1.726-1.586-1.059m-1.787 46.921c.055-.894.072-7.177.058-8.222 0-1.714-.6-3.015-1.351-2.905s-1.351 1.5-1.351 3.111v6.336a7.619 7.619 0 0 1 .075 1.389l2.569.292M47.108 61.485h-.8v2.032h.8ZM94.3 71.79c.043-.754.056-6.049.045-6.929-.055-3.539-2.065-3.007-2.083.158v5.37a7.107 7.107 0 0 1 .058 1.177l1.98.225m-2.8-.32c.04-.7.052-5.585.042-6.4-.051-3.268-1.916-2.774-1.933.147v4.956a6.48 6.48 0 0 1 .054 1.086l1.837.208m5.929.673c.045-.818.059-6.566.047-7.521-.057-3.84-2.181-3.274-2.2.167v5.838a7.912 7.912 0 0 1 .061 1.279l2.091.237m3.957-13.69-1.664.322v-1.4l1.664-.406v-.051l-1.664.406v-.149l1.64-.41v-.1l-4.212 1.051v-.558H96.4v.744l-.16.04v-.784h-.746v.97l-.476.119v-1.367h.3V56.8a.992.992 0 1 1 1.983 0v.081h.354v-.164h-.214a1.241 1.241 0 0 0-.293-.73h1.2l-2.042-1.448-2.042 1.448h1.2a1.243 1.243 0 0 0-.293.73h-.159v-.481h-.111v2.039l-4.195 1.047h-.548v.137L90 59.5v-.177h-.746v.363l-.273.068h-.01l-.194.049v-2.925h.3V56.8a.992.992 0 1 1 1.983 0v.081h.354v-.164H91.2a1.243 1.243 0 0 0-.293-.73h1.2l-2.042-1.448-2.042 1.448h1.2a1.243 1.243 0 0 0-.293.73h-.159v-.481h-.111v3.595l-.968.241V61.1l-.928.18V70.933h.055v-9.458l14.549-2.818Zm-12.741 2.471-.831.161v-.8l.831-.2Zm0-.9-.831.2v-.077l.831-.208Zm.331.835-.256.05v-.986l.256-.064Zm1.167-.226-1.017.2v-.87l1.017-.248Zm0-.975-1.017.248v-.085l1.017-.255Zm.526.873-.451.088v-1.07l.451-.112Zm1.218-.236-1.068.207v-.956l1.068-.26Zm0-1.062-1.068.26v-.1l1.068-.267Zm.671.932-.6.115v-1.167l.6-.149Zm1.306-.253-1.156.224v-1.05l1.156-.282Zm0-1.161-1.156.282v-.106l1.156-.289Zm.641 1.037-.574.111v-1.278l.574-.143Zm1.615-.312-1.384.268V58.59l1.384-.327Zm0-1.262-1.384.327v-.12l1.384-.346Zm.783 1.11-.693.134v-1.407l.693-.174ZM98.539 59l-1.4.271v-1.26l1.4-.351Zm0-1.4-1.4.35v-.143l1.4-.349Zm.879 1.225-.789.153v-1.534l.789-.2Zm10.969-.6c.35-.577.841-1.367.613-2.045-.18-.451-.534.168-.711.135a12.064 12.064 0 0 1 .227-1.551c.047-.539.136-1.49-.557-1.576-.222-.015-.2.347-.356.483-.05.044-.17-.276-.381-.564-.381-.527-.993-1.1-1.428-.6s-.109 1.777-.044 2.2c.067.534-.25.151-.489.419-.329.341.1 1.238.331 1.582.2.37.487.592.083.7a.509.509 0 0 0-.307.348.869.869 0 0 0 .363.918c.11.078.413.04.451.131.018.046-.09.092-.209.158-.516.2-.25.76.069.942.171.114.575.044.609.138s-.061.131-.109.264.115.454.149.6a2.765 2.765 0 0 1-.021.49c0 .15.214.558.4.289a17.412 17.412 0 0 0 .11-4.19 8.006 8.006 0 0 0-.325-1.754 13.958 13.958 0 0 1 .523 4.627c-.013.412-.028.83-.056 1.222a7.843 7.843 0 0 0 .97-2.749c-.11-.233-.228.212-.294.048-.013-.114.284-.481.391-.664m-1.521-25.673a3.8 3.8 0 0 1 .552 1.288c-.083.165-.145-.391-.259-.054a13.215 13.215 0 0 0 .251 2.766 37.721 37.721 0 0 0 .863-4.73 13.835 13.835 0 0 1-.235 2.381c-.14.791-.319 1.666-.46 2.415.014.1-.028.233.159.251.333-.127.244-.438.374-.737.063-.122.281-.381.272-.532-.166-.572.158-.181.52-.237a.618.618 0 0 0 .449-.575c0-.3-.388-.535-.339-.621s.306.044.416 0a.923.923 0 0 0 .437-1.1c-.049-.286-.316-.436-.391-.66-.024-.19.115-.4.267-.776.181-.287.094-.859.473-1a1.213 1.213 0 0 0 .007-.226c0-.216-.178-.463-.344-.416-.114.054-.212-.093-.2-.469.007-.9.2-2.179-.337-3-.481-.568-.913.3-1.182.975-.147.375-.22.772-.269.727-.151-.135-.176-.547-.368-.48-.247.086-.363.344-.4.678-.143.593.367 2.755.268 2.887-.081.014-.2-.148-.313-.249s-.232-.139-.316.109a2.358 2.358 0 0 0 .107 1.385m2.711 8.227c-.355.9.4 2.08.536 2.9-.091.142-.113-.322-.256-.121a16.237 16.237 0 0 0 .049 2.039c.015.48.05.816.117.848.572-1.909.892-3.94 1.545-5.823.078-.208-.054.157-.067.212-.518 1.853-.832 3.872-1.3 5.709.012.1-.033.238.159.287.356-.074.269-.413.414-.7.074-.12.309-.352.306-.507-.144-.625.177-.164.551-.156a.55.55 0 0 0 .492-.526c.005-.314-.4-.631-.351-.713s.322.1.44.067a.789.789 0 0 0 .514-.892.825.825 0 0 0-.225-.548c-.347-.261-.075-.407.178-.8.459-.5.856-1.995.173-2.108-.127.016-.214-.111-.17-.439.108-.524.309-2.373-.134-2.931-.473-.678-.972.12-1.29.762-.178.359-.279.737-.327.686-.137-.119-.123-.565-.353-.559-.8.274-.44 1.724-.423 2.432a4.844 4.844 0 0 1 .068 1.074c-.168.011-.442-.664-.642-.2m-.5 8.94a7.057 7.057 0 0 0-.026-2.717c-.171-.124-.133.3-.243.2a13 13 0 0 0 .275-2.069.926.926 0 0 0-.248-.646c-.3-.265-.415.421-.582.491-.217-.519-.212-1.733-.647-2.218a.461.461 0 0 0-.627-.133c-.2.116-.067.4-.167.58-.032.062-.232-.134-.509-.256-1.169-.572-1.91.224-1.258 1.363a6.827 6.827 0 0 0 .457.751c.121.194.068.315-.065.357s-.463.368-.1.849c.231.38.89.574 1.089.822 0 .209-.322.3-.288.691.008.457.492.519.614.518s.376-.2.439-.149-.321.383-.285.617c.032.276.331.34.519.332.329-.034.723-.536.568.037 0 .132.241.3.316.391a2.15 2.15 0 0 1 .14.4c.1.181.383.277.441.005a8.352 8.352 0 0 0-.566-1.884 9.715 9.715 0 0 0-1.433-2.663 3.506 3.506 0 0 0-.086-.091c.015.018.06.053.089.084a12.087 12.087 0 0 1 2.185 4.336m-2.751 16.855c.279-.683.879-1.821.117-2.328-.2-.109-.279.255-.46.323-.058.022-.088-.344-.213-.716-.222-.679-.659-1.485-1.186-1.2-.482.336-.485 1.178-.561 1.711-.031.277 0 .84-.284.628-.32-.182-.536.056-.556.57-.047.744.311 1.607.242 1.789s-.333-.146-.607.249a1.079 1.079 0 0 0 .072 1.108c.079.129.372.236.38.343s-.454-.026-.579.2a.893.893 0 0 0 .134.834c.229.32.8.3.346.635-.083.109-.027.5-.039.665a3.153 3.153 0 0 1-.159.487.688.688 0 0 0 .071.449c.152.153.232-.006.289-.07a16.749 16.749 0 0 0 1.405-5.942 6.7 6.7 0 0 1-.013 1.051 20.223 20.223 0 0 1-1.2 4.982c.357-.118.691-.751.976-1.1.151-.222 1.063-1.447.563-1.27-.066.038-.13.085-.137-.011.358-.427 1.159-.889 1.467-1.468a1.371 1.371 0 0 0 .227-.8c-.046-.529-.545-.062-.7-.173-.054-.111.311-.681.4-.919m-.458-32.006c-.3-.358-.531-1.527-1.1-1.865a.484.484 0 0 0-.661.1c-.179.179.017.408-.043.629-.02.07-.261-.038-.57-.054-.558-.033-1.319.1-1.407.816-.065.624.535 1.126 1.017 1.385.106.071.131.138.07.223-.256.182-.407.626.432.88-.523.069-.626.611-.395.751a.335.335 0 0 0 .252.053c.273 0 .9-.173 1.061-.066.02.074-.172.216-.193.327-.054.264.074.616.359.656a.767.767 0 0 0 .368-.024c.123-.041.345-.334.416-.3s-.258.508-.18.74c.09.273.408.235.594.162s.464-.472.536-.436.016.145.043.278.3.216.4.287.176.314.218.355a.3.3 0 0 0 .317.081.273.273 0 0 0 .128-.229 9.626 9.626 0 0 0-1.411-2.375c-.246-.306-1.431-1.825-1.438-1.83s.839.983.949 1.116c.3.362.672.767.943 1.151.357.509.809 1.119 1.106 1.653a2.236 2.236 0 0 0-.054-.88 14.381 14.381 0 0 0-.382-1.644c-.057-.148-.077-.226-.182-.167-.074.069-.026.3-.127.263a7.962 7.962 0 0 0-.076-1.3 4.72 4.72 0 0 0-.159-.978c-.1-.355-.525-.649-.655-.181-.061.167-.1.362-.174.422m-2.781-13.05c.1.226.421.8.377.9-.133.1-.555-.351-.58.16-.051.895.917 1.609 1.282 2.271-.035.173-.182-.228-.243.023a13.258 13.258 0 0 0 .886 2.514c.03-1.888-.332-4.4-.349-5.991.059 1.627.418 3.265.453 4.9a7.884 7.884 0 0 0 .1 1.176s.063.124.17.063c.265-.231.118-.481.16-.811.029-.14.164-.459.123-.586s-.121-.159-.094-.254.366-.04.509-.154c.258-.164.478-.774.026-.959-.433-.213 0-.187.19-.3a1.056 1.056 0 0 0 .222-.334 1.025 1.025 0 0 0-.427-1.217c-.106-.042-.18-.031-.21-.139a9.94 9.94 0 0 0 .216-1.831c-.065-.516-.247-.937-.6-.815-.1.083-.209.016-.274-.3a11.375 11.375 0 0 0-.284-1.218c-.418-1.5-1.354-1.961-1.516.117-.04.4-.009.771-.063.755-.166-.054-.29-.416-.445-.281-.522.437.053 1.639.374 2.316M47.319 65.965h-1.224v.082h1.224Zm-1.353 2.506c.411-.052.317.54.741.524.424.016.329-.576.741-.524v-.082h-1.482Zm-1.509-8.244-.9.456h.519c.031-.042-.32-.011-.351-.02l.722-.316.722.316h-.349c-.034.045.516.009.519.02s-.873-.453-.881-.456m2.862 1.122h-1.225v.082h1.224Zm-3.611 2.506c.411-.052.317.54.74.524.424.016.33-.576.741-.524v-.082h-1.481Zm3.006.988-.9.456h.519c.031-.042-.321-.011-.352-.02l.722-.315.722.315h-.352c-.034.045.517.009.519.02s-.873-.453-.881-.456m.393 1.259h-.8v2.032h.8Zm-2.258 0h-.8v2.032h.8Zm.211-.136h-1.221v.082h1.224Zm-1.353 2.506c.411-.052.317.54.74.524.424.016.33-.576.741-.524v-.082h-1.477Zm44.527 25.593a1.449 1.449 0 0 0 .5-1.686c-.1-.261-.261-.013-.417-.106a9.347 9.347 0 0 0 .028-2.062c-.368-1.769-1.071-.3-1.417.506-.111.212-.194.152-.232-.036-.527-1.283-.9 1.615-1.031 1.791-.089.074-.14-.235-.315-.315a7.187 7.187 0 0 0-1.184.282 1.044 1.044 0 0 0-.463 1.246c.11.236.759.648.022.49-.73-.174-.847.651-.6 1.065.066.188.53.393.548.566-.022.124-.137.092-.261.2s-.126.563-.157.722c-.079.316-.279.435-.247.723.052.508.372.4.507.012a12.356 12.356 0 0 1 1.456-2.207l.38-.076a7.822 7.822 0 0 0 1.562-2.48c-.023.066-.055.181-.088.263a8.909 8.909 0 0 1-1.473 2.417l-.349.07a12.193 12.193 0 0 0-1.417 2.383 5.817 5.817 0 0 0 1.137-.786c.221-.123.39-.311.63-.34.355-.123.708-.3.435-.484-.06-.026-.122-.039-.09-.131.175-.088.64.111.9.091a1 1 0 0 0 1.125-.617.4.4 0 0 0-.131-.483c-.118-.095-.263-.159-.3-.279s.5-.331.944-.741m-43.776-29.22-.9.456h.519c.031-.042-.32-.011-.351-.02l.722-.315.722.315h-.35c-.034.045.516.009.519.02s-.873-.452-.881-.456m.393-3.358h-.8v2.032h.8Zm.211-.136h-1.225v.082h1.224Zm6.773 4.616H50.61v.082h1.224Zm-21.881-7.638h.44l.283.094.015-.062-.287-.1h-.451Zm0-.549h.439l.283.112.018-.06-.287-.114h-.452Zm0-.549h.438l.282.126.02-.06-.287-.128h-.453Zm0 2.744h.439l.283.1.016-.061-.287-.1h-.451Zm0-3.292h.438l.282.144.022-.058-.287-.147h-.455Zm0 2.744h.439l.283.1.017-.061-.287-.106h-.452Zm0-.549h.439l.283.109.018-.061-.287-.111h-.452Zm0-2.744h.438l.282.13.021-.06-.287-.133h-.454Zm.742-3.2-.287-.154h-.455v.064h.437l.282.152Zm-.742.455h.438l.282.145.022-.058-.287-.148h-.455Zm0 .549h.438l.282.139.022-.059-.287-.142h-.455Zm0 1.1h.438l.282.148.023-.058-.287-.151h-.455Zm0-.548h.437l.282.153.024-.057-.287-.157h-.455Zm0 1.1h.438l.282.142.022-.058-.287-.145h-.455Zm0 4.939h.437l.287.082.013-.062-.294-.083h-.444Zm0 9.329a7.289 7.289 0 0 0 .732-.022v-.063c-.169.021-.556.024-.729.021v.064m.731-1.105v-.064c-.169.008-.557.009-.73.008v.064c.174 0 .56 0 .731-.008m-.735 1.649a5.1 5.1 0 0 0 .733-.031l-.005-.063a5.079 5.079 0 0 1-.728.03v.064m0-4.39h.446l.287.017v-.064l-.288-.017h-.444Zm0-1.1h.441l.287.029v-.064a5.485 5.485 0 0 0-.733-.029v.064m0 4.391c.175 0 .561 0 .732-.015v-.064c-.169.015-.557.017-.729.015v.063m0-3.842h.448l.287.023v-.064L30.4 65.4h-.444Zm0-3.842a2.227 2.227 0 0 1 .725.064l.011-.063-.292-.065h-.444Zm0 .549a1.786 1.786 0 0 1 .724.077l.013-.062-.293-.079h-.444Zm0 .549a2.085 2.085 0 0 1 .725.068l.011-.063-.293-.069h-.444Zm0-1.647h.44l.284.089.015-.062-.287-.09h-.451Zm0 3.293h.441l.287.034.006-.064a4.593 4.593 0 0 0-.733-.034v.064m0-1.1h.44l.287.046.008-.063a3.41 3.41 0 0 0-.734-.046Zm0 .549h.44l.287.042.007-.063a3.783 3.783 0 0 0-.734-.042v.064m36.591.039c.411-.052.317.54.741.524.424.016.329-.576.741-.524v-.082h-1.481Zm1.142-2.369h-.8v2.032h.8Zm-.416-1.25-.874.452h.518v-.02h-.352l.722-.316.722.316h-.35v.02h.519c-.007 0-.9-.468-.9-.452m.627 1.119h-1.228v.082H67.9Zm1.63 3.5-.874.452h.517v-.02h-.352l.723-.315.722.315h-.35v.02h.519c-.007 0-.9-.469-.9-.452m.627 1.119h-1.233v.082h1.224Zm-.211.136h-.8v2.032h.8Zm-4.94-5.874-.874.452h.517v-.02h-.351l.722-.316.722.316H65.4c-.046.045.518.009.517.02s-.9-.468-.9-.452m-.726 3.624c.411-.052.317.54.741.524.424.016.33-.576.741-.524v-.082h-1.486Zm2.258 4.616c.411-.052.317.54.741.524.424.016.329-.576.741-.524v-.082h-1.486Zm.726-3.624-.875.454h.518v-.02h-.352l.722-.315.722.315h-.35c-.045.045.518.009.517.02s-.9-.469-.9-.452m.627 1.119h-1.23v.082H67.9Zm-.211.136h-.8v2.032h.8Zm1.107 2.368c.411-.052.317.54.741.524.424.016.329-.576.741-.524v-.082H68.8Zm1.353-7.122h-1.222v.082h1.224Zm2.047.136h-.8v2.032h.8Zm-.416 3.361-.874.452h.518v-.02h-.352l.722-.315.722.315h-.35v.02h.519c-.007 0-.9-.469-.9-.452m.627-3.5h-1.227v.082h1.224Zm-.627-1.119-.874.452h.518v-.02h-.352l.722-.316.722.316h-.35v.02h.519c-.007 0-.9-.468-.9-.452m-6.357 1.255h-.8v2.032h.8Zm18.741 9.269a17.363 17.363 0 0 0 2.127.2v-.064h-.444l-.7-.083V64.22l-.984.125v6.345l-.46-.054V64.4l-.854.109v6.021l-.46-.054v-5.905l-.9.115v5.687l-.8-.094v-5.492l-.953.121v5.257l-.464-.055v-5.142l-.84.107v4.936l-.465-.055v-4.822l-.747.095v4.639l-.465-.055v-4.525l-.729.093v4.345l-.465-.055V65.44l-.815.1v4.031l-.465-.055V65.6l-.492.062v3.8l-.558-.066-.05-9.794a.348.348 0 0 1 .159-.316c3.006-1.639 9.529-5.239 12.5-6.844h14.662l.984-1.2-15.63-.005-5.361 3.225-7.447 4.48s-29.868.01-29.873 0l-12.808-7.701-15.63.005.984 1.2H30.4c2.966 1.6 9.488 5.2 12.5 6.844a.349.349 0 0 1 .159.316L43.01 69.4l-.558.066v-3.8l-.492-.062v3.916l-.465.055v-4.031l-.814-.1v4.232l-.465.055v-4.35l-.728-.093v4.525l-.465.055v-4.639l-.747-.095v4.822l-.465.055v-4.936l-.84-.107v5.143l-.465.055v-5.257l-.953-.121v5.491l-.8.094v-5.687l-.9-.115v5.909l-.46.054v-6.021l-.854-.109v6.232l-.46.054v-6.345l-.979-.125v6.586l-.7.079h-.444v.064h.444c.632-.061 11.611-1.388 12.613-1.5h30.226Zm-31.442-2.374h-.3v1h-9.289l.046-9.416a.308.308 0 0 1 .28-.322h9.177l.087.662Zm10.71 0h-.191v1h-2.166v-3.382a.732.732 0 0 0-1.463 0v2.837l.162.156v.393h-1.1v-.393l.145-.158v-2.835a.732.732 0 0 0-1.463 0v2.839l.16.154v.393h-1.1v-.393l.146-.159v-2.834a.732.732 0 0 0-1.463 0v3.386H53v-1h-.2V60.3l-.086-.656h10.818l-.086.656Zm.365 1v-1h-.3v-8.072l.087-.662h9.177a.308.308 0 0 1 .28.322l.046 9.416Zm7.249-5.526c.411-.052.317.54.741.524.424.016.329-.576.74-.524v-.082H71.06Zm-2.258 0c.411-.052.317.54.741.524.424.015.329-.576.741-.524v-.082H68.8Zm1.142-2.369h-.8v2.032h.8ZM86.3 66.5a6.8 6.8 0 0 0-.733.023v.064a6.729 6.729 0 0 1 .729-.023V66.5m-13.884-.53h-1.223v.082h1.224Zm-1.352 2.501c.411-.052.317.54.741.524.424.016.329-.576.74-.524v-.082H71.06ZM72.2 66.1h-.8v2.032h.8Zm-31.464-3.213.773.212v-2.7l-.773-.337Zm-2.7-12.594c.1 0 .1.03.092-.084h-.9v.084h.093v.457h.294v-.457h.123v.457h.294Zm-.295 1.007h.294v-.457h-.294Zm2.88 0h.294v-.457h-.294Zm-3.3 0h.294v-.457h-.294Zm2.88 0h.299v-.457h-.3Zm35.842-1.011c.1-.005.1.031.093-.084h-.9v.084h.093v.457h.294v-.457h.123v.457h.294Zm-.291 1.011h.294v-.457h-.294Zm-54.924-5.477h-.746v2h.746Zm52.5 6.807a8.516 8.516 0 0 0 .043-1.606c0-.583-.2-.316-.2.021 0 0 .16-.146.16 1.584m-32.237-6.364h-.534v.75h.534Zm-.179 4.028c.1-.005.1.031.093-.084h-.9v.084h.092v.457h.3v-.457h.123v.457h.294Zm35.5 4.363.132-.364H75.38l.132.364Zm-38.675-7.64h.534v-.75h-.534Zm38.33 6.667c-.33-.06-.7.162-.69.452h.179a.642.642 0 0 1 .511-.452M38 45.323l-.787.709.787-.573.559.408h-1.104l-1.291 1.646-.612.353v.577c.011.012 6.824-.024 6.822.012l2.755 3.08-2.8-2.88-6.777-.128v5.266l-5.214-3.043h-2.852l.007-4.781.244-.292v-.259l.146-.393h-3.45l.139.407h2.785v5.318h-6.014l.007-4.781.244-.292v-.259l.145-.393h-3.448l.138.407h2.785v5.318H15.04l-.285.329 15.643.005c3.008 1.8 9.751 5.946 12.811 7.8h29.833c3.044-1.859 9.783-5.963 12.78-7.793.024-.026 15.643-.005 15.675-.015l-.286-.329h-6.174v-5.314h2.785l.139-.407H94.51l.146.393v.259l.244.292.007 4.781h-6.014v-5.318h2.785l.139-.407h-3.45l.145.393v.259l.244.292.007 4.781h-2.851L80.7 53.794v-5.266l-6.777.128-2.8 2.88 2.755-3.08c0-.036 6.812 0 6.822-.012v-.577l-.612-.353-1.288-1.647h-1.114l.559-.408.787.573-.787-.709-.6.543h-.207l.927-.815-1.938-3.574-2.546 5.957-2.083 3-1.248.25-7.764.017c-.435 0-.424.658-.5.727-.316.257-.477-.089-.753-.118h-.894l.237.973a.518.518 0 0 0 .625.4c.06-.2.117-.637.393-.624h.49l-.011.9 9.468.023-.317-1.113 2.441-2.788h6.508l.173-.13.005 3-1.392.969h-5.516l-1.012.963H59.06a.393.393 0 0 0 .087-.263l-.268.012h-1.507l-.268-.012a.391.391 0 0 0 .087.263H43.519l-1.012-.963h-5.514l-1.393-.975.005-3 .173.13h6.508l2.441 2.788-.317 1.113 9.468-.023-.01-.9c.249.021.7-.1.776.246l.107.377a.518.518 0 0 0 .625-.4l.237-.973h-.893a.407.407 0 0 0-.264.118.384.384 0 0 1-.489 0c-.078-.069-.066-.727-.5-.727l-7.767-.013-1.248-.25-2.083-3-2.546-5.957-1.938 3.574.927.815h-.207Zm39.757 1.233v-.292c0-.359.487-.2.768-.232.24 0 .192.362.194.524l.31.728c.062.192-.109.2-.24.187-.207.026-.336.218-.582.193-.275.028-.411-.219-.66-.193a.128.128 0 0 1-.093-.187Zm-1.64.915a.471.471 0 0 0-.328.066.706.706 0 0 1-.8 0c-.126-.129-.425.029-.352-.253l.3-.728v-.292c0-.359.486-.2.768-.232a.216.216 0 0 1 .194.232v.292l.31.728a.128.128 0 0 1-.093.188m-1.258-1.6.56-.408.56.408Zm.529-.815.807.815h-.173l-.6-.543-.6.543h-.235ZM61.7 51.906c-.007-.379.692-.379.684 0H61.7m14.7 3.078v-.11h-.951v.791l-1.057.757v-1.83c0-.407-.29-.445-.29.238 0 .432.045 2.147.045 2.147.243-.185.691-.523.926-.692v.592l-2 1.368h-2.278l.032-2.624h1.318l.061-.177h-1.512l.063.171v2.63h-2.186l.032-2.624h1.318l.061-.177h-1.507l.063.171v2.63h-2.186l.032-2.624H67.7l.061-.177h-1.506l.064.171v2.63h-2.187l.032-2.624h1.318l.061-.177h-1.508l.063.171v2.63h-1.292V58.1h-1.2v.152h-1.85l.032-2.624h1.318l.061-.177h-1.508l.064.171v2.63h-3.195v-2.63l.063-.171h-1.507l.061.177h1.318l.032 2.624h-1.854V58.1h-1.2v.152h-1.289v-2.63l.063-.171h-1.508l.061.177h1.318l.032 2.624h-2.186v-2.63l.068-.175h-1.512l.061.177h1.318l.032 2.624h-2.187v-2.63l.064-.171h-1.508l.061.177h1.318l.032 2.624h-2.186v-2.63l.064-.171h-1.508l.061.177h1.318l.032 2.624h-2.279l-2-1.368v-.592c.216.143.736.552.926.692 0 0 .045-1.715.045-2.147 0-.683-.29-.646-.29-.238v1.83l-1.057-.757v-.791h-.951v.11l-2.041-1.461h4.648l.932.826h9.864l.1.145h.04l-.044-.145h1.426l-.044.145h.04l.1-.145h6.513l.1.145h.04l-.043-.145H62.9l-.044.145h.04l.1-.145s9.868.008 9.868 0l.928-.822h4.648ZM53.307 54.2h1.514l-.021.07-1.477-.016Zm8.122 0h1.514l-.016.054-1.476.016Zm-3.038-.336a4.16 4.16 0 0 1-.532 0h.532m-15.931-.785 1.012.963h29.307l1.012-.963h5.265l-.276.2h-5.009l-.993.872-9.725.106.1-.151H61.22l.111.17-3.206.035-3.206-.035.111-.17H53.1l.1.151-9.725-.106-.993-.872h-5.011l-.276-.2Zm11.752-1.465a.32.32 0 0 1 .342.292h-.684a.32.32 0 0 1 .342-.292m-13.354-6.562.807.815h-.236l-.6-.543-.6.543h-.173Zm.528.815h-1.119l.56-.408Zm-1.041.689v-.292c0-.359.488-.2.768-.232.239 0 .192.362.194.524l.3.728c.053.133-.058.211-.171.187-.207.026-.336.218-.582.193-.247.025-.375-.167-.582-.193-.13.01-.3.005-.24-.187l.31-.728m-1.646.915c-.249-.026-.385.221-.66.192-.247.025-.375-.166-.582-.193-.13.01-.3.005-.24-.187l.31-.728v-.292c0-.359.487-.2.768-.232a.215.215 0 0 1 .194.232v.292l.3.728a.128.128 0 0 1-.093.188m4.849 4.057a8.512 8.512 0 0 0 .043 1.605c0-1.73.16-1.584.16-1.584 0-.337-.2-.6-.2-.021m-.674-.5a8.549 8.549 0 0 0 .043 1.606c0-1.73.16-1.584.16-1.584 0-.337-.2-.6-.2-.021m54.2-5.2h-.746v2h.746ZM75.335 51.3h.294v-.457h-.294Zm20.993-1.318h.746v-2h-.746Zm-.16-4.163h-.746v2h.746Zm-76.085 4.167h.746v-2h-.746Zm-.906 0h.746v-2h-.746Zm.746-4.163h-.746v2h.746Zm75.5 4.163h.746v-2h-.746ZM78.633 51.3h.294v-.457h-.294Zm-.417 0h.294v-.457h-.294Zm11.063-1.318h.746v-2h-.746Zm-10.352.307c.1-.005.1.031.093-.084h-.9v.084h.093v.457h.294v-.457h.123v.457h.294Zm11.1-4.47h-.746v2h.746Zm.906 0h-.746v2h.746Zm-.746 4.163h.746v-2h-.746Zm-17.528 3.152a8.51 8.51 0 0 0 .043-1.605c0-.583-.2-.316-.2.021 0 0 .16-.146.16 1.584m-20.977 1.724c0 .379-.426.394-.426-.006 0-.355-.552.464-.552.464h1.508s-.53-.829-.53-.458m-2.22 0c0 .379-.426.394-.426-.006 0-.355-.552.464-.552.464H50s-.53-.829-.53-.458m5.268-.321h-1.349v.075h1.345Zm-1.054.732c.2 0 .214-.475.405-.475s.2.475.405.475c.182 0 .252-.592.252-.592h-1.37s.112.592.308.592m-.041 2.489h.778v-.048h-.778Zm2.614-1.734h-.8v1.723h.8Zm-4.376 0h-.8v1.723h.8Zm-4.439 0h-.8v1.723h.8Zm-4.805-1.337h.279a.263.263 0 0 1 .291-.294c-.433-.106-.57.04-.57.294m-2.343-1.012a.717.717 0 0 0-.108.009.643.643 0 0 1 .511.452h.179a.531.531 0 0 0-.581-.461m4.929 2.349h-.8v1.723h.8Zm10.844-1.165c0 .379-.426.394-.426-.006 0-.355-.552.464-.552.464h1.508s-.53-.829-.53-.458m-8.815 0c0 .379-.426.394-.426-.006 0-.355-.552.464-.552.464h1.508s-.53-.829-.53-.458m2.411 1.165h-.8v1.723h.8Zm-4.631-1.165c0 .379-.425.394-.425-.006 0-.355-.552.464-.552.464h1.508s-.53-.829-.53-.458m26.624-.006c0 .4-.426.385-.426.006s-.53.458-.53.458H72.2s-.552-.82-.552-.464m-2.836 2.894h.8v-1.723h-.8Zm-1.6-2.894c0 .4-.425.385-.425.006s-.53.458-.53.458h1.508s-.552-.82-.552-.464m2.22 0c0 .4-.426.385-.426.006s-.53.458-.53.458h1.508s-.552-.82-.552-.464m1.6 2.894h.8v-1.723h-.8Zm2.248-2.283s.239-.147.239 1.584h.064v-1.606c0-.584-.3-.316-.3.022m-15.156-.219 1.325-.089H56.8Zm8.468 2.5h.8v-1.721h-.8Zm6.455-3.354a.263.263 0 0 1 .291.294h.28c0-.254-.137-.4-.57-.294m-10.187.145h-1.348v.075h1.345Zm-2.247.315c0 .4-.426.385-.426.006s-.53.458-.53.458h1.508s-.552-.82-.552-.464M60 57.746h.8v-1.722H60Zm1.763-2.478c.209 0 .214-.475.4-.475s.21.475.405.475.308-.592.308-.592h-1.37s.07.592.252.592m2.613 2.478h.8v-1.722h-.8Zm-2.54.011h.778v-.047h-.778Zm3.156-2.905c0 .4-.426.385-.426.006s-.53.458-.53.458h1.508s-.552-.82-.552-.464m-22.325.59v1.605h.064c0-1.73.238-1.584.238-1.584 0-.337-.3-.605-.3-.022M3.467 44.209a.4.4 0 0 0 .354.194 9.582 9.582 0 0 1-.722-2.16c-.542-2.406.03-4.9.018-7.325.156 3.141-.555 6.476.8 9.445l-.04.036a.557.557 0 0 0 .364-.364 10.7 10.7 0 0 0-1.289-11.176c-1.393 2.692-2.282 7.6.515 11.35m2.61 4.1a8.007 8.007 0 0 1-2.115 3.529.344.344 0 0 0 .369 0 7.457 7.457 0 0 0 3.006-3.464 12.868 12.868 0 0 0 .567-6.138c-3.067 1.375-4.66 5.049-4.216 9.091a.682.682 0 0 0 .225.485 11.119 11.119 0 0 0 2-3.6c.48-1.371.691-2.936 1.274-4.267-.477 1.4-.651 2.952-1.116 4.367m13.207-35.15c2.86-.66 4.655-3.286 6.861-5-1.653 1.439-3.013 3.433-5 4.452-.313.341-2.523.662-1.531.86 4.357.26 7.188-4.216 8.019-6.411a7.071 7.071 0 0 0-4.956 1.326 12.226 12.226 0 0 0-3.337 4.288c-.121.135-.083.687-.06.489M3.335 60.979a.393.393 0 0 0 .418.045 7.714 7.714 0 0 1-1.2-1.877c-1.079-2.277-.935-4.986-1.432-7.412.8 3.062.624 6.642 2.73 9.209l-.04.056a.79.79 0 0 0 .319-.523c1.025-4.543-.283-8.822-3.6-10.752-.785 2.729-1.268 8.364 2.8 11.256m27 36.381a.354.354 0 0 0 .395-.131l-.041.018c-.675-2.848-2.924-4.563-4.637-6.741 1.9 2 4.155 3.778 4.71 6.672a.738.738 0 0 0 .09-.473c-.362-3.947-2.549-7.1-5.816-7.66.067 2.346 1.174 7.224 5.3 8.315m-7.62-5.325a9.21 9.21 0 0 0-5.773-.627 9.853 9.853 0 0 0 3.981 4.4 8.864 8.864 0 0 0 5.039.754c1.223-.326-1.366-.33-1.75-.631-2.18-.675-3.719-2.454-5.586-3.654 1.333.653 2.418 1.731 3.681 2.492a11.232 11.232 0 0 0 4.074 1.5.562.562 0 0 0-.034-.521 9.416 9.416 0 0 0-3.633-3.716m-6.53-5.288c-3.017-.545-4.511-3.534-6.394-5.614 2.051 1.906 3.523 4.781 6.442 5.5l-.009.062a.763.763 0 0 0 .049-.588 10.273 10.273 0 0 0-2.728-4.666 7.042 7.042 0 0 0-5.146-1.514A11.128 11.128 0 0 0 11.34 85.4a6.857 6.857 0 0 0 4.46 1.556.467.467 0 0 0 .385-.209m-7.35-11.291c-3.132-1.2-4.086-4.829-5.687-7.45 1.806 2.473 2.772 5.951 5.752 7.325l-.019.069a.957.957 0 0 0 .146-.662 12.39 12.39 0 0 0-2.06-5.766A6.938 6.938 0 0 0 1.9 66.4s.153 4.16 2.146 6.728A6.846 6.846 0 0 0 8.4 75.63a.473.473 0 0 0 .432-.175M5.876 37.466c2.275-1.554 2.99-4.433 4.355-6.68-1.205 2.341-1.908 5.318-4.3 6.765a.324.324 0 0 0 .342.059 7.009 7.009 0 0 0 3.355-2.7 12.092 12.092 0 0 0 1.544-5.582 6.944 6.944 0 0 0-3.912 2.879 11.345 11.345 0 0 0-1.5 4.823.643.643 0 0 0 .128.486Zm16.093-2.017h-1.94l-2.259 2.879-3.255 2.461h1.538l14.347.051 5.737 5.613h-.449v-.072h.264L30.4 41.186l-14.272-.018-1.29-.218 1.217.814 14.345.013 5.155 4.6v.364l.688-.1.542-.084-5.7-5.63-1.4-1.771-3.9-11.6-4.705 6.553 1.327 1.34h-.362L20.99 34.5l-1.376 1.24 1.376-1Zm4.013-1.425 1.412 1.425h-.411l-1.056-.949-1.055.951h-.3Zm.924 1.425h-1.958l.979-.713Zm-2.363 2.479.542-1.273c0-.287-.084-.915.339-.917h1c.423 0 .334.628.339.917l.531 1.273a.224.224 0 0 1-.163.328c-.436-.045-.675.387-1.155.338-.432.044-.656-.292-1.018-.338-.236.008-.519.031-.42-.328m-2.175 0c.088.245-.09.362-.3.328-.362.046-.587.382-1.018.338-.432.044-.656-.292-1.019-.338-.236.008-.519.031-.42-.328l.542-1.273c0-.288-.084-.915.339-.917h1c.423 0 .334.628.339.917l.531 1.273m-1.84-.469h.934v-1.313h-.934Zm5.866-1.312h-.923v1.312h.934Zm-18.83-5.434c-1.064-2.89.41-5.925 1-8.762-.386 2.865-1.779 5.827-.891 8.727l-.049.032a.722.722 0 0 0 .451-.331c2.439-3.457 2.82-7.578.693-10.332a13.289 13.289 0 0 0-2.562 5.858 7.589 7.589 0 0 0 1.022 4.623.358.358 0 0 0 .338.184m4.906 44.512a11.216 11.216 0 0 1 .1 4.624.567.567 0 0 0 .275-.35 12.4 12.4 0 0 0 .6-5.417 9.7 9.7 0 0 0-2.509-5.108c-1.144 2.606-1.724 7.39 1.188 10.75a.368.368 0 0 0 .4.15l-.044-.012a12.669 12.669 0 0 0-.175-4.562c-.3-1.492-.89-2.856-1.086-4.38.313 1.495.923 2.812 1.252 4.306m8.06-31.5c0 .872-.981.906-.981-.015 0-.82-1.273 1.071-1.273 1.071h3.472s-1.221-1.912-1.221-1.056M13.369 18.6c.109-2.9 2.154-5.191 3.551-7.581-.892 1.919-2.38 3.59-3.013 5.629-.261.635-.3 1.408-.494 1.974a.491.491 0 0 0 .436-.123 9.42 9.42 0 0 0 3.833-9.132 11.794 11.794 0 0 0-3.761 4.316 9.15 9.15 0 0 0-.74 4.616.351.351 0 0 0 .188.3M6.584 67.116a.405.405 0 0 0 .339-.219 10.522 10.522 0 0 0 1.54-5.08A13.126 13.126 0 0 0 6.8 55.6a10.538 10.538 0 0 0-1.943 5.683 12.713 12.713 0 0 0 1.293 5.5.537.537 0 0 0 .381.333c.08-.676.428-1.482.478-2.256.37-2.385-.307-4.81-.258-7.2.232 3.122 1.157 6.458-.166 9.457M95.8 87.867c.415-.579.805-1.316.363-1.964-.162-.23-.326.116-.5.073a4.771 4.771 0 0 1-.007-.872c-.215-2.972-1.325-2.2-1.881-.055-.092.27-.2.249-.271.077-.561-.87-.621 1.064-.65 1.4-.049.444.042 1.059-.275.671-.311-.315-.615.183-.607.547a2.663 2.663 0 0 0 .013.577c.027.191.235.495.212.614-.064.1-.391-.346-.529-.186-.2.17-.187.668-.142.956s.333.684.3.8-.111.042-.214.1-.18.512-.242.672c-.209.371-.435.415-.379.909.042.2.171.175.171.175a10.855 10.855 0 0 0 2.911-5.279c-.013.076-.033.213-.055.309a12.371 12.371 0 0 1-2.618 5.151c-.041.058.154.024.238 0a5.447 5.447 0 0 0 1.929-1.29c.05-.32-.27-.058-.226-.272.021-.108.483-.1.986-.257a1.491 1.491 0 0 0 1.117-1.1c.049-.3-.076-.385-.222-.436s-.318-.052-.376-.155c.11-.326.7-.762.963-1.175M86.3 65.946c-.175 0-.561 0-.732.017v.064c.169-.017.557-.02.729-.017v-.064M33 99.062a10.322 10.322 0 0 0-5.947.382 11 11 0 0 0 5.085 3.335 10.094 10.094 0 0 0 5.242-.147c1.13-.494-1.511-.078-1.912-.285-2.347-.25-4.337-1.611-6.51-2.394 1.5.373 2.853 1.171 4.311 1.655a13.213 13.213 0 0 0 4.46.693.505.505 0 0 0-.164-.467A10.684 10.684 0 0 0 33 99.062m70.689-13.992a2.3 2.3 0 0 0-1.056-.011c-.374.061-.684.22-.7.13-.052-.259.2-.571-.01-.793-.906-.77-1.65 1.125-2.041 1.691-.156.261-.265.428-.3.384-.157-.172-.012-.95-.469-.854-.92.344-.843 1.941-1.27 2.617-.166-.015.1-.346-.142-.383-.034-.005-.1.043-.179.128a11.355 11.355 0 0 0-1.523 1.877 24.065 24.065 0 0 0 3.445-1.377 15.287 15.287 0 0 1 1.642-.746 50.862 50.862 0 0 1-4.6 2.238c-.178.084-.367.094-.474.232a.282.282 0 0 0 .016.29.469.469 0 0 0 .367.2c.064 0 .278-.131.415-.115s.471.159.569.056c.306-.624.278.242.54.583.371.5.9.485.882-.25.01-.813.18-.049.361.218.558.617 1.25.131 1.19-.615-.014-.176-.052-.3.027-.378s.328-.013.65.022a1.666 1.666 0 0 0 1.312-.312 1.052 1.052 0 0 0 .323-.969c-.108-.285-.342-.413.02-.715a7.43 7.43 0 0 0 .9-.784c.64-.542 1.1-2.052.108-2.362m5.6-10.437c-.343.12-.616.331-.647.237-.1-.264.086-.634-.158-.837a.514.514 0 0 0-.768.039c-.462.336-.957 2.548-1.121 2.5-.225-.333-.27-1.336-.869-.624-.483.714-.246 1.995-.469 2.694-.164.01.033-.377-.213-.377-.152.048-.473.813-.633 1.089-.182.365-.6 1.067-.56 1.32a38.022 38.022 0 0 0 3.409-2.326 7.8 7.8 0 0 1 1.012-.641 18.278 18.278 0 0 0-1.843 1.415c-.761.639-1.642 1.267-2.425 1.816-.062.118-.134.158.025.394.387.336.467.015.761-.062.131-.01.484.076.553-.048s.031-.267.127-.266.319.582.52.77.569.415.76.15c.167-.19-.1-.83-.017-.945.1-.006.289.441.426.55s.716.465.966-.112c.234-.449-.105-.8-.027-1.094.352-.172 1.146.066 1.624-.373a.944.944 0 0 0 .172-1.324c-.222-.164-.095-.5.142-.714a5.715 5.715 0 0 0 .612-.836c.854-1.355.411-3.091-1.357-2.394m6.5-21.848c.584-1.187.586-4.349-1.306-2.432-.259.267-.435.591-.478.515-.134-.23-.054-.655-.28-.726-.292-.091-.485.081-.616.382-.3.5-.3 2.879-.436 2.908-.183-.074-.345-.877-.652-.522a1.234 1.234 0 0 0-.233.77c-.063.72.259 1.706.245 2.361-.126.092-.058-.376-.252-.253a10.281 10.281 0 0 0-.309 1.7c-.073.366-.185 1.165-.087 1.211 1.006-1.609 1.775-3.427 2.858-4.983a31.405 31.405 0 0 0-1.616 3.084c-.334.689-.739 1.437-1.076 2.086-.014.128-.081.214.11.365.382.115.376-.247.587-.463.1-.079.4-.183.423-.337-.049-.717.273-.011.623.139.2.07.542.094.631-.255.1-.208-.255-.739-.224-.877.074-.054.327.265.46.3.629.159.95-.66.605-1.258-.081-.139-.16-.222-.132-.334.256-.336.976-.555 1.211-1.124a.965.965 0 0 0-.13-1.271c-.325-.135-.057-.61.074-.978m-1.976 10.68c-.329.155-.586.4-.612.308-.08-.282.1-.665-.109-.829a.475.475 0 0 0-.719.118c-.53.572-.759 2.052-1.151 2.632-.167-.151-.135-.994-.534-.783-.8.586-.513 2.219-.77 3-.15.032.036-.384-.19-.353a12.954 12.954 0 0 0-.885 1.748 1.994 1.994 0 0 0-.265.828c1.428-1.054 2.664-2.428 4.109-3.454-1.15.9-2.665 2.616-4 3.707.023.035-.154.167.029.4.356.286.436-.069.705-.175.123-.028.451.009.518-.124s.03-.275.119-.286.292.543.473.7.525.338.7.043c.152-.255-.086-.923 0-.938s.258.4.383.489a.819.819 0 0 0 .406.142.489.489 0 0 0 .489-.378c.231-.61-.118-.887 0-1.074s.925-.011 1.512-.55a.977.977 0 0 0 .193-1.3c-.129-.112-.154-.308.034-.56a7.177 7.177 0 0 0 .72-1.037c.753-1.217.672-3.214-1.161-2.275m-27.185 37.063a3.157 3.157 0 0 0-1.131-.381c-.426-.077-.821-.049-.8-.132.043-.239.444-.417.3-.687a.711.711 0 0 0-.813-.332c-.6.008-2.357 1.329-2.514 1.216-.083-.23.353-.8-.154-.89-.907-.179-1.674 1.224-2.3 1.624-.085-.039-.024-.1.025-.165s.088-.141-.034-.2a1.868 1.868 0 0 0-.718.219l.141-.115c-.41.307-1.056.646-1.18 1.174 1.5-.6 3-.274 4.59-.309a7.3 7.3 0 0 1 .641.06 25.854 25.854 0 0 0-2.618.026 5.512 5.512 0 0 0-2.09.272c-.158.064-.347.1-.433.23-.1.239.383.357.509.325.064-.007.24-.118.373-.11s.5.119.566.061.034-.157.128-.133c.047.012.124.121.217.241a1.421 1.421 0 0 0 1.035.624c.125-.022-.115-.453-.037-.45a2.641 2.641 0 0 0 1.045.827 2.828 2.828 0 0 0 1.608.575c.489.036 1.043-.377.9-.82-.075-.165 0-.323.338-.387.88-.154 2.24-.467 2.682-1.388a.715.715 0 0 0-.275-.969M45.3 106.087a14.81 14.81 0 0 0 7.335.1.59.59 0 0 0-.281-.487 11.057 11.057 0 0 0-5.469-1.983 10.753 10.753 0 0 0-6.2 1.923 11.484 11.484 0 0 0 6.149 2.487 10.439 10.439 0 0 0 5.513-1.48.551.551 0 0 0 .283-.4 9.386 9.386 0 0 1-2.372.554c-2.545.306-4.962-.731-7.44-1.069a13.775 13.775 0 0 1 2.487.347m-1.88-3.46a12.453 12.453 0 0 0-2.9-3.08c-1.1-.815-2.3-1.3-3.343-2.219 1.692 1.166 3.622 1.8 4.991 3.431.366.2 1.6 2.619 1.237 1.33-1.362-3.724-4.285-6.211-7.585-5.912a12.348 12.348 0 0 0 3.158 5.115 6.725 6.725 0 0 0 4.1 1.562.353.353 0 0 0 .348-.228m10.426-1.475a6.438 6.438 0 0 0-4.408-.648 8.488 8.488 0 0 0 3.04 3.8 6.248 6.248 0 0 0 3.848.739.389.389 0 0 0 .32-.235l-.033.028c-1.422-2.019-3.837-2.489-5.889-3.566 2.141.876 4.6 1.375 5.936 3.487a.533.533 0 0 0-.041-.392 7.974 7.974 0 0 0-2.774-3.217m23.679.274c.3-.432-.236-.578-.309-.874-.013-.123.653-.207 1.269-.5a1.418 1.418 0 0 0 .989-1.566c-.031-.148-.108-.165-.2-.165-.515.039-.135-.253.023-.839.6-1.957.15-3.262-1.5-1.123-.179.185-.261.1-.259-.1-.024-.351-.251-.6-.631-.139-.361.352-.737 1.4-.994 1.674-.121.052-.1-.272-.287-.4a9.588 9.588 0 0 0-1.434-.017 1.039 1.039 0 0 0-.838 1.134.927.927 0 0 0 .189.32c.251.337.094.344-.283.178a.816.816 0 0 0-.627-.04.783.783 0 0 0-.324.958c.03.2.515.528.494.708-.056.118-.18.058-.349.132s-.282.529-.356.684-.345.374-.387.45c-.1.151-.154.58.108.616.1.021.142-.039.212-.068a13.143 13.143 0 0 1 2.2-1.9c.209-.2.348-.127.656-.119a8.266 8.266 0 0 0 2.4-2.089 8.694 8.694 0 0 1-2.452 2.3l-.42-.019a12.8 12.8 0 0 0-2.2 2.015c-.045.042.077.011.115.01.611-.146 1.351-.535 2-.682a1.574 1.574 0 0 0 .84-.147c.169-.25-.215-.192-.109-.374.088-.068.463.147.64.2.585.222 1.422.394 1.818-.213m-3.964 3.864a3.809 3.809 0 0 0-1.273-.53c-.484-.127-.937-.134-.91-.224a1.032 1.032 0 0 1 .283-.359c.443-.463-.391-.911-.806-.815-.686-.051-2.782 1.239-2.958 1.1-.077-.269.451-.857-.122-1-1.019-.287-1.987 1.181-2.743 1.571-.095-.051-.022-.11.039-.18.238-.395-.389-.2-.863-.055.379-.246-.145.062-.306.151-.317.226-.925.544-.931.912 1.767-.512 3.446 0 5.262.107.272.036.5.077.731.128-.97-.158-2.009-.163-3-.224a6.179 6.179 0 0 0-2.859.232c.047.011-.222.105.021.331.437.291.524.078.914.07.151.017.563.18.645.122s.049-.17.155-.135c.151.1.378.554.563.677.256.205 1.025.733.83.121-.035-.126-.075-.248-.026-.223a3.109 3.109 0 0 0 1.146 1.014c.45.41 2.017 1.271 2.764.47.383-.438-.243-.8.54-.893 1-.088 2.576-.282 3.161-1.273a.79.79 0 0 0-.254-1.1m-9.577-.84c.283-.34-.177-.539-.217-.8 0-.108.572-.1 1.117-.275a1.633 1.633 0 0 0 .712-.424c.171-.143.42-.885.063-.976-.439-.029-.108-.231.066-.725.6-1.542.348-2.85-1.229-1.167-.164.137-.229.056-.217-.116-.082-.972-.935.229-1.122.6-.164.274-.289.505-.356.523-.106.029-.074-.249-.225-.381l-.853-.166a.858.858 0 0 0-1.157.844c-.007.129.287.432.226.552-.156.039-.636-.384-.87-.247a.641.641 0 0 0-.33.789c.014.181.413.523.385.677-.055.1-.158.027-.306.07s-.271.424-.343.548c-.223.286-.54.357-.426.766.209.347.468-.08.675-.213a10.481 10.481 0 0 1 1.813-1.158l.39.076a6.826 6.826 0 0 0 2.014-1.324c.055-.053.123-.137.162-.18a5.745 5.745 0 0 1-1.559 1.307 9.84 9.84 0 0 1-.671.37l-.359-.07a9.734 9.734 0 0 0-2.011 1.481c.575.02 1.261-.292 1.865-.326.3.069.977.085.708-.216-.051-.043-.108-.078-.053-.143.541.139 1.491 1.012 2.109.3M11.248 24.2c2.593-.93 4.011-3.535 5.9-5.366-1.4 1.508-2.463 3.485-4.205 4.64-.264.353-2.315.911-1.344.966 4.092-.309 6.245-4.572 6.83-6.783a6.945 6.945 0 0 0-4.513 1.8 11.338 11.338 0 0 0-2.663 4.29.642.642 0 0 0 0 .5Zm18.706 20.24h.434l.259.233.034-.05-.274-.247h-.453Zm0-1.1h.434l.259.237.034-.05-.274-.251h-.453Zm0 .549h.434l.259.237.034-.05-.274-.251h-.453Zm0 1.1h.435l.281.206.029-.054-.294-.215h-.452Zm0 1.646h.435l.26.2.03-.053-.274-.207h-.452Zm0-1.1h.435l.28.207.03-.054-.294-.217h-.452Zm0 .549h.436l.26.181.029-.055-.274-.19h-.451Zm-4.633 3.9h.746v-2h-.747Zm5.361-7.555-.274-.251h-.453v.064h.434l.259.237Zm-.727 4.752h.435l.26.192.03-.054-.273-.2h-.452Zm-3.728 2.8h.746v-2h-.746Zm-.16-4.163h-.747v2h.746Zm.906 0h-.746v2h.746Zm2.982-3.029h.434l.259.237.034-.05-.274-.251h-.453Zm-3.292.936c0 .872-.981.906-.981-.015 0-.82-1.272 1.071-1.272 1.071h3.475s-1.222-1.912-1.222-1.056m5.167 6.446v-3.334l-.449-.354v3.394l.449.3m1.417.939v-3.16l-.407-.321v3.209l.407.27M33.17 46.3c0 .664-.241.49-.241-.218 0-.629-.313.565-.313.565l.855.7s-.3-1.7-.3-1.05m.2 5.618c.031-1.372-.072-2.767.062-4.121l.036-.266-.849-.691c-.024.5.352.539.72.893.031.021-.06 4.2.032 4.186m1.1-4.5c0 .631-.2.486-.2-.184 0-.6-.264.562-.264.562l.727.6s-.263-1.591-.259-.973m-2.732-2.331c0 .7-.266.508-.266-.239 0-.666-.346.586-.346.586l.944.775s-.332-1.81-.332-1.122m2.27 2.889c-.024.468.3.486.615.79l.026 3.966c.074-1.29-.015-2.17.005-3.558a3.285 3.285 0 0 0 .077-.611l-.723-.587m.193 3.773.359.237-.017-3-.349-.274c0 1.216 0 1.825.006 3.04m-4.254-2.92h.436l.281.19.028-.055-.294-.2h-.451Zm0-1.1h.436l.28.2.029-.054-.294-.21h-.451Zm0 1.647h.436l.281.185.027-.056-.293-.193h-.451Zm0-1.1h.436l.26.183.029-.055-.273-.193h-.451Zm2.015 2.751v-3.967l.066-.18a2.371 2.371 0 0 1 .04-.485l-.937-.762c-.023.537.374.571.794.971v4.4l.035.022m-2.174-12.154 5.354 5.77-.817-1.742V41.68l.183.089-.348-.769-.392.3.339-.052.106.267v1.758l-.557-.683v-1.11l-.166-.353h.207l.5-.481.633 1.256-.564-1.462h-.488l-.129.157-.562-1.454h-.489l-.028.034-.684-1.457.067-.063.633 1.256-.564-1.462h-.261l-3.111-6.625-2.571-3.271Zm3.234.47.63 1.25-.262.319-.252-.537.192.093-.348-.774-.12.093-.094-.2Zm-.3.633.205-.032.162.406c.033-.009 0 1.777.011 1.782l-.378-.519Zm-.98-1.7.05-.008.471 1.09v1.877l-.52-.639Zm-1.791 11.646h.436l.281.179.027-.056-.293-.187h-.451Zm0 .549h.436l.281.174.026-.056-.287-.178h-.457Zm65.115 44.812a2.853 2.853 0 0 0-1.03-.328c-.38-.062-.719-.024-.712-.1.012-.232.333-.411.176-.654-.458-.627-1.107-.184-1.622.152-.828.526-1.329 1.267-1.146.307.01-.175-.027-.332-.255-.371-.814-.141-1.3 1.2-1.8 1.59-.079-.035-.033-.091 0-.156s.059-.135-.055-.19c0-.1-.853.409-.488.113-.325.3-.849.663-.877 1.136 1.071-.555 2.162-.344 3.318-.412a8.849 8.849 0 0 1 1.193.037c-.839-.044-1.713.073-2.559.113a2.934 2.934 0 0 0-1.839.522s-.033.108.1.205a.612.612 0 0 0 .381.086c.055-.008.193-.118.31-.113s.447.1.5.042.01-.148.094-.129c.118.061.655.843 1.2.78.105-.025-.157-.425-.089-.423a2.761 2.761 0 0 0 1.011.75c.38.29 1.681.895 2.131.136.222-.388-.31-.644.263-.807a3.927 3.927 0 0 0 1.754-.766.913.913 0 0 0 .041-1.516M90 57.156h-.746v2H90Zm-10.673 7.025-.4-.481h-.343l-.4 1.025.444-.881.353.337Zm-1.659-5.927h-.324l-.374.969.42-.833.334.319h.318Zm-1.726 1.483.158-.077.107-.27.225.035-.26-.2Zm.856 4.885-.345-.42h-.3l-.345.895.388-.769.308.295Zm-.644.323.1-.249.208.033-.24-.186-.213.474Zm-.175-1.845c.087-.034.146.018.177.165.089.463.369.3.42-.1.032-.163.082-.246.177-.26v-.088l-.773.2Zm.773-3.582-.773.337v2.9l.773-.212Zm.465 3.267c.229-.094.162.55.387.485.2 0 .168-.665.387-.682v-.093l-.773.2Zm1.415-.121c.088.525.368.353.42-.1.024-.16.083-.265.144-.28s.026-.059.033-.108l-.773.2v.1c.091-.036.146.028.177.194m-1.287 2.084.107-.27.225.035-.26-.2-.231.513Zm1.244-.2.114-.285.238.037-.275-.214-.244.543Zm.086-6.386.225.035-.26-.2-.231.513.159-.077Zm.554.275-.773.337v3.305l.773-.212ZM78.042 64.4l-.374-.456h-.324l-.374.969.42-.833.334.319Zm.849-6.769h-.323l-.374.969.42-.833.334.319h.318Zm-1.7 1.506.159-.077.107-.27.225.035-.26-.2Zm-3.432 1.583.119-.058.081-.2.169.026-.2-.152Zm.025 2.939c.145-.061.109.468.246.414.127.012.1-.528.246-.54v-.076l-.492.128Zm.065 1.572.081-.2.169.026-.2-.152-.174.386Zm2.576-6.376H76.1l-.374.969.42-.833.334.319h.32Zm14.466-2c-.021-1.3-1.626-1.292-1.639.006 0-.006 1.65.011 1.639-.006m-16.768 3.202h-.244l-.282.729.316-.627.252.24h.235Zm15 10.514c.056.117.025-5.232.032-5.316 0-1.24-.336-2.2-.749-2.135s-.749 1.068-.748 2.249c.006 2.1-.022 3.569.045 5.672l1.42.161ZM74.276 60.6l-.492.214v2.55l.492-.134Zm1.238 2.54-.773.2c.007.05-.022.093.033.07.185-.032.141.481.354.419.185 0 .185-.551.354-.6.055 0 .027-.048.033-.09m-.615 1.977.094-.237.2.031-.228-.177-.2.451Zm.613-.307-.329-.4H74.9l-.328.851.369-.732.293.28Zm0-4.751-.773.337v2.7l.773-.212Zm-1.139 4.911-.282-.343h-.244l-.281.729.316-.627.251.24Zm.852-5.486h-.284l-.329.851.369-.732.293.28h.279Zm.007.5-.229-.177-.2.451.139-.067.094-.237Zm2.756-1-.773.337v3.1l.773-.212Zm5.889 4.412-.473-.575H83l-.473 1.225.531-1.053.422.4Zm-3.63-6.464h-.375l-.434 1.123.487-.965.387.37h.368ZM83 63.833l.136-.341.284.044-.328-.255-.292.649Zm1.4-.119.156-.39.326.051-.376-.293-.334.744Zm-1.361-2.121c.1.638.406.441.464-.113.026-.193.092-.319.159-.336.062 0 .029-.059.036-.129l-.854.221v.116c.1-.041.16.04.195.24m.659-5.1-.854.372v4.014l.854-.233Zm-.6-.363.266.041-.308-.239-.274.608.187-.091Zm3.2 13.106h-.442l-.287-.015v.064l.288.015h.443Zm0 1.161v-.064a5.081 5.081 0 0 1-.728-.03l-.005.063a5.1 5.1 0 0 0 .733.031m0-5.552a5.487 5.487 0 0 0-.733.029v.064a5.358 5.358 0 0 1 .728-.029v-.064m0 3.293-.453.007-.276-.008v.064c.167.009.561 0 .732 0v-.064m0-2.744a6.991 6.991 0 0 0-.733.023v.064a6.917 6.917 0 0 1 .729-.023V65.4m0 3.293c-.174 0-.559 0-.73-.008v.064l.288.008h.45ZM83.351 55.5h-.383l-.443 1.147.5-.986.4.378h.377ZM86.3 69.788h-.442l-.287-.021v.063l.289.022h.44Zm-.889-6.58-.542-.659H84.4l-.542 1.4.608-1.206.484.462Zm-4.715.76-.418-.509h-.362l-.418 1.085.47-.932.374.356Zm-.781.391.12-.3.252.039-.291-.226-.259.575Zm1.569-7.252.17-.083.116-.29.242.038-.28-.218Zm.516-.948h-.348l-.4 1.043.452-.9.36.343h.336Zm-1.316 1.648-.989.43v3.506l.989-.271Zm-.684-.26.261.041-.3-.234-.267.595.184-.089Zm-.079 4.8c.114.559.472.352.537-.131.041-.2.106-.3.226-.317V61.8l-.989.257v.1c.109-.042.187.018.226.2m4.979-6.928-.376-.293-.334.744.23-.112.156-.39Zm-.012-.825h-.469l-.542 1.4.608-1.207.484.462h.46Zm-.729 6.413c.116-.046.184.036.224.248.044.271.146.447.266.42.271-.021.2-.89.489-.918v-.127l-.979.254Zm-2.638.672c.1-.04.16.035.2.225.1.6.407.411.464-.113.036-.208.085-.314.2-.33v-.114l-.854.221Zm2.639-1.169.979-.268v-4.385l-.979.426Zm-1.76 3.165-.478-.582h-.412l-.478 1.239.537-1.064.427.407Zm-.026-6.615-.854.372v3.8l.854-.233Zm-.866 7.061.137-.344.288.045-.332-.259-.3.656Zm-.808-17.39v-.364l5.155-4.6 14.345-.013 1.217-.814-1.29.218-14.272.018-5.555 5.191h.264v.072h-.449l5.737-5.613c.7 0 15.723-.063 15.883-.05l-3.255-2.461-2.259-2.879h-1.94l.979-.713 1.376 1-1.375-1.233-1.055.951h-.362l1.328-1.34-4.712-6.557-3.9 11.6-1.4 1.771-5.7 5.63c.293.052.932.139 1.231.185m13.184-8.813.531-1.273c0-.288-.084-.915.339-.917h1c.423 0 .334.628.339.917l.542 1.273c.1.359-.182.337-.42.328-.362.046-.587.382-1.019.338-.432.044-.656-.292-1.018-.338-.207.033-.388-.083-.3-.328m-2.338.328a.824.824 0 0 0-.574.115 1.235 1.235 0 0 1-1.4 0 .626.626 0 0 0-.453-.115.224.224 0 0 1-.163-.328l.531-1.273v-.51a.378.378 0 0 1 .339-.407h1a.378.378 0 0 1 .339.407v.51l.542 1.273a.224.224 0 0 1-.163.328m-2.2-2.807.979-.713.979.713Zm.924-1.425 1.412 1.425h-.3l-1.042-.948-1.055.951h-.412ZM68 22.4s-.392-.32-.461-.306-.229.114-.215.518a4.178 4.178 0 0 0 .072.667s.059-.705.6-.88M57.831 8.192c1.642.436 2.495 1.309 4.3 2.561-.12-.16 2.411 2.232 2.4 2.217.57.523-.121.336-.976.445a3.723 3.723 0 0 1-.562-.023.99.99 0 0 1 .373.715 2.35 2.35 0 0 0-.732-.419 1.344 1.344 0 0 1 .292 1.164c-.011.085-.187.558-.123.481a1.213 1.213 0 0 0 .141.614 1.953 1.953 0 0 1 .193-.725 3.513 3.513 0 0 0 2.6-1.9 8.819 8.819 0 0 0-1.411-1.157l.744-.682a.124.124 0 0 0-.061-.214c-.577-.105-2.15-.593-5.2-2.839a3.2 3.2 0 0 0-1.936-.63 3.459 3.459 0 0 0-1.145.194ZM68.6 12.046l-.259 2.547c-.007.1.167.079.17.075s.048 6.75.066 6.76c0 0 .306-.079.328-.081a58.651 58.651 0 0 1 .122-6.311 1.2 1.2 0 0 1 .762.665l-.048-.93-.006-.118c.074.016.243.071.225-.067l-.5-2.58a1.548 1.548 0 0 1 .429-.815 1.792 1.792 0 0 1 .693-.414 27.693 27.693 0 0 0-1.4-9.425l-.176-.37a15.937 15.937 0 0 0-.766 2.542 28.508 28.508 0 0 0-.779 7.225 1.62 1.62 0 0 1 1.138 1.3m0-8.436c.141-.592.276-1.095.4-1.516l.07 9.331c.024.7.007 1.729.014 2.443-.018-.2-.006.439-.011.42-.105-.023-.362.115-.382-.056l.154-1.83c-.012-.028.029-.935-.184-1.176a1.824 1.824 0 0 0-.839-.731A28.359 28.359 0 0 1 68.6 3.61m-6.188 17.122c.031 0 .062.046.084.024.282-.247.2-.71-.234-.576-.363.17-.673.585-1.162.452a.529.529 0 0 0 .171.2 3.342 3.342 0 0 1 1.141-.1m.015-7.416c-.339-.1-.726-.456-1.056-.389-.5.358-.728.982-2.092.867a3.27 3.27 0 0 0 2.2-.185 8.545 8.545 0 0 1 .953-.292m-.532 7.915c.236.028.287-.1.408-.154-.257-.162-.993.034-.993.034Zm1.612-2.49a7.4 7.4 0 0 1-1.584-2.728 1.794 1.794 0 0 0-.368.361l.233-.569c-1.476-.44-1.461-.381-2.541.173a7.068 7.068 0 0 1 1.182-.114c.2.047.421.136.072.109-.517-.039-.932.413-1.4.308-.06 0-.18-.092-.073.028a.915.915 0 0 0 1.059.227.259.259 0 0 0 .305.359.478.478 0 0 0 .385-.347.436.436 0 0 1 0 .354c-.022.057 0 .029.088.011-.036.282.163.457.575.65q.927.539.478.773-.7.294-.156.833a.687.687 0 0 1 .913.395 1.466 1.466 0 0 0 .835-.822M82.043 51.75c0-1.216 0-1.825.006-3.04l-.348.274-.017 3 .359-.237m-.066-4.516c0 .67-.207.815-.2.184s-.259.973-.259.973l.727-.6s-.263-1.159-.264-.562M70.112 21.98a2.869 2.869 0 0 0-.672-.368 4.454 4.454 0 0 0-.663 0 1.206 1.206 0 0 1-.823-.147c-.024 0-.06-.009-.076.017-.1.139 0 .294.1.4a.946.946 0 0 0 .8.359c.37.005.738-.179 1.024.042.192.175.532.486.6.574a1.1 1.1 0 0 1 .105.446s.314-.183.121-.874c-.089-.187-.338-.324-.511-.449m12.124 26c-.43.409-.812.462-.695.844.107 1.5.007 2.425.026 3.93l.028-.018.026-3.966c.315-.3.639-.321.615-.79m-37.3-37.8c-.5.447-.108 1.231-.079 1.811a7.589 7.589 0 0 1 3.2-2.622 6.992 6.992 0 0 0-2.727 2.546 3.33 3.33 0 0 0-.269.664l.015-.021a6.29 6.29 0 0 1 2.385-2.023 5.165 5.165 0 0 0-1.807 2.925 10.163 10.163 0 0 0 .858 1.629c.194.264.457.614.683.9l.519-.386c-.218-4.353.344-6.2 2.69-6.2-2.038 2.575-2.74 5.021-.669 7.948a3.808 3.808 0 0 1 .947 2.015 3.84 3.84 0 0 1-1.139 2.668 5.82 5.82 0 0 0 1.852-1.535 2.258 2.258 0 0 1-.662 1.722 3.75 3.75 0 0 1-.616.517 2.95 2.95 0 0 0-1.374 2.4c-.022.223-.006.477-.009.76-.008 1.036-1.261 1.412-1.261 1.412l-.266.076a4.825 4.825 0 0 0 1.135-.214 1.834 1.834 0 0 0 1.3-1.142s0 .049.008.131c.028 1.172.827 4.138 2.676 4.4-.661-.883-1.277-3.084-.233-4.208.727-.861 1.839-1.428 2.271-2.523a3.5 3.5 0 0 0 2.2 1.345 4.365 4.365 0 0 1-1.252-1.882 5.815 5.815 0 0 1-.3-1.606 3.619 3.619 0 0 0 .2-1.243 3.837 3.837 0 0 1 .87-2.234 4.877 4.877 0 0 0-.333 2.115l.31-.49a5.5 5.5 0 0 0 .089 1.22 2.1 2.1 0 0 0 .94 1.249 2.951 2.951 0 0 0 .546.294c-.005.022 0 .287 0 .376a7.088 7.088 0 0 0 .52 2.1l.07-.339a2.83 2.83 0 0 1 .362-1.834c.381-.049.981.328 1.364.347 1.328.232 1.681.19 2.2-.207a1.991 1.991 0 0 1-.576.1c-2.147.034-5.005-2.351-3.78-4.366a1.689 1.689 0 0 0 .277-1.255 2.653 2.653 0 0 1-.107-.822 2.424 2.424 0 0 1 .479-1.658 2.087 2.087 0 0 1 .824-.524 2.377 2.377 0 0 0-1.1.38c-.6.423-.82 1.343-1.462 1.672a3.789 3.789 0 0 1-2.154.561 3.9 3.9 0 0 0 .381-.088 2.889 2.889 0 0 0 1.791-1.255c.947-1.5 1.286-1.9 2.01-2.341a3.687 3.687 0 0 1 1.251-.483 2.526 2.526 0 0 1 .769-.05.971.971 0 0 1 .254-.174 7.142 7.142 0 0 0-1.353-.282c-2.389-.072-3.636.568-6.044 2.392A12.761 12.761 0 0 1 58 13.117c-3.1 1.024-4.361 1.933-5.494 3.489a9.837 9.837 0 0 0-1.126 2.314c-.519-5.244 6.2-6.917 6.88-7.292.293-.231-.172-.37-1.039-.627-.913-.3-4.065-.753-2.645-1.983a5.215 5.215 0 0 1 1.191-.705 5.194 5.194 0 0 0-4.265 2.7 2.348 2.348 0 0 1-.049-1.893 7.009 7.009 0 0 1 3.907-1.84 8.542 8.542 0 0 0-3.516 1 5.055 5.055 0 0 1 3.223-1.5c-.19-1.273-.791-3.468 2.2-5.274L56.93.138c-3.522 1.9-3.352 4.376-2.927 5.7a8.775 8.775 0 0 1-1.234-2.721c-.318 1.094.687 2.744.687 2.744-1.77-1.18-2.846-3.114-2.272-4.917a11.414 11.414 0 0 1 2.081-.661 2.7 2.7 0 0 0 .017 1.529 1.554 1.554 0 0 1 .892-1.695Q54.737.036 55.336 0a11.249 11.249 0 0 0-5.4 1.236 3.127 3.127 0 0 0 .005.346 6.409 6.409 0 0 0 2.3 4.059 8.851 8.851 0 0 1-3.091-3.535c-.11-.68-.71.2-1.037.378l.2.31a14.318 14.318 0 0 0 3.22 3.152 12.278 12.278 0 0 1-3.6-2.755c-.322-.657-.7.267-1.025.546a7.565 7.565 0 0 0 3.3 2.674 9.3 9.3 0 0 1-3.366-1.9c-.483-.66-.778.663-1.074 1.028.808.307 1.828.68 2.636.9-.824-.158-1.976-.392-2.837-.463-.118.479-1.03 1.958-.12 1.556a14.541 14.541 0 0 1 4.317-.2 13.981 13.981 0 0 0-4.429.641c-.791.082-.507 1.146-.635 1.737a9.813 9.813 0 0 1 3.037-1.3 8.648 8.648 0 0 0-2.8 1.761m9.671 5.778c.094-.05.191-.1.3-.142a4.32 4.32 0 0 0 1.452-.983 2.159 2.159 0 0 1-1.307 1.431c-.368.157-.633.28-.839.39a2.981 2.981 0 0 0-.842.644 2.469 2.469 0 0 1 1.237-1.338M52.78 20.6a4.237 4.237 0 0 1 2.5-2.687 7.288 7.288 0 0 0-1.462 2.494 5.53 5.53 0 0 1-.376.976 5.381 5.381 0 0 1-2.3 2.342A6.552 6.552 0 0 0 52.78 20.6m16.175 2.749a4.806 4.806 0 0 1 1.5.715c.07.05.074-.311.065-.34s-.068-.277-.239-.3a1.512 1.512 0 0 1-.622-.424c-.115-.138-.257-.2-.275-.165s-.094.092-.439.08a1.279 1.279 0 0 0-.844.25.476.476 0 0 1-.273.155 1.052 1.052 0 0 0-.158.892 1.828 1.828 0 0 1 1.285-.861m-1.319 2.18a2.662 2.662 0 0 0 .46.845 1.2 1.2 0 0 0 .531.56c0 .377.007.923.01 1.3l.019 2.69.253-.705c.025-.737 0-3.957 0-4.056a2.191 2.191 0 0 0 .86.39c.024 0 .06 4.535.06 4.695a18.005 18.005 0 0 0 1.371-1.337 18.211 18.211 0 0 0-.523-2.78 14.918 14.918 0 0 0-.656-1.248 1.071 1.071 0 0 0-.458-.392 1.5 1.5 0 0 1-.868-.516c-.1-.071-.2.047-.508.092s-.25-.234-.25-.234c.125.03.689-.452.834-.477a4.554 4.554 0 0 1 1.011.261c.036.028.219-.034.219-.034a8.91 8.91 0 0 0-1.47-.727c-.08-.049-.485.362-.6.548a.172.172 0 0 1-.274.049 2.149 2.149 0 0 0-.018 1.076m8.59 16.259-1.7 2.788-2.784 5.774 1.986-2.869Zm-18.1 8.085v.1a2.4 2.4 0 0 1 1.187.269 2.221 2.221 0 0 0-1.187-.37m-3.931.693a.4.4 0 0 1 .3.411h.09a.372.372 0 0 0-.392-.411M56.1 49.8a.147.147 0 1 0-.291 0 .147.147 0 1 0 .291 0m27.22-3.719c0 .707-.242.881-.242.218s-.3 1.05-.3 1.05l.856-.7s-.313-1.195-.313-.565M55.129 50.7H56.4v-.124h-1.365Zm-2.045-24.285a3.443 3.443 0 0 0-.627.64 2.94 2.94 0 0 0 1.877 1.128c.049.008.1.015.158.018a2.764 2.764 0 0 1-1.408-1.785M44.5 50.352l-2.784-5.774-1.7-2.788 2.5 5.693Zm34.01-4.087h-.534v.75h.534Zm-3.353.75h.534v-.75h-.534Zm-24.35-12.784c7.869 1.628 9.781-4.691 9.361-6.838.494 2.585-.015 6.74-4.756 8.151.688.024 1.534.342 2.176.042 2.272-1.257 3.817-4.628 3.361-8.159a11.209 11.209 0 0 1 .259 2.732c-.021 1.689-.59 2.918-2.037 5.529a17.918 17.918 0 0 0 2.3-.3 12.979 12.979 0 0 0 .659-6.963 9.275 9.275 0 0 1 .656 6.649c.421-.117.837-.246 1.245-.393a7.849 7.849 0 0 0-.362-5 8.225 8.225 0 0 1 1.109 4.708c.233-.1.462-.2.691-.3.011-.278.018-.676.018-1.249 0-2.356-.729-3.763-1.587-4.325a1.52 1.52 0 0 0-.794-.443c-.1-.268-.667-.731-1.084-.513-.312-.4-1.1-.281-1.1-.28-.225-.456-1.455-.6-1.555-.509.747 1.764.6 3.341-2.045 5.272-2.186 1.552-10.734.5-13.641-3.441a17.984 17.984 0 0 0 7.127 5.627M45.554 14.12a8.008 8.008 0 0 0 1.369 2.035 8.626 8.626 0 0 1-1.323-2.442 5.086 5.086 0 0 0-.05.407m16.11 36.859h.09a.4.4 0 0 1 .3-.411.372.372 0 0 0-.392.411m-3.393-2.053a.147.147 0 1 0-.291 0 .147.147 0 1 0 .291 0m-.146 1.049v-.1a2.222 2.222 0 0 0-1.187.37 2.4 2.4 0 0 1 1.187-.269m2.321-.176a.147.147 0 1 0-.291 0 .147.147 0 1 0 .291 0m-.588.894h1.27l.094-.124h-1.364Zm26.448-1.38h-.451l-.294.193.028.056.281-.185h.436Zm-46.465 5.342h.9l.132-.364H39.7Zm56.878-10.941c0 .92-.981.887-.981.015 0-.856-1.222 1.056-1.222 1.056h3.475s-1.272-1.89-1.272-1.071M86.3 49.863h-.444l-.3.187.027.056.281-.179h.436Zm4.273-6.148c0 .92-.981.887-.981.015 0-.856-1.221 1.056-1.221 1.056h3.475S90.57 42.9 90.57 43.715m-5.017 6.879.026.056.281-.174h.44v-.064h-.444Zm.744-1.828h-.451l-.294.2.028.055.281-.19h.439Zm4.612 8.39h-.746v2h.746Zm-1.053-19.7h.935v-1.31h-.935Zm8.652-24.585c.154.246.39.555.531.734s.073.3-.069.324c-.306.1-.4.423-.1.775.247.376.984.645 1.189.908-.005.2-.344.205-.331.619-.006.452.518.588.65.605s.416-.141.481-.08c.033.03-.058.114-.153.219-.427.359-.042.737.361.76.346.023.8-.423.612.128 0 .132.246.334.321.443a2.216 2.216 0 0 1 .126.424c.068.165.39.362.474.079a8.156 8.156 0 0 0-.509-1.974 8.134 8.134 0 0 0-1.573-2.83c-.1-.1.015.011.056.046a10.445 10.445 0 0 1 2.243 4.572 6.2 6.2 0 0 0 .107-2.712c-.183-.149-.153.27-.271.161-.029-.027 0-.165.064-.367.179-.682.54-1.7 0-2.284-.331-.293-.449.346-.644.406-.191-.227-.323-2.814-1.472-2.37-.22.083-.062.36-.159.533-.032.056-.27-.146-.585-.281-1.183-.57-2.165-.052-1.349 1.163m-2.2 42.994a.914.914 0 0 0-.819.991h1.639a.915.915 0 0 0-.819-.991m.739-36.62c0 .459.5.741.862.917.211.094.487.194.279.39a.366.366 0 0 0 .148.632c.442.215 1.222-.11 1.152.182-.049.137-.169.258-.1.415a.5.5 0 0 0 .649.149c.1-.049.272-.317.339-.3.033.01-.012.122-.054.256-.192.449.121.636.495.428.247-.137.474-.726.494-.206.036.1.284.128.373.17s.184.22.224.247c.23.135.44-.026.356-.273a6.157 6.157 0 0 0-2.91-2.406l-.046-.011a2.021 2.021 0 0 1 .37.1 6.556 6.556 0 0 1 2.711 2.166 5.642 5.642 0 0 0-.59-1.91c-.046-.077-.084-.127-.108-.129-.179-.017-.035.274-.154.253-.174-.517-.016-1.754-.728-1.986-.332-.053-.236.494-.358.62-.088.025-.294-.415-.4-.541-.3-.454-.9-1.151-1.363-.576-.141.169.057.319.032.5-.007.06-.24.01-.514.045-.5.061-1.159.276-1.16.864M90.43 9.465c-.137.095-.472-.057-.466.159.086 1.053 2.1 1.207 2.779 1.622-.007.173-.581.2-.225.571a1.389 1.389 0 0 0 .655.37c.528.19 1.283.045 1.749.18.1.146-.273-.012-.126.209a12.023 12.023 0 0 0 2.347 1.031C95.694 12.2 94.01 11.053 92.527 9.7c1.229 1.1 2.657 1.955 3.884 3.071a7.95 7.95 0 0 0 .912.732.111.111 0 0 0 .146-.092c-.012-.37-.281-.426-.5-.687-.084-.12-.237-.447-.353-.5s-.187-.014-.241-.1.186-.318.188-.511c.033-.317-.282-.913-.681-.682-.409.2-.136-.129-.11-.36a.983.983 0 0 0-1.247-.907c-.093.055-.128.122-.224.071-.187-.1-.526-.907-1.2-1.435-.413-.3-.827-.45-.946-.084 0 .137-.111.176-.378.011A6.939 6.939 0 0 0 90 7.33c-1.228-.283-.875.726-.085 1.565.266.306.555.54.512.571m5.293 26.681h-.934v1.312h.934ZM81.1 44.648l5.354-5.77 3.706-11.323-2.571 3.271-3.11 6.625h-.262l-.564 1.462.633-1.256.066.063-.684 1.457-.029-.034h-.488l-.556 1.457-.129-.157h-.488l-.565 1.457.634-1.256.5.481h.207l-.166.353v1.109l-.557.683v-.607c-.005.02 0-1.156 0-1.152l.106-.267.339.052-.392-.3-.348.774.184-.089v1.226Zm2.878-5.289.47-1.09.05.008V40.6l-.52.639Zm-.46 2.259-.378.519v-1.776l.011-.005.162-.406.2.032Zm-.923-1.018.631-1.25.254.242-.094.2-.119-.093-.348.774.192-.093-.252.537Zm3.7 7.62h-.451l-.274.193.029.055.26-.183h.441Zm0-5.488h-.453l-.274.251.034.05.259-.237h.439Zm0-.549h-.453l-.274.251.034.05.259-.237h.439Zm0 5.488h-.452l-.294.21.029.054.281-.2h.441Zm0-4.391h-.453l-.274.251.034.05.259-.237h.439Zm-2.886 7.566v-3.211l-.409.321v3.158l.406-.27m.218-4-.849.691a2.358 2.358 0 0 1 .036.461l.06.173v3.754l.032-.02v-4.167c.37-.356.742-.386.72-.893m1.143-1.995c0 .748-.266.941-.266.239s-.332 1.122-.332 1.122l.944-.775s-.345-1.252-.345-.586m.1 5.029v-3.394l-.449.354v3.338l.449-.3m.241-4.24-.937.762a2.385 2.385 0 0 1 .04.485l.066.18v3.967l.035-.022v-4.4c.422-.4.816-.432.794-.971m1.186.934h-.452l-.274.207.03.053.26-.2h.444Zm0 .549h-.452l-.274.2.03.054.26-.192h.444Zm0-1.1h-.451l-.273.19.029.055.26-.181h.443Zm0-2.2h-.453l-.274.251.034.05.259-.237h.442Zm0 .549h-.453l-.274.247.034.05.259-.233h.442Zm0 .549h-.452l-.294.215.03.054.281-.206h.443Zm0 .549h-.452l-.294.217.03.054.281-.207h.443Z"/><path data-name="Tracciato 301" d="m48.609 83.049-1.676.843v-1.214l1.777-.924h1.1v7.027h-1.2Z"/><path data-name="Tracciato 302" d="M56.618 86.923c0 1.124-.953 2.008-2.5 2.008-1.636 0-2.54-.883-2.54-2.138a1.976 1.976 0 0 1 1.094-1.747 1.691 1.691 0 0 1-.853-1.516c0-1.134.863-1.927 2.259-1.927a2.029 2.029 0 0 1 2.3 1.978 1.934 1.934 0 0 1-.993 1.6 1.9 1.9 0 0 1 1.234 1.747m-1.214-.04c0-.4-.231-.743-.913-1.024l-.773-.321a1.3 1.3 0 0 0-.943 1.184c0 .713.522 1.135 1.345 1.135s1.285-.462 1.285-.974m-2.449-3.322a1.064 1.064 0 0 0 .743.913l.672.271a1.341 1.341 0 0 0 .873-1.114c0-.542-.382-.994-1.164-.994-.743 0-1.125.432-1.125.924"/><path data-name="Tracciato 303" d="M62.81 86.622a2.343 2.343 0 0 1-2.529 2.309 4.882 4.882 0 0 1-2.138-.512v-1.223a4.294 4.294 0 0 0 2.1.6 1.186 1.186 0 0 0 1.285-1.174 1.2 1.2 0 0 0-1.355-1.185 1.882 1.882 0 0 0-1.064.322l-.863-.632.15-3.373h4.116v1.124H59.47l-.09 1.707a2.467 2.467 0 0 1 1.164-.241 2.2 2.2 0 0 1 2.268 2.279"/><path data-name="Tracciato 304" d="M64.386 88.571v-1.2a4.042 4.042 0 0 0 1.706.432c1.155 0 1.717-.632 1.717-2.138a2.353 2.353 0 0 1-1.616.572 2.156 2.156 0 0 1-2.219-2.319 2.32 2.32 0 0 1 2.449-2.319c1.646 0 2.61 1.265 2.61 3.413 0 2.921-1.074 3.915-2.941 3.915a4.5 4.5 0 0 1-1.706-.361m3.373-3.985c0-1.224-.452-1.9-1.345-1.9a1.25 1.25 0 0 0 0 2.5 1.883 1.883 0 0 0 1.345-.6"/><path data-name="Tracciato 305" d="M159.186 34.749v16.019h3.337V33.487Z"/><path data-name="Tracciato 306" d="M165.17 50.769h3.337V39.113h-3.337Zm1.668-13.969a2.049 2.049 0 1 0-2.049-2.049 2.049 2.049 0 0 0 2.049 2.049"/><path data-name="Tracciato 307" d="M218.289 50.769h3.337V39.113h-3.337Zm1.668-13.969a2.049 2.049 0 1 0-2.049-2.049 2.049 2.049 0 0 0 2.049 2.049"/><path data-name="Tracciato 308" d="M144.884 72.576h3.337V60.92h-3.337Zm1.669-13.969a2.049 2.049 0 1 0-2.049-2.049 2.049 2.049 0 0 0 2.049 2.049"/><path data-name="Tracciato 309" d="M192.7 72.576h3.337V60.92H192.7Zm1.669-13.969a2.049 2.049 0 1 0-2.049-2.049 2.049 2.049 0 0 0 2.049 2.049"/><path data-name="Tracciato 310" d="m142.22 55.15-3.333 1.262v5.237a5.112 5.112 0 0 0-3.464-1.3c-3.233 0-5.443 2.693-5.443 6.173 0 3.5 2.21 6.222 5.443 6.222a5.088 5.088 0 0 0 3.464-1.313v1h3.337V55.15Zm-6.038 14.445a3.088 3.088 0 0 1 0-6.126 2.738 2.738 0 0 1 2.706 2.851v.406a2.73 2.73 0 0 1-2.706 2.87"/></g></svg>