<svg id="Livello_1" data-name="Livello 1" xmlns="http://www.w3.org/2000/svg" viewBox="0 0 700 307.8"><defs><style>.cls-1{fill:#fff;}</style></defs><path class="cls-1" d="M461.2,241H442.43V288h10V272.43h8.81c9.76,0,16.08-6.79,16.08-15.81S471,241,461.2,241Zm-1.95,22.81h-6.86V249.63h6.86c4.44,0,7.4,2.48,7.4,7S463.69,263.76,459.25,263.76ZM498,254.07c-10.63,0-17.9,7.6-17.9,17.42s7.27,17.56,17.9,17.56,18-7.67,18-17.56S508.64,254.07,498,254.07Zm0,26.1c-4.51,0-8.14-3.23-8.14-8.68s3.63-8.61,8.14-8.61,8.21,3.3,8.21,8.61S502.58,280.17,498,280.17Zm60.14-1.81c0,7.67,5.12,10.69,11.1,10.69a22.89,22.89,0,0,0,5.66-.74v-8.14a10.43,10.43,0,0,1-2.7.41c-3.16,0-4.64-1.48-4.64-4.44V263h7.34v-7.81h-7.34V242.83l-9.08,3.37v8.94h-5.92V263h5.58Zm37.68-24.29c-9.42,0-16.89,6.93-16.89,17.29,0,11.37,7.81,17.69,17.29,17.69,6.6,0,10.5-1.75,13.53-3.7v-8.14a21.56,21.56,0,0,1-12.52,4c-4.1,0-8.27-2.49-8.47-7h23.28c.06-.54.13-1.95.13-2.76C612.18,261.33,606.26,254.07,595.83,254.07ZM589,267.93a6.69,6.69,0,0,1,6.86-6.06c4.51,0,6.66,3,6.86,6.06Zm45.08,21.12a23.1,23.1,0,0,0,10.09-2.28V277a16.07,16.07,0,0,1-9.62,3.1c-4.65,0-8.68-2.83-8.68-8.62,0-5.58,4-8.54,8.68-8.54a16.54,16.54,0,0,1,9.62,3.09v-9.69a23.1,23.1,0,0,0-10.09-2.28c-10.37,0-18,7.06-18,17.42S623.68,289.05,634.05,289.05Zm38-20.58V288h9.42V266.11c0-7.8-5.86-12-12.05-12a12.55,12.55,0,0,0-9.22,3.7v-2.63h-9.28V288h9.42V266.11a7.66,7.66,0,0,1,6.19-3.43C669.7,262.68,672.06,264.9,672.06,268.47Zm31.62,3c0,10.43,7.6,17.56,18,17.56a23.07,23.07,0,0,0,10.09-2.28V277a16,16,0,0,1-9.62,3.1c-4.64,0-8.68-2.83-8.68-8.62,0-5.58,4-8.54,8.68-8.54a16.5,16.5,0,0,1,9.62,3.09v-9.69a23.07,23.07,0,0,0-10.09-2.28C711.28,254.07,703.68,261.13,703.68,271.49Zm50.73-17.42c-10.63,0-17.9,7.6-17.9,17.42s7.27,17.56,17.9,17.56,18-7.67,18-17.56S765,254.07,754.41,254.07Zm0,26.1c-4.51,0-8.14-3.23-8.14-8.68s3.63-8.61,8.14-8.61,8.21,3.3,8.21,8.61S759,280.17,754.41,280.17Zm-201,22.33H513.21v9.22h15V349.6l10.15.06V311.79l15.07-.07Zm12.79,13.12c-10.63,0-17.9,7.6-17.9,17.43s7.27,17.56,17.9,17.56,18-7.67,18-17.56S576.86,315.62,566.23,315.62Zm0,26.11c-4.51,0-8.14-3.23-8.14-8.68s3.63-8.62,8.14-8.62,8.21,3.3,8.21,8.62S570.8,341.73,566.23,341.73Zm33.16-20.26V316.7h-9.28v32.9h9.42v-19A7.9,7.9,0,0,1,607.2,325a13.72,13.72,0,0,1,3.43.34v-9.56a21.24,21.24,0,0,0-2.42-.2A9.25,9.25,0,0,0,599.39,321.47ZM652,315.62a12.58,12.58,0,0,0-9.22,3.7V316.7h-9.28v32.9h9.42V327.66a7.65,7.65,0,0,1,6.19-3.43c3.16,0,5.51,2.22,5.51,5.79V349.6h9.42V327.66C664.05,319.86,658.2,315.62,652,315.62Zm35.18,0c-10.63,0-17.89,7.6-17.89,17.43s7.26,17.56,17.89,17.56,18-7.67,18-17.56S697.82,315.62,687.19,315.62Zm0,26.11c-4.5,0-8.14-3.23-8.14-8.68s3.64-8.62,8.14-8.62,8.21,3.3,8.21,8.62S691.77,341.73,687.19,341.73ZM326.65,313.48l-2.56.62v2.15l2.56-.49Zm1.48-.78-1,.24v2.72l1-.19Zm3.44-.42-2.7.66v2.39l2.7-.53Zm1.9-.91-1.38.34v3l1.38-.26Zm10-2-3.6.85v2.94l3.6-.69Zm-6.37,1.52-2.95.72v2.66l2.95-.57ZM339,310l-1.31.33v3.31l1.31-.26ZM225.39,290.58a.8.8,0,0,0-.79.52h1.58A.82.82,0,0,0,225.39,290.58Zm-76.07-45.93L145.71,241l-3.62,3.65h.42l3-2.74,3,2.74ZM131.62,243l-2.29,1.67h4.58Zm46.81,33.23-.87,2.06c0,.07-.05.18,0,.24s.24.1.52.07a2.08,2.08,0,0,1,.76.29,1.47,1.47,0,0,0,.88.26h.12a1.65,1.65,0,0,0,.8-.26,1.59,1.59,0,0,1,1-.29.14.14,0,0,0,.1-.06.27.27,0,0,0,0-.25l-.87-2.12v-.82a.45.45,0,0,0-.39-.5,4.56,4.56,0,0,1-.74,0c-.46,0-.94-.06-1.15.14a.49.49,0,0,0-.12.36Zm.31-1h1.82v2.42h-1.82Zm-35.48-30.53h4.58L145.55,243Zm200.26,64.2-3.6.9v0l3.6-.85Zm-215.65-57a.68.68,0,0,0,0,.56c.15.19.58.17,1,.16h.07a3.32,3.32,0,0,1,1.24.49,3.08,3.08,0,0,0,3.27,0,3.18,3.18,0,0,1,1.22-.48h0a.71.71,0,0,0,.65-.17.57.57,0,0,0,0-.55l-1.51-3.65c0-.12,0-.26,0-.42,0-.61,0-1.46-.32-1.82a.67.67,0,0,0-.49-.2h-2.84a.7.7,0,0,0-.49.19c-.35.37-.33,1.22-.32,1.83,0,.16,0,.3,0,.42v.06Zm2.29-5.24h2.94v4h-2.94ZM295,294.72H280.71L279.4,296l1.14-1h14.14ZM189.6,274.05l-1.9-1.92-1.91,1.92h.06l1.76-1.58,1.76,1.58Zm-4.08,4.46c.06.07.23.1.52.07a2,2,0,0,1,.75.29,1.53,1.53,0,0,0,.89.26,1.47,1.47,0,0,0,.92-.26,1.9,1.9,0,0,1,.72-.28h.05a.31.31,0,0,0,.3-.08.23.23,0,0,0,0-.24l-.87-2.11v-.22c0-.33,0-.83-.16-1a.34.34,0,0,0-.23-.08h0a6.07,6.07,0,0,1-.74,0c-.46,0-1-.06-1.16.14a.49.49,0,0,0-.12.36v.88l-.87,2.06A.25.25,0,0,0,185.52,278.51Zm1.18-3.33h1.82v2.42H186.7Zm-.2-1.13h2.21l-1.1-.8Zm5.41,7.88.05,0,2.75,2.84-2.81-3.15c-.69-.05-8.15,0-13.13,0h-2.21Zm-12.27-8.68-1.1.8h2.21Zm-37.83-20.83c.15.19.58.17.95.16h.07a3.44,3.44,0,0,1,1.25.49,3,3,0,0,0,3.26,0,2.56,2.56,0,0,1,1.64-.47.35.35,0,0,0,.27-.18.57.57,0,0,0,0-.54l-1.51-3.65c0-.12,0-.26,0-.42,0-.61,0-1.46-.32-1.82a.67.67,0,0,0-.49-.2h-2.84a.68.68,0,0,0-.49.19c-.35.37-.33,1.22-.32,1.83,0,.16,0,.3,0,.42v.06l-1.53,3.58A.7.7,0,0,0,141.81,252.42Zm2.27-5.8H147v4h-2.94Zm206.27,60.53-3.64.91v.09l3.64-.92Zm-99.53-9.71-.19.28,26.32-.28Zm102,9.09-1.92.48v4.05l1.92-.38Zm-7.1,1.77-1.65.41v3.67l1.65-.32Zm4.62-.61-3.64.92v3.26l3.64-.7ZM209.92,212.74a12.88,12.88,0,0,0-.62,5.08h.46s0,0,0,0V217a12.81,12.81,0,0,1,0-1.4,8.51,8.51,0,0,1,4-6.88l.09-.07a9.9,9.9,0,0,0,1.62-1.36A6.66,6.66,0,0,0,217.3,203a17,17,0,0,1-5,4l0,.05v.37c1.28-.33,3-1.9,4.07-2.8C214.91,208.11,211.1,209.29,209.92,212.74Zm17.79-22.26a6.22,6.22,0,0,0,3.4-3.33,12.79,12.79,0,0,1-3.7,2.36,7.31,7.31,0,0,0-.82.39,7.39,7.39,0,0,0-3.1,3,7.92,7.92,0,0,1,1.84-1.28C225.91,191.28,226.67,190.93,227.71,190.48Zm-10.15,20.6a15.5,15.5,0,0,0,5.53-6,15.06,15.06,0,0,0,1-2.73,19.84,19.84,0,0,1,3.72-6.58,11.7,11.7,0,0,0-6.37,7.21A23.09,23.09,0,0,1,217.56,211.08ZM249.7,298.3h-3.61l.07.23,3.48,0Zm-41.62-78.17a5.57,5.57,0,0,1-2.46,1.22,39.64,39.64,0,0,1-13.86-.25c9.09,15,26.27,25.29,43.92,25.11a51.21,51.21,0,0,0,17.95-3.16s.65-.25,1-.39v.09c.88-.47,2.59-.83,3.14-1.6a25.53,25.53,0,0,0,0-5.09c-.26-5.54-1.92-8.51-3.34-10.14a9.27,9.27,0,0,0-3.54-2.49,3.69,3.69,0,0,0-2.8-1.66,2.07,2.07,0,0,0-.5.06,4.18,4.18,0,0,0-3-.73,6.33,6.33,0,0,0-4.74-1.41c-1.62.11-2.11-2.94-2.49-5.32a9.14,9.14,0,0,1,.72-4.4,22.18,22.18,0,0,1,2.48.77c2.65.56,5,1.17,7.15-.2.17-.15.6-.22.37-.47l.12.12c1.5-1.69.63-3.83.76-5.56a2.75,2.75,0,0,0,.83-3c.62-2,3-1.75,3.85-4.21.54-.3-1.91-3.15-2.39-4a5.51,5.51,0,0,1-.71-3.14c.07,0,.08-.81.1-.82a6.25,6.25,0,0,1,.32-1.21,7.7,7.7,0,0,0,4.36-1.87,12.32,12.32,0,0,0,3.29-4.17,19.57,19.57,0,0,0-3.74-3.23l1.54-1.41a1,1,0,0,0,.22-.31l1.48-1.44-.9-.34c-5.15-1.95-16.49-10-16.63-10.13-4-2.46-8.46-2.5-12.25-2.16a16.15,16.15,0,0,1-.3-5.66c.52-3.5,3.26-6.41,6.67-8.2l-1.27-4.79c-16.48-2-28.95,6.16-33.46,17.24-4.25,10.45-2.46,22.39,4.36,29l.36.35c.81-.48,1.93-1.39,2.68-1.95l.31-.14,0-.12c0-.68-.08-1.35-.11-2-.11-5.78-.29-14.13,5.69-15-5.65,7-6.31,15.67-.57,22.71,1,1.54,2,3,2.1,4.68a10.9,10.9,0,0,1-3.06,7.14l.32.34,0,0c2.51-2.83,3.07-4.87,3.18-7.43-.14-2.16-1.43-4-2.64-5.59-5.25-7.42-4.75-14.12,1.69-22.37a6.31,6.31,0,0,0-4.66,1.81c-2.16,2.27-2.89,6.91-2.46,15.53v.08l-1.66,1.23-.09-.12c-.55-.69-1.27-1.64-1.93-2.54a29.23,29.23,0,0,1-2.44-4.63l0-.05v0a14.73,14.73,0,0,1,4.16-7.45,16.86,16.86,0,0,0-5.51,5l-.48.73.16-.79a9.8,9.8,0,0,1,.77-1.91,16.33,16.33,0,0,1,4.19-4.87,20.6,20.6,0,0,0-5.25,5.25l-.26.35,0-.43a9,9,0,0,0-.23-1.45c-.26-1.32-.57-2.81.5-3.78a23.14,23.14,0,0,1,6.16-4.28,37.35,37.35,0,0,0-6.66,3.19l-.31.18.08-.34a9.36,9.36,0,0,0,.12-1.59c0-1.52.06-3.25,1.81-3.43a42.92,42.92,0,0,1,8.79-1.72h-.55a32.45,32.45,0,0,0-7.87.78c-.56.24-.94.26-1.16.05-.43-.43,0-1.58.72-3.15a12.71,12.71,0,0,0,.59-1.48l0-.13H201c1.56.13,3.45.45,5.22.78-1.34-.45-2.91-1-4.72-1.7l-.2-.08.14-.16a7.2,7.2,0,0,0,.7-1.33c.48-1,1-2.08,1.64-2.14.31,0,.62.15.93.57a27.46,27.46,0,0,0,6.68,4.29,22.1,22.1,0,0,1-6.73-6.29l-.08-.11.11-.09a6.38,6.38,0,0,0,.75-.91c.49-.65,1-1.32,1.52-1.32H207c.31,0,.57.27.8.74a33.3,33.3,0,0,0,8.44,6.81,37.84,37.84,0,0,1-7.63-7.78c-.21-.3-.4-.59-.58-.88l-.09-.14.15-.07a6.25,6.25,0,0,0,.9-.76c.65-.61,1.27-1.18,1.76-1,.25.09.41.35.49.82a23.58,23.58,0,0,0,7.18,8.8c-4-4.31-5.09-7.91-5.25-10.25,0-.34,0-.68,0-1v-.09l.08,0a31.77,31.77,0,0,1,15-3.51h.28v.31c-1.1.06-2.19.17-3.24.32a4.23,4.23,0,0,0-2.41,4.61l-.3.07a7.92,7.92,0,0,1-.14-4.15,32.25,32.25,0,0,0-5.51,1.77c-1.39,4.5.93,9.75,5.82,13.26-.74-1.36-2.35-4.78-1.62-7.28l.16-.55.13.56a26.09,26.09,0,0,0,2.94,6.87c-1-3.91-.72-10.37,8.59-15.38l.17-.1.05.2c1,3.94,1,3.94.92,4l0,0c-7.77,4.7-6.86,10.27-6.26,14,0,.28.09.54.12.79l0,.15-.16,0c-1.39.16-5.84.86-8.39,3.46a23.42,23.42,0,0,1,8.91-2.33l.25,0h0l.07.3h0c-7,1.48-10,4.05-10.91,5.11a6.49,6.49,0,0,0,0,4.93,15,15,0,0,1,12-7.43l.9-.06-.83.35a14.54,14.54,0,0,0-3.33,2c-.75.65-1.06,1.25-.94,1.79.36,1.51,4.07,2.43,6.52,3,.74.18,1.38.34,1.84.49,2.2.66,3.18,1,3.28,1.47a.62.62,0,0,1-.3.57,14.6,14.6,0,0,1-1.59.64c-5.1,1.89-18.51,6.86-17.83,19.09a26.75,26.75,0,0,1,2.95-5.9c3-4.14,6.45-6.57,12.93-9a39,39,0,0,0-9.58,4.21l-.17-.26c6.95-5.27,10.4-7,17.15-6.78a20.53,20.53,0,0,1,3.86.8l.37.12-.34.17a2.51,2.51,0,0,0-.68.46l0,0h-.07a7,7,0,0,0-2.12.14,10.14,10.14,0,0,0-3.49,1.35c-2,1.21-2.94,2.32-5.62,6.56a8.2,8.2,0,0,1-4.76,3.49,9.81,9.81,0,0,0,4.49-1.5,6.35,6.35,0,0,0,2.19-2.41,8.17,8.17,0,0,1,1.93-2.31,7.09,7.09,0,0,1,3.09-1.09h.17l.07.08.16.21-.27,0h-.08a6.47,6.47,0,0,0-2.13,1.4c-1.18,1.25-1.26,3-1.33,4.6a7.66,7.66,0,0,0,.3,2.27c.39,1.22-.18,2.47-.79,3.66a5.74,5.74,0,0,0,.12,6.05,13.12,13.12,0,0,0,10.29,6h.12a5.39,5.39,0,0,0,1.58-.27l.89-.3-.75.57c-1.53,1.16-2.6,1.26-6.34.61a6.3,6.3,0,0,1-1.73-.49,5.2,5.2,0,0,0-2-.49c-.48.59-1,1.95-1,5l-.3,1.45-.19-.42a19.9,19.9,0,0,1-1.48-6s0-.68,0-1a8.08,8.08,0,0,1-1.47-.8,6.09,6.09,0,0,1-2.72-3.61,12.35,12.35,0,0,1-.25-2.95h0l-.83,1.32-.05-.44a13.51,13.51,0,0,1,.65-5.19,11.4,11.4,0,0,0-1.86,5.52,10.16,10.16,0,0,1-.57,3.54,16.62,16.62,0,0,0,.83,4.44,12.23,12.23,0,0,0,3.49,5.24l.5.43-.64-.16c-3.34-.88-4.7-1.89-6.14-3.65a13.37,13.37,0,0,1-3.85,4.53,22.51,22.51,0,0,0-2.48,2.4c-2.94,3.16-1.13,9.28.66,11.68l.23.3-.37,0c-5.15-.74-7.49-8.77-7.68-12.31a5.43,5.43,0,0,1-3.5,2.73,13.79,13.79,0,0,1-3.24.61l-.06-.3.75-.21s3.31-1,3.43-3.73l-.51.25A3.28,3.28,0,0,1,208.08,220.13Zm-7.28-35.54c0-.39.08-.78.14-1.16l.1-.6.19.57a24.42,24.42,0,0,0,3.7,6.85l-.23.2a23.09,23.09,0,0,1-3.89-5.78l0,0Zm43.57-11.73c-3.08-2.27-5.31-3.91-8.8-4.84l-3.66-.67.53-.19a9.7,9.7,0,0,1,3.28-.56h.12a9.29,9.29,0,0,1,5.45,1.8c8.65,6.39,13.09,7.71,14.6,8a.48.48,0,0,1,.39.35.51.51,0,0,1-.15.52l-2,1.79a25.26,25.26,0,0,1,3.86,3.18l.07.08-.05.09s-2.59,5.14-7.38,5.46a5.62,5.62,0,0,0-.49,1.91l0,.56-.27-.5a3.59,3.59,0,0,1-.41-1.68c-.09-.09,0-.27.17-.91a6,6,0,0,0,.18-.59,3.7,3.7,0,0,0-.79-3.17l-.33-.36.48.11a6.64,6.64,0,0,1,1.83,1,3,3,0,0,0-1-1.55l-.36-.33.49.06a9.13,9.13,0,0,0,1.56.07c.67-.09,1.32-.11,1.84-.13s1.3,0,1.35-.18,0-.16-.53-.68v0c-.16-.11-.48-.41-1.24-1.13-1.56-1.46-4.64-4.35-5.38-5l-.16-.11C246.42,174.38,245.33,173.57,244.37,172.86Zm-4.74,11-.92-.38,1,.08c2.93.26,3.94-.71,4.92-1.65a10.4,10.4,0,0,1,.88-.76l.06,0a3.08,3.08,0,0,1,2,.61,6.22,6.22,0,0,0,1.07.49l.56.17-.57.13a25.74,25.74,0,0,0-2.67.82,12.57,12.57,0,0,1-4.25.82A5.85,5.85,0,0,1,239.63,183.82Zm4.18,8.83a.23.23,0,0,1,0-.25,2.29,2.29,0,0,0,.1-.48,1.41,1.41,0,0,1-1,.67,1,1,0,0,1-.94-.35.79.79,0,0,1-.17-.56,2.73,2.73,0,0,1-2.88-.81c-.1-.11-.21-.23-.12-.35s.21-.06.3,0l.15.05a3.16,3.16,0,0,0,2-.39,5,5,0,0,1,1.75-.49,17,17,0,0,0-2.82.26l-.44.07-.89.12,1.26-.65c2.61-1.34,2.82-1.45,6.83-.26l.16,0-.39,1a4.54,4.54,0,0,1,.48-.39l.17-.12.06.2a20.88,20.88,0,0,0,4.44,7.65l.07.07,0,.09a4.29,4.29,0,0,1-2.44,2.4l-.14,0-.06-.13a1.79,1.79,0,0,0-2.4-1l-.08,0-.06-.06a1.77,1.77,0,0,1-.7-1.49c.09-.44.49-.81,1.18-1.11.32-.17.32-.32.33-.38s-.21-.67-1.69-1.53c-1-.47-1.7-1-1.71-1.76A.2.2,0,0,1,243.81,192.65Zm4.5,11.73a1.32,1.32,0,0,0-.25.16,1.21,1.21,0,0,1-.79.3h-.2l-2.29-.47.63-.16c.09,0,2.15-.57,2.92-.08l.25.16Zm.26-.94,0,0h0a9.55,9.55,0,0,0-3.16.29h0l-.05,0a1.45,1.45,0,0,1-.52-.57l-.24-.39.38.1a2.58,2.58,0,0,0,2.26-.7,7.37,7.37,0,0,1,.92-.57,1,1,0,0,1,1.22.34,1.3,1.3,0,0,1-.4,1.55C248.76,203.56,248.61,203.47,248.57,203.44ZM220.31,221.2l-.07-.09.07-.09a9.68,9.68,0,0,1,1.8-1.84l.18-.14.06.22a7.62,7.62,0,0,0,3.9,5l.63.33-.71,0-.46-.05A8.49,8.49,0,0,1,220.31,221.2Zm13.77,13.87c7.57-5.53,7.76-9.87,5.72-14.69l-.05-.1.08-.08c.29-.26,1.75,0,1.82,0,.67.13,2.24.51,2.76,1.37.49-.06,2.22-.19,3.07.76a1.9,1.9,0,0,1,1.44,0,3.34,3.34,0,0,1,1.68,1.46,4.47,4.47,0,0,1,2.24,1.28c1.35.88,4.53,3.88,4.53,12.32,0,1.51,0,2.67-.05,3.53v.09l-.08,0c-.71.33-1.35.61-2,.86l-.21.09v-.23c-.13-5.8-.75-8.46-2.06-11.2a22.13,22.13,0,0,1,.25,12.05l0,.08-.07,0c-1.11.4-2.3.77-3.53,1.12l-.25.07.06-.26a26.55,26.55,0,0,0-1.4-17.86,36.43,36.43,0,0,1-2,18.84l0,.08-.08,0a51.71,51.71,0,0,1-6.51.84l-.28,0,.13-.25c3.94-7.11,5.68-10.72,5.73-15.53a33.07,33.07,0,0,0-.2-4.47c.09,8.54-3.76,16.59-9.79,19.92a4.41,4.41,0,0,1-1.94.39,14.94,14.94,0,0,1-2.37-.26,17.24,17.24,0,0,0-1.91-.22l-.94,0,.9-.27c2.63-.78,15-5.25,13.72-19.92a19.6,19.6,0,0,1-5.58,11.9c-6.21,6.14-14.91,5.9-21.12,4.62h0A51.14,51.14,0,0,1,195.89,226l-.35-.46.12-.1.12-.09.36.47C204.77,236.74,228.23,239.23,234.08,235.07ZM245,297.44H227.89l-.22.34,8.77.1,8.76-.1Zm78.65-45a.32.32,0,0,0,.28.17h.21a1.76,1.76,0,0,1,1.17.36,3.31,3.31,0,0,0,3.76,0,2.21,2.21,0,0,1,1.57-.36h.15a.36.36,0,0,0,.29-.17.57.57,0,0,0,0-.54l-1.54-3.65v-1.44a.92.92,0,0,0-.81-1H325.9a.92.92,0,0,0-.8,1l0,1.5-1.5,3.59A.57.57,0,0,0,323.62,252.4Zm2.22-5.78h3v4h-3ZM122.46,311.17l3.63.7v-3.26l-3.63-.92Zm-2.48-.49,1.92.38V307l-1.92-.48Zm26.23-9.17a3.16,3.16,0,0,1,2.06.73V302h1.21l-3.27-2.28L142.93,302h1.21v.23a3.12,3.12,0,0,1,2.07-.74Zm-16.92,7.42,3.6.85v0l-3.6-.9Zm194.07,5-.42.1v2.48l.42-.09Zm-196.28-1.84,1.65.32v-3.67l-1.65-.41Zm-4.62-4.83,3.63.92v-.09l-3.63-.91Zm13.2,3.22h0l.67.16Zm31.87-45.55,1.26,1.56c0-.53,0-1.22,0-1.93,0-1,0-2,0-2.58l-.25-.61-1.15.18.13.3Zm-2-8.35,1.24,2.75-.53-.25.42.9.52-.64-1.64-3.25-.48.47.13.29Zm144,4.17,1.16-1.43v-6.11l-1.16,2.69Zm-181,39L125.33,302h1.21v.23a3.25,3.25,0,0,1,4.13,0V302h1.21Zm37.06-37.64c0-1.17,0-3.1,0-3.37v0l-.41-1-.33.05v4.44l.75,1C165.65,263,165.66,262.6,165.66,262.1Zm-2.36-6.23-1.17-2.69v6.11l1.17,1.43Zm143.91,2.89v4.45l.76-1v-4.44l-.33-.05ZM191.72,327.88l.2-.15v0Zm-42.27-11.49.42.09V314l-.42-.1Zm42.38-1.58-.18.17.19-.15Zm-41.44,1.77,2,.39v-2l-2-.5Zm41.44-.53v0l-.19-.46-.66.1Zm-3-1.31-.24-.6-.85.13Zm-49.5-.3,1.38.26v-3l-1.38-.34Zm1.9.36,2.7.53v-2.39l-2.7-.66Zm8.45-9.36h-.84v-.38a2.69,2.69,0,0,0-1.36-2.44,2.47,2.47,0,0,0-1.1-.26,2.59,2.59,0,0,1,2.28,2.81l0,0,0,.08c-.05.11-.06.12-3.31.09H144l-.13.54h2.22v5.95h-2.29l.62.16h1.67v.42l.14,0V312h2.42v1.06l.6.15.43.11Zm-1,6.43h-2.42v-5.95h2.42Zm-13,1.85,3,.57v-2.66l-3-.72Zm-1.81-.35,1.31.26v-3.31l-1.31-.33Zm10.82,2.1,1,.19v-2.72l-1-.24Zm1.49.29,2.56.49V314.1l-2.56-.62Zm-16.87-3.27,3.6.69v-2.94l-3.6-.85Zm66.63-15.05,26.32.28-.19-.28Zm87.27-18.93c0,.06.18.07.31.08a1,1,0,0,1,.65.22,1.82,1.82,0,0,0,2.06,0,1.35,1.35,0,0,1,.93-.22h.09a.15.15,0,0,0,.11-.06.27.27,0,0,0,0-.25l-.89-2.12v-.82a.45.45,0,0,0-.39-.5,6.07,6.07,0,0,1-.74,0l-.47,0a1,1,0,0,0-.68.16.49.49,0,0,0-.12.36v.88l-.86,2.06C283.15,278.43,283.17,278.49,283.19,278.51Zm1.16-3.33h1.82v2.42h-1.82Zm8.88-1.93-1.11.8h2.21ZM248,290.73a1.12,1.12,0,0,0-1,0,.61.61,0,0,0-.28.37h1.6A.61.61,0,0,0,248,290.73Zm32.72-12.11,0-.07.73-1.71Zm.23,3.31H281l15.29-.29H294.1c-5,0-12.44,0-13.13,0l-2.82,3.15Zm12.33,14H280.7l-2.58,2.28h0a10,10,0,0,1-2,.06h-25.9l-.27.41h0v.21H250l0,.18c-.06.3-.37,1.8-1,1.8-.37,0-.56-.41-.72-.77s-.25-.57-.42-.57-.28.28-.4.55-.34.79-.75.79c-.6,0-.81-1.38-.86-1.81l0-.17h0v-.21h0l-.27-.41H227.33l-.27.41H227v.21h.05l0,.17c0,.43-.26,1.81-.87,1.81-.4,0-.58-.42-.74-.79s-.24-.55-.4-.55-.3.29-.43.57-.34.77-.72.77c-.64,0-1-1.5-1-1.8l0-.18h.08v-.21h0l-.27-.41h-27.8l-.05,0-1.93-1.71-.66-.59H179.59l5.12,3.67v-.16h3v2.3l2.68,1.92v-4.87c0-.58.2-1,.5-1s.63.62.63,1.66c0,1.2-.13,6-.13,6.06v.3l-.24-.18c-.17-.13-.46-.34-.77-.59-.53-.4-1.16-.89-1.59-1.19v1.3L194.3,309h6.23l-.09-7.1h-3.68l-.27-.81h4.69l-.25.67V309h5.86l-.08-7.1H203l-.28-.81h4.69l-.24.67V309h5.86l-.09-7.1h-3.68l-.27-.81h4.69l-.25.67V309h5.86l-.08-7.1h-3.68l-.28-.81H220l-.24.67V309h3.34v-.43h3.68V309h4.93l-.09-7.1h-3.68l-.28-.81h4.7l-.25.67V309h8.71v-7.24l-.25-.67h4.69l-.27.81h-3.68l-.09,7.1h4.92v-.43h3.69V309h3.34v-7.24l-.25-.67h4.7l-.28.81h-3.68l-.09,7.1h5.87v-7.24l-.25-.67h4.69l-.27.81H259.9l-.09,7.1h5.86v-7.24l-.25-.67h4.7l-.28.81h-3.68l-.09,7.1h5.86v-7.24l-.24-.67h4.69l-.27.81h-3.68l-.09,7.1h6.22l5.54-3.79v-1.29c-.77.56-2,1.48-2.36,1.77l-.24.18v-.3c0-.05-.13-4.86-.13-6.06,0-1,.23-1.66.62-1.66s.51.4.51,1v4.87l2.67-1.92v-2.3h3v.16Zm-107.52.15.33,0a1.65,1.65,0,0,1,1.79,1.46v.15h-.77l0-.11a1.67,1.67,0,0,0-1.32-1.17l-1.09-.15Zm1.7,3.05H184.7l-.49-1.34H188Zm6.35,2.4-.2-.12c-.09.08-.48.64-.48,4.32v.15h-.49v-4.69a2.14,2.14,0,0,1,.12-.8c.11-.27.28-.32.37-.32.36,0,.68.57.68,1.19Zm.48-3.15a.69.69,0,0,0-.46.15.7.7,0,0,0-.19.53v.15h-1.09v-.15a1,1,0,0,1,.34-.87,1.66,1.66,0,0,1,1.46-.11Zm3.29,4.3h2.57v5.17h-2.57Zm6.27,0h2.57v5.17h-2.57Zm6.26,0h2.57v5.17h-2.57Zm6.27,0H219v5.17h-2.57Zm-20-1.68.16-.24c.54-.81,1.28-1.75,1.64-1.62.13,0,.2.17.2.39,0,1,.9.87.9,0q0-.34.21-.42h.06c.38,0,1,.87,1.51,1.63l.15.24Zm6.27,0,.16-.24c.54-.81,1.28-1.75,1.63-1.62q.21.06.21.39c0,1,.89.87.89,0q0-.34.21-.42h.07c.38,0,1,.87,1.5,1.63l.15.24Zm6.26,0,.16-.24c.54-.81,1.27-1.75,1.64-1.62.13,0,.2.17.2.39,0,1,.9.87.9,0q0-.34.21-.42h.06c.38,0,1,.87,1.51,1.63l.15.24Zm6.27,0,.16-.24c.54-.81,1.27-1.75,1.63-1.62q.21.06.21.39c0,1,.89.87.89,0q0-.34.21-.42h.07c.38,0,1,.87,1.5,1.63l.15.24Zm10.91,6.89h-2.51v-.45h2.51Zm2.61-5.21h2.57v5.17h-2.57Zm15.41,5.17h-2.57v-5.17h2.57ZM227.56,301l.16-.24c.54-.81,1.27-1.75,1.63-1.62q.21.06.21.39c0,1,.89.87.89,0,0-.23.08-.37.22-.42h.06c.38,0,1,.87,1.5,1.63l.16.24Zm8.87-.21h0l-3.74-.25v-.31h7.48v.31Zm4,.21.15-.24c.49-.76,1.13-1.63,1.51-1.63h.06q.21.07.21.42c0,.85.9.94.9,0,0-.22.07-.35.2-.39.36-.12,1.1.81,1.64,1.62l.16.24Zm8.77,6.89h-2.5v-.45h2.5Zm7.24,0h-2.57v-5.17h2.57ZM252.83,301l.16-.24c.48-.76,1.12-1.63,1.5-1.63h.06q.21.07.21.42c0,.85.9.94.9,0q0-.33.21-.39c.36-.12,1.09.81,1.63,1.62l.16.24Zm9.92,6.85h-2.57v-5.17h2.57Zm6.27,0h-2.57v-5.17H269Zm6.27,0h-2.58v-5.17h2.58ZM259.1,301l.15-.24c.48-.76,1.13-1.63,1.51-1.63h.06q.21.07.21.42c0,.85.89.94.89,0q0-.33.21-.39c.35-.12,1.09.81,1.63,1.62l.17.24Zm6.26,0,.16-.24c.48-.76,1.12-1.63,1.5-1.63h.06c.14.05.22.19.22.42,0,.85.89.94.89,0q0-.33.21-.39c.36-.12,1.09.81,1.63,1.62l.16.24Zm6.27,0,.15-.24c.48-.76,1.13-1.63,1.51-1.63h.06q.21.07.21.42c0,.85.89.94.89,0q0-.33.21-.39h.07c.38,0,1,.87,1.56,1.63l.17.24Zm8.59,4.88h-.49v-.15c0-3.68-.39-4.24-.47-4.32l-.2.12v-.27c0-.62.32-1.19.67-1.19.1,0,.27.05.38.32a2.4,2.4,0,0,1,.11.8Zm.1-6.67h-1.1v-.15a.69.69,0,0,0-.18-.53.71.71,0,0,0-.47-.15l-.05-.3a1.67,1.67,0,0,1,1.45.11,1,1,0,0,1,.35.87Zm5.14-2.69a2.07,2.07,0,0,1,1.65-.44l.95.17-.95.13a1.66,1.66,0,0,0-1.32,1.17l0,.11H285v-.15A1.28,1.28,0,0,1,285.46,296.56Zm-.06,2.61-.48-1.34h3.73l-.48,1.34Zm-1.25-25.12h2.22l-1.11-.8Zm2.93,0-1.91-1.92-1.91,1.92h.24l1.76-1.58,1.76,1.58ZM193.47,296l-1.31-1.25H177.84l.34.25h14.15Zm52.36,17.52.2-.15.14-.09H226.7l.1.07a2,2,0,0,1,.24.17Zm-51.39.52-.13,26.42h25.92v-2.84h.84V315l-.23-1.71H195.07A.71.71,0,0,0,194.44,314Zm5.64,24.17-.18,0c-.46-.05-.63.21-.88.63a1.3,1.3,0,0,1-1.14.85h-.11a1.31,1.31,0,0,1-1.13-.85c-.25-.42-.41-.69-.88-.63l-.17,0v-.56h4.49ZM196,331.32v-.54h3.77v.54h-.6v5.89h-2.57v-5.89Zm4.63-2-.28-.13H200c-1,0-1.15,0-1.21-.12l0-.09.1-.15h.34l-1.31-.57-1.28.56c.24,0,.33,0,.38.12l0,.09-.11.16h-2.18l3.17-1.61.07,0,1.23.63,1.24.65c.07,0,.08,0,.1.11l0,.09.09,0h-.08Zm-4.63-11v-.54h3.77v.54h-.6v5.89h-2.57v-5.89Zm4.13,6.3v.57l-.18,0h-.12c-.37,0-.53.25-.76.63a1.3,1.3,0,0,1-1.14.85h-.1a1.31,1.31,0,0,1-1.14-.85c-.25-.42-.43-.7-.88-.63l-.17,0v-.57Zm6.37,13.59-.17,0c-.47-.05-.64.21-.89.63a1.29,1.29,0,0,1-1.14.85h-.1c-.64,0-.91-.47-1.13-.85s-.42-.69-.89-.63l-.17,0v-.56h4.49Zm-4.13-6.86v-.54h3.77v.54h-.6v5.89h-2.57v-5.89Zm10.5,6.86-.17,0c-.46-.05-.63.21-.88.63a1.32,1.32,0,0,1-1.15.85h-.1c-.64,0-.91-.47-1.13-.85s-.42-.68-.88-.63l-.18,0v-.56h4.49Zm-4.12-6.86v-.54h3.76v.54h-.6v5.89h-2.57v-5.89Zm10.5,6.86-.18,0c-.46-.05-.63.21-.88.63a1.3,1.3,0,0,1-1.14.85h-.11c-.64,0-.91-.47-1.13-.85s-.42-.69-.88-.63l-.17,0v-.56h4.49Zm-4.13-6.86v-.54h3.76v.54h-.59v5.89h-2.58v-5.89ZM217,314.58h0l1.49.77,1,.52c.07,0,.09.05.1.11l0,.1.1,0h-.09l0,.14-.26-.09h-.35c-1,0-1.15,0-1.21-.12l-.05-.09.11-.15h.33l-1.3-.57-1.29.56c.25,0,.34,0,.38.12l.05.09-.11.16H213.8Zm-1.89,3.71v-.54h3.76v.54h-.59v5.89h-2.58v-5.89Zm4.13,6.3v.57l-.18,0h-.12c-.37,0-.54.25-.76.63a1.29,1.29,0,0,1-1.14.85h-.11c-.64,0-.91-.46-1.13-.85s-.41-.68-.88-.63l-.17,0v-.57Zm-2.24,3,.06,0,1.57.81.92.48c.07,0,.09,0,.1.11l0,.09.1,0h-.09l0,.17-.26-.12h-.35c-1,0-1.15,0-1.21-.12l-.05-.09.11-.15h.33l-1.3-.57-1.29.56c.25,0,.34,0,.38.12l.05.09-.11.16H213.8Zm-6.38-13h.06l1.45.75,1,.54c.08,0,.09,0,.11.11l0,.1.09,0h-.08l0,.15-.26-.1h-.36c-1,0-1.14,0-1.21-.12l0-.09.11-.15h.33l-1.3-.57-1.29.56c.25,0,.34,0,.38.12l.05.09-.11.16h-2.19Zm-1.88,3.71v-.54h3.76v.54h-.6v5.89h-2.57v-5.89Zm4.12,6.3v.57l-.17,0h-.12c-.37,0-.54.25-.76.63a1.3,1.3,0,0,1-1.15.85h-.1c-.64,0-.91-.47-1.13-.85s-.42-.7-.88-.63l-.18,0v-.57Zm-2.23,3,.06,0,1.57.81.92.48c.07,0,.08,0,.1.11l0,.1.09,0h-.08l0,.18-.28-.13h-.35c-1,0-1.14,0-1.21-.12l0-.09.11-.15h.33l-1.3-.57-1.29.56c.25,0,.34,0,.38.12l.05.09-.11.16h-2.19Zm-6.38-13h.06l1.49.77,1,.52c.08,0,.09.05.11.11l0,.1.09,0h-.08l0,.14-.26-.09h-.35c-1,0-1.14,0-1.21-.12l0-.09.11-.15h.33l-1.3-.57-1.29.56c.24,0,.33,0,.38.12l0,.09-.1.16h-2.19Zm-1.89,3.71v-.54h3.77v.54h-.6v5.89h-2.57v-5.89Zm4.13,6.3v.57l-.17,0h-.12c-.37,0-.54.25-.77.63a1.27,1.27,0,0,1-1.14.85h-.1c-.64,0-.91-.47-1.13-.85s-.42-.7-.89-.63l-.17,0v-.57Zm-2.23,3,.06,0,1.57.81.91.48c.08,0,.09,0,.11.11l0,.09.09,0h-.08l0,.17-.27-.12h-.35c-1,0-1.14,0-1.21-.12l0-.09.11-.15h.33l-1.3-.57-1.29.56c.24,0,.33,0,.38.12l0,.09-.1.16h-2.19Zm-6.32-13,1.51.78,1,.51c.07,0,.08,0,.1.11l0,.1.09,0h-.08l0,.15-.27-.1H200c-1,0-1.15,0-1.21-.12l0-.09.1-.15h.34l-1.31-.57-1.28.56c.24,0,.33,0,.38.12l0,.09-.11.16h-2.18l3.16-1.6Zm52.86,25.84v-2.84h.54V314.94l.22-1.69h-2.84V314h2l-.09.21c-.14.35-.37.76-.69.81a.55.55,0,0,1-.52-.27s-.08,0-.09,0c-.19.09-.37.73-.36,1.05v15.4h1.7v.56h.56v.81h-5.64v-.9h.95v-.58h1.14V315.79c0-.32-.16-.91-.38-1,0,0-.09,0-.22.05a.51.51,0,0,1-.5.16c-.29-.07-.5-.44-.59-.76l-.06-.2h1.91v-.77h-.12v.32h-1.3l-.41.3,0,0c-.23.06-1.31.06-6.53.06h-2.87v.22l-.18-.18-.13.09v-.13H229.2a16.93,16.93,0,0,1-2.33-.05h0l-.42-.3h-1.29v-.32H225V314H227l-.24.59a.62.62,0,0,1-.45.37.57.57,0,0,1-.5-.18.19.19,0,0,0-.2,0c-.23.12-.38.69-.38,1V331.1h1.14v.58h.95v.9h-5.65v-.81h.57v-.56h1.7V315.82c0-.32-.17-1-.36-1.07a.13.13,0,0,0-.1,0,.55.55,0,0,1-1-.08l-.34-.68h2.06v-.77h-2.84l.22,1.67v22.67h.54v2.84h5.69V331a2.13,2.13,0,0,1,2.22-2.18h0a2.11,2.11,0,0,1,2.22,2.18v8.06l-.41.45v.9h2.78v-.89l-.45-.44V331a2.22,2.22,0,0,1,4.44,0v8.07l-.41.44v.9H241v-.89l-.45-.44V331a2.11,2.11,0,0,1,2.21-2.18h0A2.11,2.11,0,0,1,245,331v9.41ZM233.5,326.94h-.3l-.07-5.32c-.14-2.35-1.55-3.87-2.82-3.87h-.08c-1.16.06-2.32,1.49-2.12,5.31,0,2.37,0,3.34-.07,3.73v.1h0c0,.17-.06.18-.12.18h0c-.06,0-.1,0-.13-.18h0a1,1,0,0,0,0-.11c0-.42-.05-1.48-.06-4.13,0-2.17,0-4.44,0-4.77a3,3,0,1,1,5.85,0Zm5.81-1.92h-.45v2h-.6v-2.47h.63V319.8h-.11l-.68,1.92h0V325h-3.41v-3.3h0l-.68-1.92H234v4.72h.62V327H234v-2h-.45v-7.13a3.77,3.77,0,0,1,1-2.67,2.67,2.67,0,0,1,1.86-.81h0a3.25,3.25,0,0,1,2.82,3.48Zm5.53,1.88h0v-.09c0-.4-.05-1.37-.07-3.73.2-3.83-1-5.26-2.12-5.32s-2.76,1.47-2.91,3.87l-.06,5.32h-.31l0-9.05a3,3,0,1,1,5.86,0c0,.33,0,2.59,0,4.77,0,2.65,0,3.71,0,4.14v.1h0c0,.19-.07.19-.14.18S244.87,327.08,244.84,326.9ZM325,244.65h4.58L327.32,243Zm-41,70.09,1.1-.47-.86-.13Zm-3.07,13,.2.15-.19-.18Zm.09-12.92v0l.19.15Zm.85.86-.67-.1-.19.48Zm-3.33,24.76L278.43,314a.71.71,0,0,0-.64-.75H252L251.8,315v22.61h.84v2.84Zm-20.4-2.25-.17,0c-.46-.05-.63.21-.88.63a1.32,1.32,0,0,1-1.15.85h-.1c-.64,0-.91-.47-1.13-.85s-.42-.69-.88-.63l-.18,0v-.56h4.49ZM254,331.32v-.54h3.77v.54h-.6v5.89h-2.57v-5.89Zm10.5,6.86-.17,0c-.46-.05-.63.21-.88.63a1.3,1.3,0,0,1-1.14.85h-.11c-.64,0-.91-.47-1.13-.85s-.42-.69-.88-.63l-.18,0v-.56h4.49Zm-4.12-6.86v-.54h3.76v.54h-.59v5.89H261v-5.89Zm4.54-2.16-.09,0a.09.09,0,0,1-.09,0h-1c-.5,0-.58,0-.62-.14l0-.1.12-.13h.32l-1.3-.57-1.3.57h.42l0,.36h-2.23l3-1.57c.09,0,.1,0,1.93.9l.71.36a.11.11,0,0,1,.08.05l0,.05v.1l.11,0Zm-4.54-10.87v-.54h3.76v.54h-.59v5.89H261v-5.89Zm4.12,6.3v.57l-.17,0h-.12c-.37,0-.54.25-.76.63a1.29,1.29,0,0,1-1.14.85h-.11c-.64,0-.91-.47-1.13-.85s-.43-.7-.88-.63l-.18,0v-.57Zm6.38,13.59-.18,0c-.46-.05-.63.21-.88.63a1.3,1.3,0,0,1-1.14.85h-.11c-.64,0-.91-.47-1.13-.85s-.41-.69-.88-.63l-.17,0v-.56h4.49Zm-4.13-6.86v-.54h3.76v.54H270v5.89h-2.57v-5.89Zm4.56-2.17-.11.05h-1.69l0-.36h.4l-1.31-.57-1.3.57h.42l0,.36h-2.24l3-1.57c.1-.05.12,0,1.93.9l.71.36h.73l-.54.23.05,0Zm-4.56-10.86v-.54h3.76v.54H270v5.89h-2.57v-5.89Zm4.13,6.3v.57l-.18,0h-.12c-.37,0-.53.25-.76.63a1.29,1.29,0,0,1-1.14.85h-.1a1.3,1.3,0,0,1-1.14-.85c-.25-.42-.41-.7-.88-.63l-.17,0v-.57Zm6.37,13.59-.17,0c-.46-.05-.64.21-.89.63a1.3,1.3,0,0,1-1.14.85H275a1.31,1.31,0,0,1-1.14-.85c-.24-.42-.42-.68-.88-.63l-.17,0v-.56h4.49Zm-4.13-6.86v-.54h3.77v.54h-.6v5.89h-2.57v-5.89Zm4.66-2.17h-.1l-.11.05h-1.68l0-.36h.4l-1.31-.57-1.3.57h.42l0,.36h-2.24l3.05-1.57c.09,0,.09-.05,1.92.9l.72.36h.73l-.55.23Zm-4.66-10.86v-.54h3.77v.54h-.6v5.89h-2.57v-5.89Zm4.13,6.3v.57l-.17,0H277c-.37,0-.53.25-.76.63a1.3,1.3,0,0,1-1.14.85H275a1.29,1.29,0,0,1-1.13-.85c-.25-.42-.42-.7-.89-.63l-.17,0v-.57Zm-.45-9.1c.32.17.65.34.75.38h.76l-.58.24.05,0h-.1l-.11,0a.07.07,0,0,1-.06,0h-1.62l0-.36h.4l-1.31-.57-1.3.57h.42l0,.36h-2.24l3.05-1.58C275,314.58,275,314.57,276.83,315.49Zm-6.37,0,.74.38H272l-.58.24.05,0h-.1l-.11,0a.07.07,0,0,1-.06,0h-1.63l0-.36H270l-1.3-.57-1.3.57h.42l0,.36h-2.24l3.05-1.58C268.66,314.58,268.68,314.58,270.46,315.49Zm-8.27-.88c.1,0,.1-.05,1.9.89l.74.37h.73l-.54.23,0,0H265l-.1,0h-1.69l0-.36h.39l-1.3-.57-1.3.57h.42l0,.36h-2.23Zm-6.37,0c.1,0,.11,0,1.89.89l.75.38s.05,0,.08.05l0,.05v.11l.11.05h-.11l-.1,0a.07.07,0,0,1-.08,0h-1c-.51,0-.58,0-.62-.14l0-.1.12-.13h.32l-1.3-.57-1.31.57H255l0,.36h-2.23ZM254,318.29v-.54h3.77v.54h-.6v5.89h-2.57v-5.89Zm4.13,6.3v.57l-.17,0h-.12c-.37,0-.54.25-.76.63a1.3,1.3,0,0,1-1.15.85h-.1c-.64,0-.91-.46-1.13-.85s-.42-.68-.88-.63l-.18,0v-.57Zm-2.34,3.05c.09,0,.1,0,1.92.9l.72.36h.73l-.55.23.05,0h-.1l-.1.05H256.8l0-.36h.4l-1.3-.57-1.31.57H255l0,.36h-2.24ZM292,276.21l-.86,2.06a.28.28,0,0,0,0,.25.13.13,0,0,0,.11.06,1.6,1.6,0,0,1,1,.29,1.65,1.65,0,0,0,.89.26,1.47,1.47,0,0,0,.92-.26,1.9,1.9,0,0,1,.72-.28c.33,0,.5,0,.56-.08a.34.34,0,0,0,0-.26l-.88-2.09v-.22c0-.33,0-.83-.16-1a.34.34,0,0,0-.23-.08h0a6.07,6.07,0,0,1-.74,0c-.47,0-1-.06-1.16.14a.49.49,0,0,0-.12.36Zm.31-1h1.82v2.42h-1.82ZM304.06,262c0,.15,0,.43,0,.94v3.53l1.27-1.55v-3.14l.12-.24-1.16-.18Zm3.27-5.43.34.27.14-.29-.48-.47-1.65,3.25.52.64.43-.9-.53.25ZM226.78,298.3h-3.62l.07.23,3.48,0Zm110.73-46.44a.57.57,0,0,0,0,.55.68.68,0,0,0,.64.17h.05a3.18,3.18,0,0,1,1.22.48,2.76,2.76,0,0,0,1.62.47,2.83,2.83,0,0,0,1.64-.47,3.23,3.23,0,0,1,1.23-.48H344c.37,0,.8,0,.94-.16a.65.65,0,0,0,0-.58l-1.53-3.63v-.41c0-.62,0-1.47-.32-1.83a.67.67,0,0,0-.49-.2h-2.83a.66.66,0,0,0-.49.19c-.36.37-.34,1.21-.32,1.83,0,.16,0,.3,0,.42l0,.06Zm2.25-5.24h2.95v4h-2.95Zm-17.34,67.89-2,.5v2l2-.39Zm8.36-69.86L327.16,241l-3.62,3.65h.74l3-2.74,3,2.74ZM314.35,345.44l1.72,0L359,350.75V303.66l-3.4.79V293.23h.46l3.53-4.2-1.48-1.92h-2.51V262.84l4.2-2.78-.3,0c-.38,0-21.56.05-34.22.1l-10.54,0-12.85,12.58,12.73-11.91h.06l40.28,0,4.33-.73-4.08,2.72h0l-40.43,0-14.46,12.9v1.13l-.17,0-1.09-.16-2.39-.36h0l1.91,2.43,1.78,1v1.78l0,0h0v14.75l14.52-8.47h7.94l0-13.29-.69-.82V273l-.48-1.29h10.18l-.5,1.46h-7.82v14.7H340.1l0-13.29-.69-.82V273l-.48-1.29h10.18l-.5,1.46h-7.82v14.7h17.35l1,1.16-.24.07H344.8c-12.38,0-29.29,0-30.14,0l-17.18,10.48,17.22-10.37,44.49,0-3,3.68H314.74c-5.11,2.76-14,7.66-21.92,12-5.17,2.84-10,5.5-13.34,7.31a.84.84,0,0,0-.37.75l.14,27.52,1,.11.31,0V330l1.7-.22v11.09l1,.12V329.61h.14l2.47-.32v12l1,.12V329.15l2.37-.3v12.81l1,.12V328.72l2.42-.3v13.65l1,.12v-13.9l.14,0,2.54-.32V342.5l1,.12v-14.8l.14,0,2.86-.36V343l1.94.23v-16l.14,0,2.72-.34v16.71l1,.12v-17h.14l2.58-.33V344l1,.12V326.23l.14,0,2.95-.37v18.63l1.84.21h1.38v.48h-.59a33.37,33.37,0,0,1-4-.37c-.6-.07-1.17-.15-1.62-.19h0l-30.85-3.7H193.77l-11.36,1.37c-10.29,1.23-23.08,2.77-24.23,2.88h-1.42v-.49h1.41l1.82-.21V325.84l3.09.39V344.1l1-.12V326.36l2.72.34v17l1-.12V326.83l2.85.36v16l1.95-.23V327.44l3,.38v14.8l1-.12V328l2.68.34v13.9l1-.12V328.42l2.42.3v13.06l1-.12V328.85l2.36.3v12.23l1-.12v-12l2.61.33V341l1-.12V329.74l1.7.22v10.67l.31,0,1-.11.14-27.51a.83.83,0,0,0-.37-.76c-3.38-1.84-8.33-4.56-13.59-7.45-7.78-4.27-16.61-9.12-21.66-11.85H116.71l-3-3.68,44.49,0,0,0L176.14,300c-6.82-4.17-13.77-8.41-18-11l-44.45,0,1.07-1.23h17.34v-14.7h-7.81l-.5-1.46H134l-.48,1.29v.76l-.68.82,0,13.29h16.66v-14.7h-7.81l-.5-1.46H151.3l-.48,1.29v.76l-.68.82,0,13.29H158l0,0,14.48,8.45V281.56h0l0,0v-1.78l.08,0,1.7-1,1.91-2.43-1.56.24-2.13.31v-1.13l-14.45-12.9-40.48,0,0,0-4-2.7,4.35.73,40.32,0,0,.05L171,272.75l-12.85-12.58L117.68,260h-4.8l9.54-7.21,5.74-7.33-.34.25-.19-.24,4-3.59,3,2.74h.6L131.67,241l.08-.11,13.47-18.75,11.08,33,3.94,5,16.15,16,1.08-1.38-.15-.19,2.32-2.09,1.76,1.58h.12l-2.4-2.11.06-.11,5.62-10.36.52,1.22.14-.07,4.8,7.87,7.86,16.31-.2.12,0,0,3.46.7,21.88,0c1,0,1.26,1.07,1.41,1.71a2.6,2.6,0,0,0,.11.39,1,1,0,0,0,1.17,0,1.3,1.3,0,0,1,.85-.38h2.72l-.71,2.94a1.61,1.61,0,0,1-1.93,1.23h-.11l-.33-1.16c-.13-.6-.69-.63-1.48-.59h-.4l0,2.54h-.16l-26.93.07.93-3.26-6.79-7.75H173.31l-.28-.22,0,8.08,3.82,2.66h15.58l.05,0,2.81,2.67h38.25a1.34,1.34,0,0,1-.12-.58v-.16l.91,0h4.25l.91,0v.16a1.34,1.34,0,0,1-.12.58H277.6l2.85-2.71H296l3.83-2.66,0-8.08-.28.22H281.21l-6.79,7.75.93,3.26h-.21l-26.88-.07,0-2.55H247c-.49,0-.68.64-.86,1.35,0,.11-.05.21-.08.3l0,.1H246a1.6,1.6,0,0,1-1.93-1.23l-.71-2.94H246a1.92,1.92,0,0,1,.83.34c.41.25.71.43,1.2,0a2.34,2.34,0,0,0,.1-.38c.15-.64.4-1.71,1.42-1.71l21.91-.05,3.43-.69,0,0-.2-.12,7.85-16.29,4.8-7.89.15.07.52-1.22,5.68,10.47-.09.08-2.31,2h.11l1.77-1.58,2.32,2.09-.15.19,1.08,1.38.09-.09,16.07-15.89,3.93-5,11.08-33,.18.25L341.2,241l-.09.09-3.49,3.52h.59l3-2.74.1.1,3.89,3.49-.2.24-.34-.25,5.75,7.33,9.48,7.17.45-.31-9.83-7.33-5.14-6.58.17-.53-4.26-4.73-14.14-19.76-8.29,10.51-8.59,18.37h-.77l-1.86,4.77-1.15,0L305.11,258l-1.91,0-2.11,5.38h1.78v1.94l-2.33,5v.7l-4.16,4.12-.62-1.11-1.88-2.69-6-11L282,270.05l-7.9,16.35-2.86.59-22,0a5.23,5.23,0,0,0-1.94-.37c-.62,0-1.64.29-1.87,2.1h-1.61l-.11-.5H245l1.17-1.61h-4.81a10.25,10.25,0,0,0-4.45-1.93v-.05h-1.23v.05a10.35,10.35,0,0,0-4.34,1.92h-4.81l1.17,1.61h1.25l-.11.5h-1.6c-.24-1.81-1.25-2.1-1.87-2.1a5.29,5.29,0,0,0-1.95.37l-21.86,0-3-.6L190.59,270l-5.9-9.61-5.93,11-1.95,2.8-.58,1.06-4.16-4.12v-.7l-2.33-5v-1.94h1.78l-2.11-5.38-1.91,0-1.41-3.65-1.16,0-1.85-4.77h-.77l-8.67-18.49-8.22-10.39-14.09,19.71L127,245.25l.18.52-5,6.47-10,7.44,4.77,3.16v24.27h-2.51L113,289l3.53,4.2H117v11.22l-3.4-.79v47.09l42.88-5.27,1.84,0,35.63-4.27,42.43.21,42.22-.21ZM326.63,286h-2.42v-6h2.42Zm0-6.11h-2.42v-5.95h2.42Zm2.55,6.11h-2.41v-6h2.41Zm0-6.11h-2.41v-5.95h2.41ZM344,286h-2.42v-6H344Zm0-6.11h-2.42v-5.95H344Zm2.55,6.11h-2.41v-6h2.41Zm0-6.11h-2.41v-5.95h2.41Zm-42.65,2.23.25-.2,0,9-1.25.82,0,1.95-.38.24v-.27c0-1.59,0-2.94,0-4.25,0-2.16.08-4.2-.11-6.83-.25-.81.25-1.17.95-1.66a9.6,9.6,0,0,0,1.06-.85l.25-.23v.34a1.75,1.75,0,0,1-1,1.75,6.44,6.44,0,0,0-.7.55v.41Zm-1.64-.4.07-.4c.51-3.09.66-3.28.82-3.28h0c.18,0,.19.22.19.56a3.1,3.1,0,0,0,.08.91,4.11,4.11,0,0,0,.18-1.43c0-.35,0-.62.22-.64s.33,0,.83,2.19l0,.09Zm5.73-2.83v9.46l-1.42.94v2l-.39.26V280.73l-.17-.49v0a6.54,6.54,0,0,0-.1-1.27v-.09l2.7-2.2V277a2,2,0,0,1-1.17,1.92,10.26,10.26,0,0,0-.86.67V280Zm.58-2.34-2.42,2-.32.27.07-.41c.63-3.54.81-3.52,1-3.51s.2.24.2.57a2.59,2.59,0,0,0,.12,1,3.52,3.52,0,0,0,.25-1.6c0-.41,0-.65.23-.67s.36-.06,1,2.22l0,.1Zm3.54-.91v10l-1.56,1v2.16l-.07,0-.09.06-.24.14V277.62l-.19-.51v0a6.8,6.8,0,0,0-.11-1.34l0-.09.07-.06,2.65-2.15.24-.19v.3c0,1.14-.54,1.55-1.27,2.06a8.16,8.16,0,0,0-1,.76v.49Zm.64-2.53-3,2.46.08-.41c.64-3.53.85-3.74,1-3.74h0c.18,0,.2.25.2.6a2.54,2.54,0,0,0,.14,1.06,3.35,3.35,0,0,0,.3-1.74c0-.42,0-.67.24-.7s.39,0,1,2.32l0,.09Zm3.38,14.27h-1.34l-.9.56-.21-.44,1-.61h1.45Zm0-1.55h-1.34l-.9.58-.21-.44,1-.63h1.45Zm0-1.55h-1.34l-.89.6-.22-.44,1-.64h1.47Zm0-1.54h-1.33l-.9.6-.22-.43,1-.66h1.47Zm0-1.55h-1.33l-.84.59-.23-.43.93-.65h1.47Zm0-1.55h-1.33l-.89.64-.23-.43,1-.7h1.47Zm0-1.55h-1.33l-.83.61-.24-.42.92-.68h1.48Zm0-1.55h-1.33l-.83.63-.24-.42.92-.7h1.48Zm0-1.55h-1.33l-.84.58-.22-.42.92-.65h1.47Zm0-1.55h-1.33l-.89.66-.24-.42,1-.73h1.48Zm0-1.55h-1.33l-.89.65-.24-.42,1-.72h1.48Zm0-1.55h-1.32l-.81.74-.28-.4.92-.82h1.49Zm0-1.54h-1.32l-.81.74-.28-.39.92-.84h1.49Zm0-1.55h-1.32L314,268l-.28-.39.92-.84h1.49Zm0-1.55h-1.32l-.81.74-.28-.39.92-.84h1.49Zm0-1.55h-1.32l-.81.74-.28-.39.92-.84h1.49Zm5.41,7.17.15-.24c.59-.91,2.57-3.9,3.39-3.65.34.1.34.59.34.75,0,1.14.63,1.73,1.25,1.73s1.22-.55,1.22-1.77c0-.15,0-.61.33-.71l.11,0c.89,0,2.83,2.79,3.43,3.67l.16.24Zm17.34,0,.15-.24c.59-.91,2.56-3.9,3.39-3.65.35.1.35.59.35.75,0,1.14.62,1.73,1.24,1.73s1.22-.55,1.22-1.77c0-.15,0-.61.33-.71l.11,0c.89,0,2.83,2.79,3.43,3.67l.16.24ZM316.1,342.06h-1.4l-1-.07,0-.49,1,.07h1.39Zm-2.37-7.74v-.49h2.37v.49Zm2.37,1.06v.49h-2.37v-.49Zm-.15-2.61a19.94,19.94,0,0,0-2,.06l-.16,0,0-.49h.14a18.78,18.78,0,0,1,2.09-.07h.15v.49Zm0-1.55c-.46,0-1.56,0-2,0h-.16l0-.48.15,0c.49,0,1.61,0,2.08,0h.15v.49Zm0-1.55a19.94,19.94,0,0,0-2,.06l-.16,0,0-.49.14,0c.51-.07,1.65-.07,2.09-.07h.15v.49Zm0-1.55a15.25,15.25,0,0,0-2,.08l-.17,0,0-.49.13,0a15.08,15.08,0,0,1,2.1-.09h.15v.48Zm.15,12.39h-1.4l-1-.05,0-.49,1,0h1.39Zm0-1.54h-1.4l-1,0v-.49h.16c.44,0,1.47,0,2.05,0h.15Zm8,5v1.95l-4.31-.49v-.13c-.14-4.35-.13-7.7-.13-11.58,0-1.4,0-2.85,0-4.44,0-3.45,1-6.31,2.25-6.49a1,1,0,0,1,.8.26c.89.77,1.49,3.15,1.49,5.91,0,.1,0,1.31,0,2.85,0,9.56,0,11.67-.1,12.16Zm6.7,2.55v.16l-5.49-.62v-.14a19.78,19.78,0,0,0-.15-3v-14c0-4.49,1.59-6.92,3.05-6.93h0c1.2,0,2.63,1.7,2.71,6.51C330.93,330.81,330.89,344.52,330.78,346.49Zm7.93.9v.16l-5.89-.67v-.14a20.43,20.43,0,0,0-.16-3.29V328.27c0-4.86,1.7-7.49,3.26-7.5h0c1.3,0,2.83,1.85,2.91,7.05C338.86,330.4,338.83,345.25,338.71,347.39Zm8.8,1v.16l-.17,0-5.9-.67h-.14v-.14a20.73,20.73,0,0,0-.17-3.59v-16.5c0-5.26,1.79-8.11,3.44-8.11h0c1.36,0,3,2,3.07,7.64C347.68,330,347.64,346.08,347.51,348.39ZM358,349.57v.16l-7.55-.85v-.15a21.1,21.1,0,0,0-.21-3.88V326.93c0-4.6,1.77-8.61,3.94-8.93a2,2,0,0,1,1.66.55c1.42,1.23,2.33,4.29,2.33,7.81C358.15,329.44,358.1,347.08,358,349.57Zm-40.8-32,2.62-.51v-2.92l2.73-.68V303.31h.62v1.36h.15a3.66,3.66,0,0,1,.65-1.75h-3.56l6.24-4.43.09.06,6.16,4.37h-3.57a3.78,3.78,0,0,1,.66,1.75h.61v.77h-1.3v-.38a2.62,2.62,0,0,0-2.64-2.75h0a2.61,2.61,0,0,0-2.64,2.75v.38h-.84v7.9l.24-.06v0h.15l.64-.16V312h2.42v.46l.14,0V312h1.7l.61-.15h-2.31v-5.95h2.41v5.92l11-2.74v-5.79h.62v1.36h.15a3.76,3.76,0,0,1,.65-1.75H338l6.24-4.43.09.06,6.16,4.37h-3.57a3.67,3.67,0,0,1,.66,1.75h.62v.77h-1.31v-.38a2.62,2.62,0,0,0-2-2.68,2.49,2.49,0,0,1,.93.59,3.14,3.14,0,0,1,.88,2.26v.16h-4.93v-.16a3.17,3.17,0,0,1,.87-2.26,2.61,2.61,0,0,1,.94-.59,2.63,2.63,0,0,0-2,2.68v.38h-.84V309l1-.26v-2.77h2.42v2.17l.14,0v-2.13h2.41v1.53l11.89-3v.6l-.11,0L354,306.24v.1l4.69-1.14v.46l-.12,0L354,306.8v3.66l4.69-.91v.89l-.12,0-40.94,7.93v26.74h-.31c-.16,0-.16,0-.16-.55V318.4h0Zm8.61-12.21h-1.45v-.14h-.16c0-2,1.29-2.91,2.46-2.91h0c1.16,0,2.42.89,2.47,2.85l0,0,0,.08c0,.08-.06.1-1.35.1Zm.81.53v5.95h-2.42v-5.95ZM316,337.42h-2.22v-.49l.93,0,1.43,0v.48ZM314.7,301.3h1.4v.49h-1.35l-.91.46-.18-.45Zm-.86-.58-.18-.45,1-.52h1.4v.49h-1.35Zm2.26,2.13v.49h-1.35l-.92.42-.16-.46,1-.45Zm-1.4,1.55h1.4v.49h-1.35l-.91.46-.18-.45Zm0,1.55h1.4v.49h-1.35l-.92.41-.16-.47Zm0,1.55h1.4V308h-1.36l-.93.36-.14-.47Zm1.4,1.55v.48h-1.37l-.93.31-.12-.47,1-.32Zm-1.4,1.54h1.4v.49h-1.36l-.93.36-.14-.47Zm0,1.55h1.4v.49h-1.36l-.93.34-.13-.47Zm0,1.55h1.4v.49h-1.36l-.94.33-.12-.48Zm1.4,1.55v.49h-1.38l-.93.27-.1-.48,1-.28Zm-1.4,1.55h1.4v.49h-1.37l-.93.29-.12-.47Zm1.4,1.55v.49h-1.4l-.92.21-.08-.47.13,0a6.05,6.05,0,0,1,2-.19Zm-1.42,1.55h1.42v.49h-1.38l-.93.25-.1-.47Zm0,1.55h1.45v.49h-1.38l-.94.22-.09-.48Zm.05-24.79h1.4v.49h-1.35l-.92.45-.17-.45Zm-1-1,1-.51h1.4v.49h-1.35l-.91.47Zm1-2.06h1.4V294h-1.35l-.91.49-.18-.45Zm0,4.65h1.4v.49h-1.35l-.91.5-.18-.45Zm-4.15.51h1.5l1.78,2.17h-1.69l-1.26-1.2-1.62,3.22-.28-.13Zm-.79,17.8,3.08-.8v.69l-.14,0c-.3,0-.45.65-.58,1.21s-.32,1.34-.81,1.38h-.08a.48.48,0,0,1-.27-.09,1.88,1.88,0,0,1-.56-1.23c-.08-.42-.18-.56-.25-.6a.22.22,0,0,0-.18,0l-.21.09Zm-.07-13.71,1.2-2.67,1.68,1.31-1.38-.22-.42,1Zm3,12.16-3,.81V303.54l3.08-1.34v12.73Zm-6.27-13.72h1.26l1.5,1.83h-1.45l-1-1-1.31,2.6-.28-.13Zm2.31,15.89a.3.3,0,0,1-.06.27.24.24,0,0,1-.19.08,1.3,1.3,0,0,0-.3.82c-.1.93-.45,1.56-.86,1.57h0c-.26,0-.59-.22-.75-1.25-.07-.43-.17-.54-.21-.57a.2.2,0,0,0-.13,0l-.21.08v-.67l.12,0L308,317l.81-.21,0,.22A.75.75,0,0,0,308.76,317.13ZM307,303.36l-.34.84-1,.46,1-2.28,1.49,1.16Zm1.75.62v12.07l-2.72.74V305.16Zm-6-.88h1.16l1.39,1.7h-1.35l-.91-.87-1.18,2.34-.28-.12Zm-.41,15.33.11,0,1.82-.47.79-.21v.65l-.13,0c-.18,0-.32.17-.43.81-.09.88-.44,1.49-.86,1.5h0c-.21,0-.58-.16-.74-1.19-.07-.39-.16-.49-.21-.52a.2.2,0,0,0-.13,0l-.21.08ZM302,306.26l1-2.13,1.41,1.1-1.15-.18-.3.76Zm.28,11.55v-11L305,305.6v11.47Zm-4.6-12.54H299l1.48,1.8H299l-1-.94-1.28,2.54-.28-.13Zm-.56,14.51.11,0,2.8-.73.19,0v.63l-.13,0c-.19,0-.38.14-.51.78-.11.81-.53,1.42-1,1.44h0c-.23,0-.62-.15-.81-1.07-.05-.24-.13-.4-.23-.45a.21.21,0,0,0-.2,0l-.21.08ZM297,308.63l1-2.24,1.47,1.14-1.2-.18-.33.82Zm3.16,9.77-3,.82V309l3.1-1.35v10.69ZM294,307.26h1.09l1.31,1.59h-1.29l-.83-.8-1.1,2.17-.28-.13Zm2.12,13.09a.31.31,0,0,1,0,.26.23.23,0,0,1-.19.08,1.07,1.07,0,0,0-.26.66c-.08.79-.41,1.32-.79,1.34h0c-.2,0-.53-.14-.69-1.05-.06-.34-.14-.42-.18-.43s0,0-.11,0l-.21.09v-.62l2.53-.65,0,.23Zm-1.62-11.26-.28.7-.88.43.91-2,1.35,1.05Zm1.62.37v10l-2.49.68v-9.63Zm-5.57-.44h1.09l1.31,1.59h-1.29l-.83-.8-1.1,2.17-.28-.13Zm-.41,12.57.11,0,1.5-.39.88-.23v.61h-.14c-.21,0-.33.49-.43.88s-.27,1-.65,1l-.11,0a.38.38,0,0,1-.19-.05c-.23-.13-.32-.44-.41-.78s-.15-.52-.26-.57,0,0-.09,0l-.21.09Zm-.25-9.61.91-2,1.35,1.06-1.1-.18-.28.71Zm.25,9.16v-9.07l2.49-1.09v9.47Zm-9.38-7h.87l1,1.27h-1l.29.23.14-.06v7.77l-1.69.47v-7.44l-.23.11.33-.74-.34.67-.28-.13Zm1.38,9.55v.56H282c-.09,0-.19.52-.23.68-.08.43-.17.84-.45.84h-.08a.21.21,0,0,1-.12,0c-.18-.09-.24-.36-.31-.67a1.33,1.33,0,0,0-.16-.49l-.21.09v-.56Zm-.51,4.62.43.33-.95-.14-.2.51-.78.38.34-.75-.34.68-.28-.13.83-2.16h.87l1.05,1.28Zm3-.45h0l.47.36-1-.16-.24.61-.83.4.83-1.83.65.51-.61-.59L283,329l-.28-.13,1-2.5h1l1.18,1.44Zm1-4.78a.29.29,0,0,1-.05.23.26.26,0,0,1-.19.08c-.11,0-.24.44-.33.74-.14.46-.28.94-.65,1h-.13c-.34,0-.48-.41-.58-.72s-.19-.51-.29-.48a.16.16,0,0,1-.2,0,.2.2,0,0,1-.07-.22v-.09l0-.13.13,0,1.5-.38.91-.24,0,.23S285.67,323,285.67,323.05Zm-.86-9.13.39.31.47-.2v8.34l-2.49.68v-7.94l0,0,.8-1.78.65.5-.61-.58-.95,1.88-.28-.12,1-2.5h1l1.18,1.43Zm3.44,13.38.5.39-1.05-.17-.26.65-.84.41.85-1.9.8.62-.76-.73-1,2-.29-.13,1-2.63h1l1.23,1.5Zm-1.58-5.21v-8.5l2-.87-1.09-.17-.28.7-.88.43.91-2,1.35,1.05.49-.21v8.9Zm2.49-.24v.58l-.13,0c-.13,0-.27.11-.37.61-.08.69-.41,1.19-.8,1.2h0c-.19,0-.52-.12-.68-.91-.05-.28-.13-.35-.16-.36s-.05,0-.13,0l-.21.08v-.58Zm-1-9.54-.83-.8-1.1,2.17-.28-.13,1.1-2.83h1.09l1.31,1.59Zm2.9,14.6-.28.7-.88.43.91-2,1.35,1.06Zm.61-.24-.83-.8-1.1,2.16-.28-.12,1.1-2.83h1.09l1.31,1.59Zm2.92-.36-.3.75-.9.44.94-2.1,1.4,1.09Zm.66-.26-.89-.85-1.17,2.31-.28-.13,1.16-3h1.14l1.37,1.66Zm3.09-.33-.31.79-.94.46,1-2.19,1.44,1.12Zm.71-.27-.95-.9L296.88,327l-.28-.12,1.22-3.16H299l1.44,1.74Zm3.85-.49-.36.91-1,.49,1.09-2.42,1.56,1.22Zm.83-.3-1.1-1.05-1.42,2.82-.28-.13,1.38-3.6h1.35l1.6,2Zm3.37-.53-.36.9-1,.49,1.08-2.4,1.55,1.2Zm4-.48-.41,1-1.08.53,1.19-2.67,1.69,1.32Zm1-.34-1.26-1.21-1.62,3.23-.28-.13.53-1.37h-1.52l-1.08-1-1.41,2.79-.28-.13,1.37-3.56h1.34l1.58,1.93,1-2.68H312l1.74,2.11v-.09l.13,0A9.59,9.59,0,0,1,316,323h.14v.48h-1.39l-.94.16,0-.32Zm2.59,1.23h1.43V325h-1.39l-.95.14-.05-.48Zm0,1.54h1.43v.49h-1.39l-.95.12-.05-.49ZM316,343.61h-.35a13.33,13.33,0,0,1-1.75-.1l-.14,0,.05-.49.16,0a15.25,15.25,0,0,0,2,.08h.15v.49Zm-187-69.68h2.42v5.95H128.9Zm0,6.1h2.42v6H128.9Zm-2.56-6.1h2.42v5.95h-2.42Zm0,6.1h2.42v6h-2.42Zm19.9-6.1h2.42v5.95h-2.42Zm0,6.1h2.42v6h-2.42Zm-2.56-6.1h2.42v5.95h-2.42Zm0,6.1h2.42v6h-2.42Zm19.38-4.29a6.16,6.16,0,0,0-.11,1.34v0l-.19.51v11.44l-.24-.14-.1-.07-.07,0v-2.16l-1.56-1v-10l1.56,1.23v-.49a8.16,8.16,0,0,0-1-.76c-.74-.51-1.32-.92-1.27-2.06v-.3l.24.19,2.65,2.15.06.06Zm3.83,3.95a70,70,0,0,0-.17,7.39c0,1.38,0,2.82,0,4.22v.13l-.2,0-.06,0c-.09-.08-.14-.49-.16-2.15l-1.39-.92v-9.46l1.43,1.13c0-.22,0-.38,0-.45a6.35,6.35,0,0,0-.86-.67,2,2,0,0,1-1.18-1.93l0-.31,2.7,2.2Zm3.68,2.16a5.05,5.05,0,0,0-.06.68,3.16,3.16,0,0,1-.15,1c0,1.59,0,2.94,0,4.24,0,1.86.08,3.63,0,5.79H170v-1.87l-1.25-.82v-.09l0-8.9.25.2,1,.76v-.41a6.51,6.51,0,0,0-.71-.55,1.74,1.74,0,0,1-1-1.75v-.31l2.35,1.91Zm-2.36-2.23c.46-2,.66-2.19.8-2.19h0c.2,0,.21.29.21.64a4.27,4.27,0,0,0,.19,1.43,3.52,3.52,0,0,0,.08-.91c0-.29,0-.54.19-.56s.31,0,.85,3.28l.06.4-2.44-2Zm-3.93-3.24c.6-2.28.84-2.23,1-2.22s.23.26.23.67a3.52,3.52,0,0,0,.25,1.6,2.59,2.59,0,0,0,.12-1c0-.33,0-.56.2-.57s.33,0,1,3.51l.08.41-.32-.27-2.42-2-.08-.06ZM160.1,273c.65-2.36.91-2.33,1-2.32s.23.28.23.7a3.35,3.35,0,0,0,.3,1.74,2.29,2.29,0,0,0,.15-1.06c0-.35,0-.58.2-.6s.35,0,1,3.74l.08.41L160.07,273Zm-3.34-9.3h1.5l.91.84-.27.39-.82-.74h-1.32Zm0,1.55h1.5l.91.84-.27.39-.82-.74h-1.32Zm0,1.55h1.5l.91.84-.27.39-.82-.74h-1.32Zm0,1.55h1.5l.91.84-.27.39-.82-.74h-1.32Zm0,1.55h1.5l.91.82-.27.4-.82-.74h-1.32Zm0,1.54h1.48l1,.72-.23.43-.89-.66h-1.34Zm0,1.55h1.48l1,.73-.23.42-.89-.66h-1.34Zm0,1.55h1.48l.92.65-.22.42-.84-.58h-1.34Zm0,1.55h1.48l.93.7-.24.42-.84-.63h-1.33Zm0,1.55h1.48l.92.68-.23.42-.83-.61h-1.34Zm0,1.55h1.48l0,0,.94.67-.23.43-.89-.64h-1.34Zm0,1.55h1.48l.92.65-.22.43-.84-.59h-1.34Zm0,1.55h1.48l1,.66-.22.43-.9-.6h-1.34Zm0,1.55h1.48l1,.64-.22.44-.9-.6h-1.34Zm0,1.54h1.47l1,.63-.21.44-.91-.58h-1.34Zm0,1.55h1.49l1,.6-.2.44-.9-.56h-1.35Zm-15.62-15.81c.59-.88,2.54-3.67,3.43-3.67l.11,0c.33.1.33.56.33.71,0,1.22.63,1.77,1.22,1.77s1.24-.59,1.24-1.73c0-.16,0-.65.35-.75.83-.25,2.8,2.74,3.38,3.65l.15.24H141Zm-17.34,0c.59-.88,2.54-3.67,3.43-3.67l.11,0c.33.1.33.56.33.71,0,1.22.63,1.77,1.22,1.77s1.24-.59,1.24-1.73c0-.16,0-.65.35-.75.84-.25,2.8,2.74,3.38,3.65l.15.24H123.64Zm56.28,15.73a.26.26,0,0,1-.2.06v2.85h-1.14v-2.85h0v2.85h-1.13v-2.85h-.27v-.55h2.84v.2C180.15,286.66,180.15,286.74,180.08,286.8Zm8.13,0a.22.22,0,0,1-.2.05v2.85h-1.14v-2.85h0v2.85h-1.14v-2.85h-.26v-.55h2.84v.2C188.28,286.66,188.28,286.74,188.21,286.81Zm5.91,2.36L194,289c-.09.22-.29,1.08-.29,4.27v.07l-.06.05a.17.17,0,0,1-.12,0l-.08,0c-.19-.09-.21-.44-.17-2.45,0-.79,0-1.6,0-2.22h0a3.08,3.08,0,0,1,.08-.79c.07-.28.2-.34.3-.34.35,0,.51.71.51,1.19Zm1.9,1.43-.17-.15c-.09.22-.29,1.08-.29,4.27v.08l-.06,0a.16.16,0,0,1-.12,0,.13.13,0,0,1-.08,0c-.18-.09-.21-.43-.17-2.45,0-.78,0-1.59,0-2.21h0a3.14,3.14,0,0,1,.08-.79c.07-.27.2-.33.3-.33.35,0,.51.7.51,1.18Zm96.7-4.29h2.84v.2c0,.15,0,.23-.07.29s-.13.05-.2.06v2.85h-1.14v-2.85h0v2.85H293v-2.85h-.27Zm-8.13,0h2.84v.2c0,.15,0,.23-.06.3a.22.22,0,0,1-.2.05v2.85H286v-2.85h0v2.85h-1.14v-2.85h-.27Zm-5.84,2.52c0-.48.16-1.19.51-1.19.09,0,.23.06.3.34a3.17,3.17,0,0,1,.07.79c0,.62,0,1.43,0,2.22,0,2,0,2.36-.17,2.45l-.09,0a.19.19,0,0,1-.12,0l-.06-.05v-.07c0-3.19-.19-4.05-.29-4.27l-.16.14Zm-1.9,1.42c0-.48.16-1.18.5-1.18.1,0,.24.06.31.33a3.22,3.22,0,0,1,.07.79c0,.62,0,1.43,0,2.21,0,2,0,2.37-.18,2.47h-.08a.19.19,0,0,1-.12,0l-.06,0v-.07c0-3.19-.2-4.05-.29-4.27l-.16.15Zm26.6-24.43v-3.18l-.68.33,1.24-2.75,1.51,1.18.2-.42h-.41L304,259.73l-1.7,3.36L302,263l1.63-4.22h1.56l.24.29,1.53-4h1.51l.93-2-.78,1.56-.28-.13L310,250.3h.74l8.74-18.61,7.82-9.95-10.77,32.85-15.78,17Zm-57.18,22.82a1.45,1.45,0,0,1,.47-1.09,1,1,0,0,1,.81-.22l.92.15-.92.15a1,1,0,0,0-.72,1v.15h-.56Zm-5.12-1.3h4.32l-.5.66h-3.82Zm-4.87-2h.31a6.56,6.56,0,0,1,3.29,1.07l-.18.25a7.67,7.67,0,0,0-6.53,0l-.18-.25A6.56,6.56,0,0,1,236.28,285.37ZM227.9,288l-.5-.66h4.31V288Zm-2.59-.67a1,1,0,0,1,.82.22,1.45,1.45,0,0,1,.47,1.09v.15H226v-.15a1,1,0,0,0-.73-1l-.91-.15Zm-71.93-55.67,8.75,18.64h.75l1.63,4.22-.28.13-.79-1.58.94,2h1.51l1.52,4,.25-.29h1.55l1.63,4.22-.28.13-1.69-3.36L167.55,261h-.4l.19.42,1.52-1.18L170.1,263l-.68-.33v3.18l2.71,5.78-15.82-17.07-10.73-32.79ZM122.56,344.82a19.91,19.91,0,0,0-.21,3.91v.15l-7.55.85v-.16c-.16-2.64-.2-20.34-.16-23.22.1-6.11,2.06-8.28,3.7-8.28h0c2,0,4.18,3.12,4.22,8.86Zm8.87.76v2.27h-.13l-5.9.67-.17,0v-.16c-.13-2.43-.16-18.61-.13-21.24,0-3.37.8-6.23,2-7.29a1.51,1.51,0,0,1,1.25-.42c1.82.27,3.24,3.86,3.24,8.18,0,.25,0,2,0,4.21C131.65,342.39,131.59,345,131.43,345.58Zm8.66-2.16a20,20,0,0,0-.16,3.32v.14l-5.9.67V345.3c-.1-.48-.15-2.79-.12-14.62v-2.85c.08-5.21,1.61-7.05,2.91-7.05h0c1.57,0,3.25,2.63,3.27,7.49Zm7.51-.59a17.83,17.83,0,0,0-.15,3.06V346l-5.5.62v-2.09c-.1-.48-.15-2.7-.12-13.61,0-1.36,0-2.44,0-2.52.08-4.82,1.51-6.52,2.71-6.52h0c1.46,0,3,2.44,3,6.93Zm5.38,2.44v.13l-4.31.49v-.17a28.12,28.12,0,0,0-.09-3V328.93c.05-3.72.89-6.12,2.16-6.12h0c1.17,0,2.36,2.22,2.38,6.44,0,1.59,0,3.05,0,4.45C153.11,337.57,153.12,340.92,153,345.27Zm2.68-27.36c0,.22,0,.34,0,.41v26.73l-.13.11-.1,0c-.22-.1-.34-1.1-.24-20.47,0-3,0-5.7,0-6.26l-41.07-7.95v-.89l4.69.91V306.8l-4.69-1.14v-.46l4.69,1.14v-.1l-4.62-1.16v-.6l.19,0,5.48,1.37,3,.74,3.25.81v-1.53h2.42v2.13l.14,0v-2.17h2.41v2.77l1,.26v-3.51h-.85v-.16a3,3,0,0,0-.78-2.2,2.54,2.54,0,0,0-1.85-.82h0a2.52,2.52,0,0,0-1.85.82,3,3,0,0,0-.78,2.2v.16h-1.32v-.77h.62a3.76,3.76,0,0,1,.65-1.75h-3.56l6.24-4.43.09.06,6.16,4.37h-3.57a3.78,3.78,0,0,1,.66,1.75h.15v-1.36h.62v5.79l11,2.74v-5.92h0v-.69a2.66,2.66,0,0,1,2-2.85,2.54,2.54,0,0,0-1,.35,2.71,2.71,0,0,0-1.2,2.55v.16h-1.32v-.77h.62a3.67,3.67,0,0,1,.66-1.75H140l6.25-4.43.08.06,6.16,4.37h-3.56a3.76,3.76,0,0,1,.65,1.75h.15v-1.36h.62v10.18l2.73.68v2.92l2.86.56-.24.16Zm-29.52-12.68c0-2,1.29-2.91,2.46-2.91h0c1.15,0,2.41.89,2.46,2.85l0,0,0,.08c0,.08-.06.1-1.35.1h-3.39v-.14ZM159,343.52a11.44,11.44,0,0,1-1.73.1h-.53v-.49h.16a15,15,0,0,0,2-.08l.17,0,0,.49Zm-2.1-3.5c.48,0,1.58,0,2,0h.16l0,.49H159c-.4,0-1.18,0-1.71,0h-.53V340Zm-.16-1.06v-.48h.16c.58,0,1.61,0,2.05,0h.16v.48H159c-.4,0-1.19,0-1.74,0h-.49Zm.16,2.61a20.26,20.26,0,0,0,2-.05l.16,0,0,.49-.15,0c-.4.05-1.18.06-1.71.06h-.53v-.49Zm5.24-16.88-.42-1-1.38.22,1.68-1.32,1.2,2.67Zm4,.34-.36-.9-1.27.19,1.55-1.2,1.08,2.4Zm4.2.84-.37-.91-1.27.2,1.56-1.22,1.08,2.42Zm4.51.64-.32-.79-1.17.18,1.44-1.12,1,2.19Zm3.73.55-.29-.75-1.15.18,1.41-1.09.94,2.1Zm1.1.45-1.16-2.31-.89.85h-1.34l1.37-1.66h1.15l1.15,3Zm-.45-17v9.63l-2.49-.68v-10Zm-2-1.29,1.36-1.05.91,2-.89-.43-.28-.7Zm2,11.42v.62l-.21-.09c-.07,0-.1,0-.11,0s-.11.09-.18.44c-.15.9-.48,1-.68,1h0c-.39,0-.71-.55-.8-1.34-.09-.53-.21-.66-.37-.68l-.13,0V320Zm2.86,6.93-.28-.7-1.09.17L182,326l.91,2Zm1,.42L182,325.87l-.84.8h-1.28l1.31-1.59h1.09l1.09,2.83Zm-.4-16v9.07l-2.49-.69V311Zm-2-1L182,310l.91,2-.89-.42-.28-.71Zm.27,10.11,1.63.42.12,0v.6l-.21-.09c-.08,0-.11,0-.12,0s-.11.09-.17.4c-.15.84-.49,1-.68,1h0c-.38,0-.71-.53-.8-1.27-.1-.53-.24-.62-.37-.64l-.13,0v-.6Zm4.47,7-.25-.65-1.06.17,1.31-1,.85,1.9Zm4.46.85-.95-1.88-.62.59.66-.51.83,1.83-.83-.4-.24-.61-1,.16.49-.37H187l1.18-1.44h1l1,2.5Zm-2.68-5.7v-.56l.74.19,1.63.42.12,0V324l-.21-.08c-.09,0-.12,0-.13,0s-.13.15-.16.32c-.16.73-.48.85-.67.85h0c-.38,0-.71-.49-.8-1.15-.1-.46-.24-.54-.37-.56Zm5.51,6-.35-.69.34.76-.77-.38-.2-.51-.95.14.43-.33h-1l1-1.28h.87l.83,2.16Zm-2-5.07v-.56l1.7.44v.56l-.21-.09a1.35,1.35,0,0,0-.15.49c-.07.31-.13.58-.31.67a.23.23,0,0,1-.13,0h-.07c-.28,0-.37-.41-.46-.84,0-.19-.13-.66-.22-.68Zm.52-10.11h.86l.84,2.15-.28.13-.35-.68.34.75-.23-.11v7.44l-1.7-.47v-7.77l.15.06.29-.23h-1Zm-3.12-1.62h1l1,2.5-.28.12-.95-1.88-.61.58.65-.5.8,1.78,0,0v7.94l-2.49-.68V314l.46.2.4-.31h-1.15Zm-3.38-1.77h1.09l1.09,2.83-.28.13-1.09-2.17-.83.8H183.4Zm1.48,2.87v8.5l-2.49-.68v-8.9l.5.21,1.35-1.05.91,2-.89-.43-.27-.7-1.1.17Zm0,8.91v.58L186,323c-.07,0-.11,0-.12,0s-.11.08-.17.36c-.15.79-.48.91-.67.91h0c-.39,0-.72-.51-.81-1.21-.09-.49-.23-.58-.37-.6l-.13,0v-.58Zm-1.56,3.3h1l1,2.63-.28.13-1-2-.76.73H183.4ZM182.29,309l1.09,2.83-.28.13L182,309.81l-.84.8h-1.28L181.2,309Zm-4.54-1.76h1.09l1.09,2.83-.28.13-1.09-2.17-.84.8h-1.28Zm-3.84-2h1.24l1.26,3.27-.28.13-1.28-2.54-1,.94h-1.42Zm-1.3,13.1V307.68l3.1,1.35v10.19Zm3.1,1.41v.62l-.21-.08a.22.22,0,0,0-.21,0,.69.69,0,0,0-.22.45c-.19.92-.59,1.07-.81,1.07h0c-.47,0-.88-.63-1-1.45-.13-.63-.33-.74-.51-.77l-.13,0V319l.19,0,2.62.68Zm-.79-11.61-.32-.82-1.21.18,1.48-1.14,1,2.24Zm-1.08,15.54h1.21l1.21,3.16L176,327l-1.23-2.44-.95.9h-1.39Zm-2.2,2.72-1.42-2.82-1.1,1.05h-1.53l1.6-2h1.34l1.39,3.6Zm-1.09-19.65v11l-2.72-.74V305.6Zm-2.09-1.55,1.41-1.1,1,2.13-.92-.45-.3-.76Zm.16,12.71,1.81.47.12,0v.66l-.21-.08c-.08,0-.12,0-.13,0s-.14.13-.21.53c-.17,1-.53,1.18-.74,1.18h0c-.42,0-.77-.62-.87-1.51-.11-.63-.24-.77-.42-.8h-.13v-.66Zm1.52-14.84,1.17,3-.28.12-1.18-2.34-.91.87h-1.35l1.38-1.7Zm-3.72-1.86,1.29,3.34-.28.13-1.31-2.6-1,1h-1.45l1.5-1.83Zm-2.31,14.81V304l2.72,1.18v11.63Zm2.72,1.42v.67l-.21-.08a.2.2,0,0,0-.13,0c-.05,0-.14.14-.22.57-.15,1-.48,1.25-.74,1.25h0c-.42,0-.76-.64-.86-1.58-.11-.66-.24-.81-.42-.84l-.13,0v-.66l.79.2,1.81.47Zm-.64-13.27-.33-.84-1.22.18,1.49-1.16,1,2.28Zm-3.87-5.49,1.57,4.06-.28.13L162,299.68l-1.26,1.2H159l1.78-2.17ZM160,314.93V302.2l3.07,1.34v12.23Zm3.07,1.58v.69l-.21-.09a.2.2,0,0,0-.17,0c-.07,0-.17.18-.25.6-.19,1.12-.59,1.3-.82,1.3h0c-.46,0-.86-.7-1-1.68-.12-.7-.29-.87-.5-.9l-.13,0v-.69Zm-1-14.24-.41-1-1.39.22,1.69-1.31,1.2,2.67Zm-5.33-8.72,1.52,0,.93.5-.18.45-.92-.49h-1.35Zm0,1.55,1.51,0,.93.48-.17.45-.91-.47h-1.36Zm0,1.55,1.51,0,.93.46-.17.45-.91-.45h-1.36Zm0,1.55h1.48l0,0,.93.51-.19.45-.91-.5h-1.35Zm0,1.55,1.51,0,.94.49-.18.45-.92-.48h-1.35Zm0,1.55,1.51,0,.93.48-.17.45-.91-.46h-1.36Zm0,1.55,1.5,0,.94.43-.16.46-.92-.42h-1.36Zm0,1.55,1.51,0,.93.48-.17.45-.91-.46h-1.36Zm0,1.55,1.5,0,.94.41-.16.47-.92-.41h-1.36Zm0,1.55h1.49l.94.38-.14.46-.92-.36h-1.37Zm0,1.55h1.48l.94.31-.11.47-.94-.31h-1.37Zm0,1.54,1.49,0,.94.36-.13.47-.93-.36h-1.37Zm0,1.55,1.49,0,.94.34-.13.47-.93-.34h-1.37Zm0,1.55h1.48l.95.33-.13.48-.93-.33h-1.37Zm0,1.55h1.45l1,.27-.1.48-1-.27h-1.37Zm0,1.55h1.48l.94.3-.11.47-.94-.29h-1.37Zm0,1.55h1.41l1,.22-.08.49-.17-.05a5.55,5.55,0,0,0-1.86-.17h-.3Zm0,1.55h1.45l1,.27-.1.48-.17-.05a3.71,3.71,0,0,0-1.63-.22h-.52Zm0,1.55h1.41l1,.23-.09.49-.16-.05a5.37,5.37,0,0,0-1.76-.19h-.4Zm0,1.55h.15a10.36,10.36,0,0,1,2.12.13l.13,0v.09l1.73-2.11h1.5l1,2.68,1.58-1.93h1.33l1.38,3.56-.28.13L166,322.79l-1.08,1h-1.52l.53,1.37-.28.13-1.62-3.23-1.26,1.21h-1.65l0,.32-1-.16h-1.37Zm0,1.55h.15a11.12,11.12,0,0,1,2.12.13l.13,0,0,.47-1-.14h-1.38Zm0,1.55h.15a12.49,12.49,0,0,1,2.11.11l.13,0,0,.48-1-.12h-1.38Zm0,1.55h.15a16.47,16.47,0,0,1,2.1.09l.14,0,0,.48-1-.1h-1.39Zm0,1.54h1.41l1,.08,0,.49-1-.08h-1.39Zm0,1.55h1.41l1,.06,0,.49-1-.06h-1.4Zm0,1.55h1.41l1,.08,0,.49-1-.08h-1.39Zm0,1.55h2.37v.48h-2.37Zm0,1.55h2.37v.49h-2.37Zm0,1.54h.15c.45,0,1.58,0,2.05,0h.16v.49l-.94,0h0l-1.44,0ZM341.25,243,339,244.65h4.58ZM249.66,389.24a6.21,6.21,0,0,0-6.4-6.43,7.07,7.07,0,0,0-3.29.68l.25-4.81h8.59V375.5H237.19l-.42,9.52,2.43,1.79a5.29,5.29,0,0,1,3-.91c2.35,0,3.82,1.36,3.82,3.34a3.34,3.34,0,0,1-3.62,3.32,12.14,12.14,0,0,1-5.93-1.7v3.46a14,14,0,0,0,6,1.44C246.94,395.76,249.66,392.76,249.66,389.24ZM213,395.34V375.5h-3.11l-5,2.61v3.43l4.73-2.38v16.18Zm5-5.61c0,3.54,2.55,6,7.17,6,4.36,0,7.05-2.49,7.05-5.67,0-2.2-1.22-3.79-3.48-4.93a5.45,5.45,0,0,0,2.8-4.5c0-3.2-2.41-5.58-6.49-5.58s-6.37,2.24-6.37,5.44a4.78,4.78,0,0,0,2.41,4.28A5.57,5.57,0,0,0,218,389.73ZM225,378c2.21,0,3.29,1.27,3.29,2.8,0,1.33-1,2.38-2.47,3.15l-1.89-.77a3,3,0,0,1-2.1-2.58C221.84,379.21,222.92,378,225,378Zm-1,8.19,2.18.9c1.93.8,2.58,1.76,2.58,2.89,0,1.45-1.27,2.75-3.62,2.75s-3.8-1.19-3.8-3.2C221.33,388,222.38,386.84,224,386.19Zm34.93,6.4a11.46,11.46,0,0,1-4.82-1.22v3.37a12.77,12.77,0,0,0,4.82,1c5.27,0,8.3-2.8,8.3-11.05,0-6.06-2.72-9.63-7.36-9.63-3.8,0-6.92,2.61-6.92,6.54s2.64,6.55,6.26,6.55a6.64,6.64,0,0,0,4.57-1.62C263.77,390.8,262.18,392.59,258.92,392.59Zm.91-7.4a3.53,3.53,0,0,1,0-7.05c2.52,0,3.79,1.9,3.79,5.35A5.3,5.3,0,0,1,259.83,385.19ZM531.11,239.26h0l-9.4,3.57V288h9.42ZM538.58,288H548v-32.9h-9.41Zm4.7-39.43a5.78,5.78,0,1,0-5.78-5.78A5.78,5.78,0,0,0,543.28,248.61Zm149.94,0a5.78,5.78,0,1,0-5.78-5.78A5.78,5.78,0,0,0,693.22,248.61ZM688.51,288h9.42v-32.9h-9.42ZM486,298.6a5.79,5.79,0,1,0,5.79,5.78A5.78,5.78,0,0,0,486,298.6Zm-4.71,51h9.42V316.7h-9.42Zm135,0h9.42V316.7h-9.42Zm4.71-51a5.79,5.79,0,1,0,5.79,5.78A5.78,5.78,0,0,0,621,298.6ZM464.39,304v14.79a14.4,14.4,0,0,0-9.77-3.68c-9.13,0-15.37,7.6-15.37,17.42s6.24,17.56,15.37,17.56a14.32,14.32,0,0,0,9.77-3.7v2.83h9.42V300.41h0Zm0,29.11c-.24,5.09-3.51,8.1-7.64,8.1s-7.62-3.23-7.62-8.68,3.4-8.61,7.62-8.61,7.4,3.08,7.64,8.05ZM131,398a1.71,1.71,0,0,0,.44-1.16c.77-11.32-4.51-21.55-12.43-25.58-.93,7.16.67,20.58,10.77,26.84a.93.93,0,0,0,1.12,0h-.12c-.73-6.14-3.41-11.73-6.77-16.78a35.72,35.72,0,0,1-2.88-5.29c1.87,3.6,4.35,6.46,6.26,10A30.28,30.28,0,0,1,131,398Zm233.8-36.45c-.23.19-.47.44-.74.43s0-1.08-.09-2.3c-.15-2.21-.8-5-2.37-4.72-1.6.54-2.08,2.95-2.61,4.36-.25.72-.51,2.39-1.1,1.44s-1.52-.11-1.73.95c-.5,1.43-.22,4.31-.54,5.42-.15.22-.34,0-.61-.13a.88.88,0,0,0-1.1.14c-1,.78-.67,2.75-.56,3.21s.79,1.12.74,1.44c-.21.27-1.23-.59-1.63-.09-.58.59-.45,1.86-.26,2.57s1.12,1.52,1.05,1.84-.32.19-.62.42-.43,1.44-.58,1.9a7,7,0,0,1-.77,1.22c-.17.22-.47,2,.39,1.72a15.41,15.41,0,0,0,2.15-2.89c2.47-3.9,4.87-8.12,5.81-12.66-.66,4.71-4.18,11.34-7.3,15.91,1.46-.21,5.33-3.54,6.1-4.79.11-.86-.79,0-.69-.58,1.24-.81,3.68-1.27,4.86-2.63.76-.58,1.91-2.92.47-3.1-.42,0-.91,0-1.09-.23,0-.48,3.94-4.61,4-6.4C366.31,363.17,365.88,360.73,364.8,361.51Zm-2-142.86c0,.18-.73,0-1.56,0-4.13.06-5.1,3.39-1.33,5.31.61.33,1.42.71.75,1.24a1.11,1.11,0,0,0,.29,1.95c1.25.64,3.23.22,3.44.55s-.35.69-.41,1c-.21,1.08,1.25,1.41,1.94,1.08.32-.12.9-.89,1.09-.82.12.26-.68,1.5-.43,1.88.25.67,1.1.51,1.6.29s1.22-1.24,1.41-1.17,0,.35.13.67.82.46,1.08.61.51.71.62.8c.58.45,1.4,0,1.12-.74-.77-1.28-1.82-2.68-2.75-3.95a15.67,15.67,0,0,0-5.56-4.07,2.81,2.81,0,0,0,.29.08c3.23,1.17,5.8,3.77,7.75,6.52.25.35.48.68.71,1a4.65,4.65,0,0,0-.21-2.08c-.43-1.39-.54-3.15-1.41-4.24-.53-.09-.17.82-.52.72-.27-1.22,0-3.65-.62-5a1.77,1.77,0,0,0-1.1-1.17c-1-.24-.83,1.43-1.23,1.79-.1.09-.3-.27-.58-.82-.81-1.53-2.6-4.87-4.48-3C362.37,217.6,362.93,218.1,362.81,218.65Zm22.87,84.71c-.51-1.28-1.51.47-2,.38-.26-.05.42-2.19.64-4.38.13-1.52.38-4.21-1.57-4.45-.63,0-.57,1-1,1.37-.14.12-.48-.78-1.07-1.6-1.08-1.48-2.81-3.09-4-1.69s-.3,5-.12,6.21c.19,1.51-.71.43-1.38,1.19-.93,1,.28,3.49.93,4.46s1.38,1.67.24,2a1.44,1.44,0,0,0-.87,1,2.43,2.43,0,0,0,1,2.59c.31.22,1.16.12,1.27.37s-.26.26-.59.45c-1.46.57-.71,2.15.19,2.66.49.32,1.63.12,1.72.39s-.17.37-.3.75.32,1.28.42,1.69a8,8,0,0,1-.06,1.38c0,.42.6,1.57,1.12.82a49.13,49.13,0,0,0,.31-11.83,22,22,0,0,0-.92-4.95c1.44,4.12,1.5,8.72,1.48,13.06,0,1.16-.08,2.34-.16,3.45,1.05-1.28,2.57-5.9,2.74-7.76-.31-.66-.64.59-.83.13,0-.32.8-1.36,1.11-1.87C384.94,307.5,386.32,305.27,385.68,303.36Zm-4.47-63.06c-.23.47-.41-1.1-.73-.15.08,1.9.12,6.35.71,7.8a107.37,107.37,0,0,0,2.44-13.35,39,39,0,0,1-.67,6.72c-.39,2.23-.9,4.71-1.29,6.82,0,.27-.08.66.44.71.94-.36.69-1.24,1.06-2.08.18-.35.79-1.08.77-1.5-.47-1.62.44-.51,1.46-.67a1.76,1.76,0,0,0,1.27-1.63c0-.83-1.1-1.51-1-1.75s.87.13,1.18,0a2.61,2.61,0,0,0,1.23-3.1c-.14-.8-.89-1.23-1.1-1.86s.32-1.11.75-2.19c.51-.81.27-2.42,1.33-2.82a2.79,2.79,0,0,0,0-.64c0-.6-.5-1.3-1-1.17-.32.15-.59-.26-.55-1.32,0-2.54.56-6.15-1-8.47-1.36-1.61-2.57.83-3.33,2.75-.42,1.06-.62,2.18-.76,2.05-.43-.38-.5-1.54-1-1.35-.7.24-1,1-1.14,1.91-.4,1.68,1,7.78.76,8.15-.23,0-.56-.42-.88-.7s-.66-.4-.9.3a6.74,6.74,0,0,0,.3,3.91A10.76,10.76,0,0,1,381.21,240.3Zm7.72,17.12c0,.74.41,2.81.19,3-.48,0-1.25-1.88-1.81-.57-1,2.54,1.11,5.87,1.51,8.19-.26.4-.32-.91-.72-.34-.23,1.14.12,4.23.14,5.75,0,1.36.14,2.31.33,2.4,1.54-5.15,2.45-10.6,4.13-15.71-1.44,5.19-2.32,10.84-3.64,16,0,.3-.1.67.45.81,1-.21.76-1.16,1.17-2,.2-.34.87-1,.86-1.43-.41-1.77.5-.47,1.55-.44a1.55,1.55,0,0,0,1.39-1.49c0-.88-1.14-1.78-1-2s.91.28,1.24.19a2.24,2.24,0,0,0,1.46-2.52,2.37,2.37,0,0,0-.64-1.55c-1-.74-.21-1.15.5-2.24,1.3-1.41,2.42-5.63.49-6-.36.05-.6-.31-.48-1.23.3-1.48.87-6.7-.38-8.28-1.33-1.91-2.74.34-3.64,2.15-.5,1-.79,2.08-.92,1.94-.39-.34-.35-1.6-1-1.58C387.86,251.33,388.88,255.43,388.93,257.42Zm4,2c.14-.39,0-.07-.07.23C392.88,259.61,392.9,259.53,392.93,259.45Zm-7.09,18c-.49-.35-.38.83-.69.57.07-1.52,1-4.09.78-5.84a2.66,2.66,0,0,0-.7-1.83c-.86-.74-1.17,1.19-1.65,1.39-.61-1.46-.59-4.89-1.82-6.26a1.31,1.31,0,0,0-1.77-.38c-.58.33-.19,1.15-.47,1.64-.09.18-.66-.38-1.44-.72-3.3-1.61-5.39.63-3.55,3.85a20.3,20.3,0,0,0,1.29,2.12c.34.54.19.88-.18,1s-1.31,1-.29,2.4c.65,1.07,2.51,1.62,3.07,2.32,0,.59-.91.85-.81,2,0,1.29,1.39,1.46,1.73,1.46s1.06-.56,1.24-.42-.91,1.08-.81,1.74.94,1,1.47.94c.93-.1,2-1.51,1.6.1,0,.38.68.84.89,1.11a5.77,5.77,0,0,1,.4,1.13c.27.51,1.08.78,1.24,0a23.68,23.68,0,0,0-1.59-5.31,27.45,27.45,0,0,0-4-7.52l-.24-.26c0,.05.17.15.25.24,3,3.42,4.78,7.95,6.17,12.24C386.46,283.62,386.28,279,385.84,277.45Zm-7.37,48.67c-.57-.3-.78.72-1.29.91-.17.07-.25-1-.6-2-.63-1.91-1.86-4.19-3.35-3.38s-1.37,3.33-1.58,4.83c-.09.78,0,2.37-.81,1.77s-1.51.16-1.57,1.61c-.13,2.1.88,4.54.69,5.05s-.94-.41-1.72.7c-.66.86-.2,2.41.22,3.06.22.36,1.05.66,1.07,1s-1.28-.07-1.63.58a2.5,2.5,0,0,0,.37,2.35c.65.91,2.27.86,1,1.79-.23.31-.08,1.43-.11,1.88a8.6,8.6,0,0,1-.45,1.38,2,2,0,0,0,.2,1.26c.43.43.66,0,.82-.2,2-5.16,4-11.06,4-16.77a18.48,18.48,0,0,1,0,3,57.27,57.27,0,0,1-3.39,14.06c1-.33,1.95-2.12,2.75-3.11.43-.62,3-4.08,1.59-3.58-.19.11-.37.24-.39,0,1-1.21,3.28-2.51,4.15-4.15a3.9,3.9,0,0,0,.64-2.26c-.13-1.5-1.54-.18-2-.49-.16-.31.87-1.93,1.13-2.6C378.93,330.77,380.62,327.55,378.47,326.12Zm-1.13-85c-.17.47-.27,1-.49,1.19-.85-1-1.5-4.3-3.11-5.26a1.36,1.36,0,0,0-1.86.29c-.51.51.05,1.15-.12,1.78-.06.19-.74-.11-1.61-.16-1.58-.09-3.72.28-4,2.3-.19,1.77,1.51,3.18,2.87,3.91.3.21.37.39.2.63-.72.52-1.15,1.77,1.22,2.49-1.48.19-1.77,1.72-1.12,2.12a1,1,0,0,0,.71.15c.77,0,2.55-.49,3-.19.05.21-.49.61-.55.93a1.52,1.52,0,0,0,1,1.85,2.23,2.23,0,0,0,1-.07c.35-.12,1-.94,1.18-.85s-.73,1.43-.51,2.09,1.15.66,1.68.46,1.31-1.34,1.51-1.23.05.41.12.78.86.61,1.13.81.49.89.61,1a.84.84,0,0,0,.89.22.75.75,0,0,0,.37-.64,27.6,27.6,0,0,0-4-6.71c-.69-.86-4-5.15-4.06-5.16s2.37,2.77,2.68,3.15c.85,1,1.9,2.17,2.66,3.25,1,1.44,2.29,3.16,3.13,4.67a6.42,6.42,0,0,0-.16-2.49,41.36,41.36,0,0,0-1.07-4.64c-.16-.42-.22-.64-.52-.47s-.07.85-.36.74c-.2-1,.22-2.19-.21-3.67a13.16,13.16,0,0,0-.45-2.76C378.91,240.68,377.71,239.84,377.34,241.16Zm-7.27-33.1c-.38.28-1.57-1-1.64.46-.15,2.52,2.59,4.54,3.62,6.41-.1.48-.52-.65-.69.06.38,1.45,1.77,6.14,2.5,7.1.09-5.34-.94-12.42-1-16.92.16,4.6,1.17,9.22,1.28,13.83a22.77,22.77,0,0,0,.27,3.32s.18.35.49.18c.74-.65.33-1.36.45-2.29.08-.4.46-1.3.34-1.65s-.34-.45-.26-.72,1-.11,1.44-.44c.73-.46,1.34-2.18.07-2.7s0-.53.54-.86a3.07,3.07,0,0,0,.62-.94,2.9,2.9,0,0,0-1.2-3.44c-.3-.12-.51-.09-.6-.39-.15-.6.86-2.73.61-5.17-.18-1.45-.69-2.64-1.7-2.3-.28.24-.58.05-.77-.84a30.18,30.18,0,0,0-.8-3.44c-1.18-4.23-3.82-5.54-4.28.33-.11,1.12,0,2.18-.18,2.13-.47-.15-.82-1.17-1.25-.8-1.48,1.24.15,4.63,1.05,6.54C369.28,206.16,370.19,207.78,370.07,208.06ZM321.41,410.25c1.35-1.21,2.21-2.9,1.42-4.76-.29-.74-.74,0-1.18-.3,0-.93.5-4.39.08-5.82-1-5-3-.86-4,1.43-.31.6-.55.43-.65-.1-1.49-3.62-2.55,4.56-2.92,5.05-.25.21-.39-.66-.89-.89a21.36,21.36,0,0,0-3.34.8c-1.35.52-1.7,2.53-1.31,3.52.31.66,2.15,1.83.07,1.38s-2.39,1.84-1.7,3c.19.53,1.5,1.11,1.55,1.6s-.39.26-.74.55-.35,1.59-.44,2c-.22.89-.79,1.23-.7,2,.15,1.43,1,1.14,1.44,0a35.08,35.08,0,0,1,4.1-6.23l1.08-.21a22,22,0,0,0,4.4-7c-.06.19-.15.52-.24.75a25.33,25.33,0,0,1-4.16,6.82l-1,.2a34.66,34.66,0,0,0-4,6.72c1.14-.35,2.1-1.5,3.21-2.21.62-.35,1.1-.88,1.78-1,1-.35,2-.86,1.23-1.37-.17-.07-.34-.11-.25-.37.49-.25,1.8.31,2.52.26,1.29.06,2.72-.26,3.18-1.74a1.14,1.14,0,0,0-.37-1.37c-.33-.27-.74-.45-.84-.78S320.15,411.41,321.41,410.25ZM83.16,270.08a27,27,0,0,1-2-6.1c-1.53-6.79.08-13.82,0-20.67.44,8.86-1.57,18.28,2.26,26.65l-.12.11a1.61,1.61,0,0,0,1-1c5.18-11.78,2.69-24.32-3.64-31.55-3.93,7.6-6.44,21.45,1.46,32A1.14,1.14,0,0,0,83.16,270.08Zm.4,21a1,1,0,0,0,1,0,21,21,0,0,0,8.48-9.77c3.22-7.72,1.6-17.33,1.6-17.33-8.65,3.88-13.15,14.25-11.89,25.66a1.91,1.91,0,0,0,.63,1.37c2.18-2.9,4.6-6.31,5.66-10.16,1.35-3.87,2-8.29,3.59-12.05-1.34,4-1.83,8.34-3.15,12.33A22.59,22.59,0,0,1,83.56,291.07ZM126.8,181.9c8.07-1.86,13.14-9.28,19.37-14.12-4.67,4.06-8.51,9.69-14.1,12.56-.89,1-7.13,1.87-4.33,2.43,12.3.73,20.29-11.9,22.64-18.1a19.94,19.94,0,0,0-14,3.75c-4.72,3.47-7.92,9.07-9.42,12.1C126.63,180.9,126.74,182.46,126.8,181.9Zm-45,135A1.09,1.09,0,0,0,83,317a21.8,21.8,0,0,1-3.39-5.29c-3-6.43-2.64-14.08-4-20.93,2.26,8.65,1.76,18.75,7.7,26l-.1.15a2.25,2.25,0,0,0,.9-1.48c2.89-12.82-.8-24.9-10.16-30.35C71.66,292.8,70.29,308.7,81.78,316.86ZM159.45,417.7c-1-11.14-7.19-20.05-16.41-21.62.18,6.62,3.31,20.39,15,23.47a1,1,0,0,0,1.12-.37l-.12.05c-1.91-8-8.25-12.88-13.09-19,5.36,5.66,11.73,10.67,13.3,18.83A2.08,2.08,0,0,0,159.45,417.7Zm-23-13.18c-7.61-3.92-16.3-1.77-16.3-1.77s3.64,8.5,11.24,12.42c5.33,2.75,11.19,2.51,14.22,2.13,3.46-.92-3.85-.93-4.93-1.79-6.16-1.9-10.5-6.92-15.77-10.31,3.76,1.85,6.82,4.89,10.39,7,3.38,2.4,7.78,3.42,11.5,4.24a1.58,1.58,0,0,0-.1-1.47C145.19,412.27,141.82,407.27,136.49,404.52Zm-25.9-29.9c-6.31-5.45-14.53-4.28-14.53-4.28s2,10,8.32,15.46A19.39,19.39,0,0,0,117,390.19a1.35,1.35,0,0,0,1.09-.59c-8.52-1.54-12.74-10-18-15.85,5.79,5.38,9.94,13.5,18.18,15.52l0,.17a2.16,2.16,0,0,0,.13-1.66C117.32,384.5,115,378.44,110.59,374.62ZM97.31,357.73c-8.84-3.4-11.54-13.64-16-21,5.09,7,7.82,16.8,16.24,20.67l0,.2a2.7,2.7,0,0,0,.41-1.87c-.48-3.91-1.87-11.19-5.81-16.28a19.6,19.6,0,0,0-14.31-7.25s.43,11.74,6.06,19a19.31,19.31,0,0,0,12.29,7.06A1.35,1.35,0,0,0,97.31,357.73ZM89,250.49c6.42-4.38,8.43-12.51,12.29-18.85-3.41,6.61-5.39,15-12.14,19.09a.91.91,0,0,0,1,.17,19.82,19.82,0,0,0,9.47-7.63c4.25-6.6,4.36-15.76,4.36-15.76a19.62,19.62,0,0,0-11,8.14c-3,4.63-3.92,10.51-4.22,13.62a1.84,1.84,0,0,0,.36,1.37Zm4.73-19.05c-3-8.16,1.15-16.73,2.82-24.73-1.09,8.08-5,16.44-2.52,24.63l-.14.09a2.06,2.06,0,0,0,1.28-.93c6.88-9.76,8-21.39,2-29.17,0,0-6.31,7.95-7.23,16.54a21.45,21.45,0,0,0,2.89,13A1,1,0,0,0,93.69,231.44Zm14.14,138.69a1.61,1.61,0,0,0,.77-1,35,35,0,0,0,1.69-15.29,27.37,27.37,0,0,0-7.09-14.42c-3.23,7.36-4.86,20.86,3.36,30.34a1,1,0,0,0,1.13.43l-.13,0a35.68,35.68,0,0,0-.49-12.87c-.85-4.21-2.51-8.07-3.07-12.37.89,4.22,2.61,7.94,3.54,12.16A31.87,31.87,0,0,1,107.83,370.13Zm2.28-172.88c.3-8.19,6.08-14.66,10-21.4-2.52,5.41-6.72,10.13-8.51,15.88-.73,1.8-.83,4-1.39,5.57a1.35,1.35,0,0,0,1.23-.34c9.06-6.8,12.56-17.5,10.82-25.78,0,0-7.18,4.73-10.62,12.19a25.74,25.74,0,0,0-2.08,13A1,1,0,0,0,110.11,197.25ZM91,334.19a1.15,1.15,0,0,0,1-.62,29.71,29.71,0,0,0,4.35-14.34c.22-9.28-4.7-17.54-4.7-17.54a29.76,29.76,0,0,0-5.49,16,36,36,0,0,0,3.65,15.52,1.53,1.53,0,0,0,1.08.94c.23-1.91,1.21-4.19,1.35-6.37,1-6.73-.87-13.58-.73-20.33C92.08,316.3,94.69,325.72,91,334.19Zm252.86,53c-.46-.65-.92.33-1.42.21a13.2,13.2,0,0,1,0-2.46c-.61-8.39-3.74-6.2-5.31-.16-.26.77-.56.71-.77.22-1.58-2.46-1.75,3-1.83,3.94-.14,1.26.12,3-.78,1.89-.88-.88-1.73.52-1.71,1.55a7.15,7.15,0,0,0,0,1.63c.07.53.66,1.39.59,1.73s-1.1-1-1.49-.53c-.56.48-.53,1.89-.4,2.7s.94,1.93.86,2.26-.31.12-.61.28-.5,1.45-.68,1.9c-.59,1.05-1.22,1.17-1.07,2.57.12.55.49.49.49.49a30.58,30.58,0,0,0,8.21-14.9c0,.21-.09.6-.15.87-1,5.38-4.1,10.29-7.42,14.55-.11.17.44.07.68,0,1.63-.53,5.38-3.07,5.44-3.65.14-.9-.76-.16-.64-.76.06-.31,1.37-.29,2.78-.73a4.21,4.21,0,0,0,3.16-3.09c.13-.84-.22-1.09-.63-1.23s-.9-.14-1.06-.44c.31-.92,2-2.15,2.72-3.31C344,391.12,345.06,389,343.81,387.21ZM178.86,433.5a1.43,1.43,0,0,0-.46-1.32,30,30,0,0,0-12.89-7.82c-8.6-2.31-16.78,1.07-16.78,1.07s5.75,7.12,14.35,9.42a28.49,28.49,0,0,0,14.79-.42c3.19-1.39-4.26-.22-5.39-.8-6.63-.71-12.24-4.55-18.38-6.76,4.23,1.06,8.06,3.31,12.17,4.67C170.25,433.15,174.87,433.36,178.86,433.5ZM365,384.86a6.52,6.52,0,0,0-3,0c-1.06.17-1.93.62-2,.37-.15-.74.57-1.62,0-2.24-2.56-2.18-4.66,3.17-5.76,4.77-.44.74-.75,1.21-.86,1.08-.45-.48,0-2.68-1.33-2.41-2.59,1-2.38,5.48-3.58,7.39-.47,0,.29-1-.41-1.08-.09,0-.27.12-.5.36-1.27,1.64-3.46,3.43-4.3,5.29a67.78,67.78,0,0,0,9.73-3.88,41.75,41.75,0,0,1,4.63-2.11c-4.29,2-8.46,4.72-13,6.32-.5.23-1,.26-1.34.65a.79.79,0,0,0,.05.82,1.33,1.33,0,0,0,1,.58c.18,0,.79-.37,1.17-.33s1.33.45,1.61.16c.86-1.77.78.68,1.52,1.64,1.05,1.41,2.54,1.37,2.49-.71,0-2.29.51-.13,1,.62,1.58,1.74,3.53.37,3.36-1.74,0-.5-.14-.85.08-1.07s.93,0,1.83.06a4.71,4.71,0,0,0,3.71-.88,3,3,0,0,0,.91-2.73c-.31-.81-1-1.17.05-2a21.72,21.72,0,0,0,2.55-2.21C366.54,390,367.84,385.74,365,384.86Zm15.8-29.46c-1,.34-1.74.94-1.83.67-.27-.74.24-1.79-.45-2.36a1.45,1.45,0,0,0-2.17.11c-1.3.95-2.7,7.19-3.16,7.05-.64-.94-.76-3.77-2.45-1.76-1.37,2-.7,5.63-1.33,7.61-.46,0,.09-1.07-.6-1.07-.43.14-1.33,2.3-1.79,3.07-.51,1-1.7,3-1.58,3.73a109.63,109.63,0,0,0,9.63-6.56,21.29,21.29,0,0,1,2.85-1.81,52,52,0,0,0-5.2,4c-2.15,1.8-4.64,3.58-6.85,5.13-.17.33-.38.44.07,1.11,1.09.95,1.32,0,2.15-.18.37,0,1.37.22,1.56-.13s.09-.75.36-.75.9,1.64,1.47,2.17,1.6,1.17,2.14.43c.47-.54-.27-2.35,0-2.67.27,0,.81,1.24,1.2,1.55s2,1.31,2.72-.31c.66-1.27-.29-2.27-.07-3.09,1-.49,3.23.18,4.58-1.06a2.65,2.65,0,0,0,.49-3.73c-.63-.47-.27-1.41.4-2a15.85,15.85,0,0,0,1.73-2.36C387.08,358.34,385.83,353.44,380.84,355.4Zm14.67-68.53c-.74.75-1.23,1.67-1.35,1.46-.38-.65-.16-1.85-.79-2.05-.83-.26-1.37.23-1.74,1.07-.86,1.41-.85,8.13-1.23,8.21-.52-.21-1-2.47-1.84-1.47a3.46,3.46,0,0,0-.66,2.17c-.18,2,.73,4.82.69,6.66-.35.27-.16-1.06-.71-.71A29.09,29.09,0,0,0,387,307c-.21,1-.52,3.29-.25,3.42,2.84-4.54,5-9.67,8.07-14.07a87.76,87.76,0,0,0-4.56,8.71c-.95,1.94-2.09,4.05-3,5.88,0,.37-.22.61.31,1,1.08.33,1.06-.69,1.66-1.3.28-.23,1.12-.52,1.19-.95-.14-2,.77,0,1.76.39.57.2,1.53.26,1.78-.72.27-.59-.72-2.09-.63-2.48.21-.15.92.75,1.3.84,1.77.45,2.68-1.86,1.7-3.55-.22-.39-.45-.63-.37-.94.73-.95,2.76-1.57,3.42-3.18.75-1.39.61-3-.37-3.58-.91-.38-.16-1.72.21-2.77C400.84,290.39,400.85,281.46,395.51,286.87Zm-1.89,37c-.93.44-1.66,1.13-1.73.87-.23-.8.29-1.88-.31-2.34a1.34,1.34,0,0,0-2,.33c-1.49,1.62-2.14,5.79-3.25,7.43-.47-.43-.38-2.8-1.5-2.21-2.28,1.66-1.45,6.26-2.18,8.47-.42.09.1-1.08-.54-1-1,1.26-1.66,3.44-2.49,4.94a5.47,5.47,0,0,0-.75,2.34c4-3,7.52-6.86,11.6-9.75-3.25,2.55-7.53,7.38-11.29,10.46.07.1-.43.47.09,1.13,1,.8,1.23-.2,2-.5.35-.08,1.27,0,1.46-.35s.08-.77.34-.81.82,1.54,1.33,2,1.48,1,2,.12-.24-2.6,0-2.64.73,1.12,1.08,1.38a2.4,2.4,0,0,0,1.15.4,1.38,1.38,0,0,0,1.38-1.07c.65-1.72-.33-2.5,0-3s2.61,0,4.27-1.55a2.75,2.75,0,0,0,.54-3.67c-.36-.32-.43-.87.1-1.58a21,21,0,0,0,2-2.93C399,326.87,398.79,321.23,393.62,323.88ZM316.88,428.52a8.85,8.85,0,0,0-3.19-1.07c-1.2-.22-2.31-.14-2.26-.38.12-.67,1.25-1.17.85-1.94a2,2,0,0,0-2.29-.93c-1.7,0-6.66,3.75-7.1,3.43-.23-.65,1-2.27-.43-2.51-2.56-.51-4.73,3.45-6.51,4.58-.24-.11-.07-.28.07-.47s.25-.39-.1-.57a5.42,5.42,0,0,0-2,.62l.39-.33c-1.15.87-3,1.83-3.33,3.32,4.23-1.7,8.47-.78,13-.88.67,0,1.23.09,1.81.17a73,73,0,0,0-7.39.08,15.56,15.56,0,0,0-5.9.76c-.45.18-1,.28-1.22.65-.28.68,1.08,1,1.44.92.18,0,.67-.34,1-.31s1.4.34,1.6.17.09-.44.36-.38.35.35.61.68c.58.87,2.07,1.91,2.92,1.77.36-.07-.32-1.28-.1-1.27a7.46,7.46,0,0,0,2.95,2.33,7.92,7.92,0,0,0,4.54,1.62c1.38.11,2.94-1.06,2.54-2.31-.21-.47,0-.91,1-1.09,2.48-.44,6.32-1.32,7.57-3.92A2,2,0,0,0,316.88,428.52Zm-95.95,16a1.68,1.68,0,0,0-.8-1.37c-2.87-2-8.69-5.29-15.43-5.6-9.63-.44-17.52,5.43-17.52,5.43s7.73,6.58,17.36,7c6.75.31,12.64-2.48,15.56-4.18a1.54,1.54,0,0,0,.8-1.11,26.3,26.3,0,0,1-6.69,1.56c-7.19.86-14-2.06-21-3a37.69,37.69,0,0,1,7,1A41.78,41.78,0,0,0,220.93,444.47Zm-26-10.05c-2.24-3-4.88-6.57-8.2-8.69-3.1-2.31-6.49-3.67-9.43-6.27,4.77,3.29,10.22,5.08,14.09,9.69,1,.57,4.52,7.39,3.49,3.75-3.85-10.51-12.1-17.53-21.41-16.69,0,0,2.79,9.25,8.91,14.44a19,19,0,0,0,11.57,4.41A1,1,0,0,0,194.92,434.42Zm29.43-4.16c-5.81-3.47-12.44-1.83-12.44-1.83s2.77,7.26,8.58,10.73a17.68,17.68,0,0,0,10.86,2.09,1.1,1.1,0,0,0,.9-.67l-.09.08c-4-5.7-10.83-7-16.62-10.06,6,2.47,13,3.88,16.75,9.84a1.44,1.44,0,0,0-.12-1.1C231,437,228.41,432.69,224.35,430.26Zm66-1.7c0-.35,1.85-.58,3.58-1.42s3.26-2.27,2.79-4.42c-.08-.42-.3-.47-.55-.47-1.45.11-.38-.71.07-2.37,1.69-5.52.42-9.2-4.25-3.17-.51.52-.74.3-.73-.27-.07-1-.71-1.69-1.78-.39-1,1-2.08,3.94-2.81,4.73-.34.14-.29-.77-.81-1.12a28.82,28.82,0,0,0-4.05-.05,2.93,2.93,0,0,0-2.36,3.2,2.48,2.48,0,0,0,.53.9c.71,1,.27,1-.8.51a2.29,2.29,0,0,0-1.77-.12,2.22,2.22,0,0,0-.91,2.71c.08.57,1.45,1.49,1.39,2-.15.34-.51.17-1,.38s-.8,1.49-1,1.93-1,1.05-1.09,1.27c-.27.42-.43,1.64.31,1.74.27.06.4-.11.6-.19a36.42,36.42,0,0,1,6.22-5.37c.59-.55,1-.36,1.85-.34a23.27,23.27,0,0,0,6.78-5.89,24.74,24.74,0,0,1-6.92,6.48l-1.19-.06a36.44,36.44,0,0,0-6.2,5.69c-.13.12.21,0,.32,0,1.73-.41,3.81-1.51,5.64-1.93a4.4,4.4,0,0,0,2.37-.41c.48-.71-.6-.55-.3-1.06.24-.19,1.3.42,1.8.56,1.65.63,4,1.11,5.13-.6C292,429.81,290.52,429.4,290.31,428.56ZM280,441.94a10.66,10.66,0,0,0-3.59-1.5c-1.36-.36-2.64-.38-2.57-.63a2.84,2.84,0,0,1,.8-1c1.25-1.31-1.1-2.57-2.27-2.3-1.94-.15-7.85,3.49-8.35,3.1-.22-.76,1.27-2.42-.34-2.82-2.88-.8-5.61,3.34-7.74,4.44-.27-.15-.07-.31.1-.51.68-1.11-1.09-.57-2.43-.16,1.07-.69-.41.18-.87.43-.89.64-2.61,1.54-2.62,2.57,5-1.44,9.72,0,14.85.31.77.1,1.4.21,2.06.36a84.82,84.82,0,0,0-8.47-.63,17.27,17.27,0,0,0-8.07.65c.13,0-.63.3.05.93,1.24.82,1.48.22,2.58.2.43.05,1.59.51,1.82.35s.14-.49.44-.39c.43.29,1.07,1.57,1.59,1.92.72.58,2.89,2.07,2.34.34-.1-.36-.21-.7-.07-.63a8.71,8.71,0,0,0,3.23,2.86c1.27,1.16,5.7,3.59,7.81,1.33,1.08-1.24-.69-2.25,1.52-2.52,2.82-.25,7.27-.8,8.92-3.6A2.22,2.22,0,0,0,280,441.94Zm-33-3.23c1.53.4,4.21,2.86,6,.86.8-1-.5-1.52-.61-2.26,0-.3,1.61-.27,3.15-.77a4.68,4.68,0,0,0,2-1.2c.49-.4,1.19-2.5.18-2.76-1.24-.08-.3-.65.18-2,1.7-4.36,1-8.05-3.47-3.3-.46.39-.64.16-.61-.32-.23-2.75-2.64.64-3.17,1.69-.46.78-.81,1.43-1,1.48s-.21-.7-.64-1.07l-2.4-.47a2.43,2.43,0,0,0-3.27,2.38c0,.36.81,1.22.64,1.56-.44.1-1.79-1.09-2.46-.7a1.82,1.82,0,0,0-.93,2.23c0,.51,1.17,1.47,1.09,1.91-.16.27-.45.07-.87.2s-.76,1.19-1,1.54c-.63.81-1.53,1-1.21,2.16.59,1,1.33-.22,1.91-.6a29.5,29.5,0,0,1,5.12-3.27l1.1.22a19.5,19.5,0,0,0,5.66-3.72,17.32,17.32,0,0,1-3.92,3.16c-.62.38-1.24.71-1.9,1.05l-1-.2a27.47,27.47,0,0,0-5.68,4.18c1.63.06,3.56-.83,5.27-.92.85.19,2.76.24,2-.61C247,439,246.85,438.9,247,438.71ZM104.12,213.06c7.32-2.63,11.32-10,16.65-15.15-4,4.26-7,9.84-11.87,13.1-.75,1-6.54,2.57-3.8,2.72,11.55-.87,17.63-12.9,19.28-19.14a19.61,19.61,0,0,0-12.74,5.09c-4,3.73-6.44,9.18-7.51,12.11a1.83,1.83,0,0,0,0,1.42ZM340.71,413.7a7.88,7.88,0,0,0-2.91-.92c-1.07-.18-2-.07-2-.3,0-.65.95-1.16.5-1.84-1.29-1.77-3.12-.52-4.58.43-2.33,1.48-3.75,3.57-3.23.86,0-.49-.08-.94-.72-1.05-2.3-.39-3.68,3.4-5.08,4.49-.22-.1-.09-.26,0-.44s.16-.38-.16-.54c0-.29-2.41,1.16-1.38.32-.91.85-2.39,1.87-2.47,3.21,3-1.57,6.1-1,9.36-1.16a25,25,0,0,1,3.37.1c-2.37-.12-4.83.2-7.22.32-1.58,0-4.4.49-5.19,1.47,0,0-.1.31.29.58a1.7,1.7,0,0,0,1.07.24c.16,0,.55-.33.88-.32s1.26.28,1.41.12,0-.42.26-.36,1.85,2.38,3.38,2.2c.29-.07-.45-1.2-.25-1.19a7.78,7.78,0,0,0,2.85,2.12c1.07.82,4.75,2.52,6,.38.62-1.09-.88-1.82.74-2.28a11,11,0,0,0,5-2.16C342,416.9,342.38,414.62,340.71,413.7Zm11.21-230.55c.39.55.2.85-.2.92-.86.28-1.12,1.19-.29,2.18s2.78,1.83,3.36,2.57c0,.57-1,.58-.93,1.75s1.46,1.65,1.83,1.7,1.18-.39,1.36-.22-.16.32-.43.62c-1.2,1-.12,2.08,1,2.14,1,.06,2.24-1.19,1.73.36,0,.37.69.94.9,1.25a6.16,6.16,0,0,1,.36,1.2c.19.46,1.1,1,1.34.22a29.39,29.39,0,0,0-5.88-13.56c-.29-.29.05,0,.16.13,3.34,3.48,5.1,8.33,6.33,12.91.68-1.38.75-6.17.3-7.66-.51-.42-.43.76-.76.46-.08-.08,0-.47.18-1,.5-1.92,1.53-4.79,0-6.45-.94-.82-1.27,1-1.82,1.15-.54-.64-.91-7.95-4.15-6.69-.63.23-.18,1-.45,1.5-.09.16-.77-.41-1.65-.79-3.34-1.61-6.12-.15-3.81,3.28A23.36,23.36,0,0,0,351.92,183.15Zm-5.63,15.92c0,1.3,1.42,2.09,2.44,2.59.59.27,1.37.55.78,1.1a1,1,0,0,0,.42,1.79c1.25.61,3.45-.31,3.25.51-.14.39-.47.73-.27,1.17a1.4,1.4,0,0,0,1.84.42c.29-.13.76-.89.95-.83s0,.34-.15.72c-.54,1.27.34,1.79,1.4,1.2.69-.38,1.33-2,1.39-.58.1.3.8.37,1.05.48s.52.62.64.7c.65.38,1.24-.07,1-.77-2.11-2.83-4.71-5.71-8.19-6.78a5.57,5.57,0,0,1,.89.23c3.13,1.15,5.6,3.57,7.65,6.11.05-1.34-1-4-1.66-5.39-.13-.21-.24-.35-.31-.36-.5,0-.1.77-.43.71-.49-1.46-.05-5-2.06-5.6-.93-.16-.66,1.39-1,1.75-.24.07-.83-1.17-1.14-1.53-.85-1.28-2.55-3.25-3.84-1.63-.4.48.16.9.08,1.42,0,.17-.67,0-1.45.13C348.16,196.8,346.29,197.41,346.29,199.07Zm-18.67-27.61c-.39.27-1.34-.16-1.32.45.24,3,5.93,3.41,7.84,4.58,0,.49-1.64.56-.63,1.61a4,4,0,0,0,1.85,1.05c1.49.53,3.62.12,4.93.5.3.42-.77,0-.35.59,1.27.71,5.5,2.84,6.62,2.91-4.09-4-8.84-7.21-13-11,3.47,3.1,7.5,5.51,11,8.66a21.79,21.79,0,0,0,2.57,2.07.31.31,0,0,0,.41-.26c0-1-.79-1.2-1.39-1.94-.24-.34-.67-1.26-1-1.42s-.53,0-.68-.28.52-.9.53-1.44c.09-.9-.8-2.58-1.92-1.93s-.39-.36-.31-1c0-1.78-2-3.21-3.52-2.56-.27.15-.37.34-.64.2-.53-.29-1.48-2.56-3.39-4.05-1.17-.86-2.34-1.27-2.67-.24,0,.39-.32.5-1.07,0a19.82,19.82,0,0,0-5-2.53c-3.46-.8-2.47,2-.24,4.42C326.92,170.72,327.74,171.37,327.62,171.46ZM264.3,208s-1.1-.91-1.3-.87-.64.32-.6,1.47a11.19,11.19,0,0,0,.2,1.88S262.77,208.46,264.3,208ZM266,178.75l-.73,7.19c0,.27.47.22.48.21s.14,19,.19,19.08.86-.22.92-.23-.32-16.44.35-17.81a3.38,3.38,0,0,1,2.15,1.88l-.14-2.63v-.33c.2,0,.68.2.63-.19l-1.4-7.29a4.33,4.33,0,0,1,1.21-2.29,5,5,0,0,1,2-1.17,78.22,78.22,0,0,0-4-26.6l-.5-1a45,45,0,0,0-2.16,7.17,80.39,80.39,0,0,0-2.2,20.4A4.55,4.55,0,0,1,266,178.75Zm0-23.81c.4-1.67.78-3.1,1.14-4.28l.19,26.33c.07,2,0,4.88,0,6.9-.05-.58,0,1.24,0,1.19-.29-.07-1,.32-1.08-.16l.44-5.17c0-.08.08-2.63-.52-3.32a5.23,5.23,0,0,0-2.37-2.06A80.27,80.27,0,0,1,266,154.94Zm4.27,51.85a7.65,7.65,0,0,0-1.9-1,11.72,11.72,0,0,0-1.87,0,3.39,3.39,0,0,1-2.32-.41c-.07,0-.17,0-.22,0-.27.4,0,.83.28,1.14a2.66,2.66,0,0,0,2.25,1c1.05,0,2.09-.5,2.89.12a21.66,21.66,0,0,1,1.69,1.62,3.11,3.11,0,0,1,.3,1.26s.88-.52.34-2.47C271.46,207.52,270.75,207.14,270.27,206.79ZM267,210.66c1.2,0,4.05,1.87,4.25,2s.21-.88.18-1-.19-.79-.67-.84a4.23,4.23,0,0,1-1.77-1.21c-.33-.39-.73-.57-.78-.47s-.27.26-1.24.23a3.58,3.58,0,0,0-2.38.71,1.34,1.34,0,0,1-.77.43,3,3,0,0,0-.45,2.52A5.18,5.18,0,0,1,267,210.66Zm2.3,9.05c.07,0,.17,12.8.17,13.25a51.11,51.11,0,0,0,3.87-3.78,51.2,51.2,0,0,0-1.48-7.85c-.49-1.06-1.36-2.74-1.85-3.52a3.09,3.09,0,0,0-1.29-1.11,4.22,4.22,0,0,1-2.45-1.46c-.28-.2-.57.14-1.44.26s-.7-.66-.7-.66c.35.09,1.94-1.27,2.35-1.34a12.41,12.41,0,0,1,2.85.74c.11.07.62-.1.62-.1-.51-.59-3.92-1.92-4.15-2s-1.37,1-1.7,1.55a.49.49,0,0,1-.77.13s-.35.62-.05,3a7.48,7.48,0,0,0,1.29,2.39,3.42,3.42,0,0,0,1.5,1.58c0,1.06,0,2.6,0,3.68l.06,7.59.71-2c.07-2.08,0-11.17,0-11.45A6.1,6.1,0,0,0,269.3,219.71Z" transform="translate(-72.37 -144.27)"/></svg>