<svg xmlns="http://www.w3.org/2000/svg" width="239.64" height="18.957" viewBox="0 0 239.64 18.957">
  <g id="Group_3" data-name="Group 3" transform="translate(-416 -26)">
    <path id="Path_1" data-name="Path 1" d="M283.591,296.079l9.477,9.48-9.477,9.477Z" transform="translate(362.572 -270.079)" fill="#d7000d"/>
    <path id="Path_2" data-name="Path 2" d="M230.439,299.695h-5.424v14.46h-3.924v-14.46H215.61v-3.582h14.829Z" transform="translate(200.39 -269.998)" fill="#fff"/>
    <path id="Path_3" data-name="Path 3" d="M224.865,299.695v3.633h6.412v3.613h-6.412v3.633h8.786v3.582h-12.71V296.113h12.71v3.582Z" transform="translate(213.108 -269.998)" fill="#fff"/>
    <path id="Path_4" data-name="Path 4" d="M233.423,304.54l8.813,9.619h-5.112L230.8,307.2c-.169.19-.349.379-.535.576s-.386.4-.593.586v5.8h-3.9V296.113h3.9v6.829l6.721-6.829h5.282Z" transform="translate(224.632 -269.998)" fill="#fff"/>
    <path id="Path_5" data-name="Path 5" d="M248.176,314.047H243.4l-5.346-6.853h-2.367v6.853H231.8V296.079h7.96a6.323,6.323,0,0,1,4.263,1.628,5.894,5.894,0,0,1,1.32,1.761,4.811,4.811,0,0,1,.494,2.153,5.143,5.143,0,0,1-.955,3.044,5.657,5.657,0,0,1-2.509,1.991Zm-9.141-10.394a3.316,3.316,0,0,0,2.194-.606,1.818,1.818,0,0,0,.7-1.425,1.758,1.758,0,0,0-.7-1.4,3.442,3.442,0,0,0-2.194-.579h-3.352v4.009Z" transform="translate(239.023 -270.079)" fill="#d7000d"/>
    <path id="Path_6" data-name="Path 6" d="M241.453,299.666v3.582h6.321v3.558h-6.321v3.582h8.661v3.535h-12.53V296.132h12.53v3.535Z" transform="translate(252.813 -269.953)" fill="#fff"/>
    <path id="Path_7" data-name="Path 7" d="M250.405,314.1l-8.772-17.968h4.232l5.319,10.878q1.31-2.717,2.631-5.451t2.661-5.427h4.232L252.02,314.1Z" transform="translate(262.474 -269.953)" fill="#fff"/>
    <path id="Path_8" data-name="Path 8" d="M257.025,314.223a10.81,10.81,0,0,1-3.65-.633,10.3,10.3,0,0,1-3.186-1.815,9.061,9.061,0,0,1-2.258-2.861,8.41,8.41,0,0,1-.095-7.168,9.324,9.324,0,0,1,2.072-2.908,10.043,10.043,0,0,1,3.149-2.008,10.315,10.315,0,0,1,3.968-.752,10.469,10.469,0,0,1,3.717.674,10.263,10.263,0,0,1,3.176,1.882,9.268,9.268,0,0,1,2.211,2.881,8.1,8.1,0,0,1,.84,3.663,8.255,8.255,0,0,1-.738,3.393,9.177,9.177,0,0,1-2.065,2.9,10.091,10.091,0,0,1-3.142,2.008,10.468,10.468,0,0,1-4,.745m0-14.609a6.305,6.305,0,0,0-2.353.433,6.214,6.214,0,0,0-1.937,1.192,5.587,5.587,0,0,0-1.307,1.781,5.016,5.016,0,0,0-.474,2.16,4.852,4.852,0,0,0,.488,2.147,5.8,5.8,0,0,0,1.307,1.754,6.194,6.194,0,0,0,1.923,1.182,6.654,6.654,0,0,0,4.706,0,6.2,6.2,0,0,0,1.923-1.182,5.592,5.592,0,0,0,1.293-1.754,4.984,4.984,0,0,0,.474-2.147,4.933,4.933,0,0,0-.487-2.16,5.865,5.865,0,0,0-1.31-1.781,6.021,6.021,0,0,0-1.92-1.192,6.253,6.253,0,0,0-2.326-.433" transform="translate(275.471 -270.079)" fill="#fff"/>
    <path id="Path_9" data-name="Path 9" d="M265.7,313.924H253.977V296.132h3.87v14.257H265.7Z" transform="translate(291.924 -269.953)" fill="#fff"/>
    <path id="Path_10" data-name="Path 10" d="M265.487,314.1a8.707,8.707,0,0,1-3.061-.518,7.121,7.121,0,0,1-2.38-1.436,6.443,6.443,0,0,1-1.547-2.187,6.876,6.876,0,0,1-.559-2.8V296.132h3.843v10.574a4.136,4.136,0,0,0,.308,1.615,3.553,3.553,0,0,0,2,1.981,3.754,3.754,0,0,0,2.783,0,3.59,3.59,0,0,0,1.185-.762,3.65,3.65,0,0,0,.823-1.219,4.2,4.2,0,0,0,.308-1.615V296.132h3.866v11.031a6.875,6.875,0,0,1-.555,2.8,6.434,6.434,0,0,1-1.561,2.187,7.324,7.324,0,0,1-2.394,1.436,8.727,8.727,0,0,1-3.064.518" transform="translate(301.377 -269.953)" fill="#fff"/>
    <path id="Path_11" data-name="Path 11" d="M277.9,299.666h-5.346v14.257h-3.873V299.666h-5.4v-3.535H277.9Z" transform="translate(314.121 -269.953)" fill="#fff"/>
    <rect id="Rectangle_2" data-name="Rectangle 2" width="3.843" height="17.792" transform="translate(595.097 26.179)" fill="#fff"/>
    <path id="Path_12" data-name="Path 12" d="M280.49,314.223a10.791,10.791,0,0,1-3.646-.633,10.311,10.311,0,0,1-3.189-1.815,9.052,9.052,0,0,1-2.255-2.861,8.113,8.113,0,0,1-.85-3.734,8.271,8.271,0,0,1,.752-3.433,9.389,9.389,0,0,1,2.075-2.908,10.026,10.026,0,0,1,3.145-2.008,10.328,10.328,0,0,1,3.968-.752,10.487,10.487,0,0,1,3.721.674,10.285,10.285,0,0,1,3.172,1.882,9.277,9.277,0,0,1,2.214,2.881,8.307,8.307,0,0,1,.1,7.056,9.166,9.166,0,0,1-2.062,2.9,10.109,10.109,0,0,1-3.145,2.008,10.468,10.468,0,0,1-4,.745m0-14.609a6.3,6.3,0,0,0-2.35.433,6.177,6.177,0,0,0-1.937,1.192,5.486,5.486,0,0,0-1.307,1.781,5.016,5.016,0,0,0-.474,2.16,4.852,4.852,0,0,0,.488,2.147,5.687,5.687,0,0,0,1.307,1.754,6.157,6.157,0,0,0,1.923,1.182,6.645,6.645,0,0,0,4.7,0,6.21,6.21,0,0,0,1.926-1.182,5.592,5.592,0,0,0,1.293-1.754,5.031,5.031,0,0,0,.471-2.147,4.977,4.977,0,0,0-.484-2.16,5.92,5.92,0,0,0-1.31-1.781,6.036,6.036,0,0,0-1.923-1.192,6.241,6.241,0,0,0-2.326-.433" transform="translate(331.461 -270.079)" fill="#fff"/>
    <path id="Path_13" data-name="Path 13" d="M277.463,296.079h1.7l10.523,10.675v-10.5h3.846v17.964H291.8l-10.5-10.645V314.05h-3.843Z" transform="translate(347.953 -270.079)" fill="#fff"/>
  </g>
</svg>
